<svg xmlns="http://www.w3.org/2000/svg" version="1.1" xmlns:xlink="http://www.w3.org/1999/xlink" xmlns:svgjs="http://svgjs.com/svgjs" width="1440" height="560" preserveAspectRatio="none" viewBox="0 0 1440 560"><g mask="url(&quot;#SvgjsMask1054&quot;)" fill="none"><rect width="1440" height="560" x="0" y="0" fill="url(#SvgjsLinearGradient1055)"></rect><path d="M-96.34 338.39L-96.34 338.39" stroke="rgba(42, 5, 59, 1)" stroke-width="1.5"></path><path d="M-96.34 338.39L-100.82 509.12" stroke="rgba(42, 5, 59, 1)" stroke-width="1.5"></path><path d="M-96.34 338.39L101.53 344.57" stroke="rgba(42, 5, 59, 1)" stroke-width="1.5"></path><path d="M-96.34 338.39L101.96 542.96" stroke="rgba(42, 5, 59, 1)" stroke-width="1.5"></path><path d="M-96.34 338.39L-64.26 646.33" stroke="rgba(42, 5, 59, 1)" stroke-width="1.5"></path><path d="M-100.82 509.12L-100.82 509.12" stroke="rgba(42, 5, 59, 1)" stroke-width="1.5"></path><path d="M-100.82 509.12L-64.26 646.33" stroke="rgba(42, 5, 59, 1)" stroke-width="1.5"></path><path d="M-100.82 509.12L101.96 542.96" stroke="rgba(42, 5, 59, 1)" stroke-width="1.5"></path><path d="M-100.82 509.12L101.53 344.57" stroke="rgba(42, 5, 59, 1)" stroke-width="1.5"></path><path d="M-100.82 509.12L81.71 704.32" stroke="rgba(42, 5, 59, 1)" stroke-width="1.5"></path><path d="M-100.82 509.12L229.61 539.4" stroke="rgba(42, 5, 59, 1)" stroke-width="1.5"></path><path d="M-64.26 646.33L-64.26 646.33" stroke="rgba(42, 5, 59, 1)" stroke-width="1.5"></path><path d="M-64.26 646.33L81.71 704.32" stroke="rgba(42, 5, 59, 1)" stroke-width="1.5"></path><path d="M-64.26 646.33L101.96 542.96" stroke="rgba(42, 5, 59, 1)" stroke-width="1.5"></path><path d="M-64.26 646.33L237.56 676.97" stroke="rgba(42, 5, 59, 1)" stroke-width="1.5"></path><path d="M101.53 344.57L101.53 344.57" stroke="rgba(42, 5, 59, 1)" stroke-width="1.5"></path><path d="M101.53 344.57L226.26 362.78" stroke="rgba(42, 5, 59, 1)" stroke-width="1.5"></path><path d="M101.53 344.57L101.96 542.96" stroke="rgba(42, 5, 59, 1)" stroke-width="1.5"></path><path d="M101.53 344.57L229.61 539.4" stroke="rgba(42, 5, 59, 1)" stroke-width="1.5"></path><path d="M101.53 344.57L367.23 388.65" stroke="rgba(42, 5, 59, 1)" stroke-width="1.5"></path><path d="M101.96 542.96L101.96 542.96" stroke="rgba(42, 5, 59, 1)" stroke-width="1.5"></path><path d="M101.96 542.96L229.61 539.4" stroke="rgba(42, 5, 59, 1)" stroke-width="1.5"></path><path d="M101.96 542.96L81.71 704.32" stroke="rgba(42, 5, 59, 1)" stroke-width="1.5"></path><path d="M101.96 542.96L237.56 676.97" stroke="rgba(42, 5, 59, 1)" stroke-width="1.5"></path><path d="M81.71 704.32L81.71 704.32" stroke="rgba(42, 5, 59, 1)" stroke-width="1.5"></path><path d="M81.71 704.32L237.56 676.97" stroke="rgba(42, 5, 59, 1)" stroke-width="1.5"></path><path d="M81.71 704.32L229.61 539.4" stroke="rgba(42, 5, 59, 1)" stroke-width="1.5"></path><path d="M226.26 362.78L226.26 362.78" stroke="rgba(42, 5, 59, 1)" stroke-width="1.5"></path><path d="M226.26 362.78L367.23 388.65" stroke="rgba(42, 5, 59, 1)" stroke-width="1.5"></path><path d="M226.26 362.78L229.61 539.4" stroke="rgba(42, 5, 59, 1)" stroke-width="1.5"></path><path d="M229.61 539.4L229.61 539.4" stroke="rgba(42, 5, 59, 1)" stroke-width="1.5"></path><path d="M229.61 539.4L366.37 555.95" stroke="rgba(42, 5, 59, 1)" stroke-width="1.5"></path><path d="M229.61 539.4L237.56 676.97" stroke="rgba(42, 5, 59, 1)" stroke-width="1.5"></path><path d="M237.56 676.97L237.56 676.97" stroke="rgba(42, 5, 59, 1)" stroke-width="1.5"></path><path d="M237.56 676.97L361.82 648.94" stroke="rgba(42, 5, 59, 1)" stroke-width="1.5"></path><path d="M237.56 676.97L366.37 555.95" stroke="rgba(42, 5, 59, 1)" stroke-width="1.5"></path><path d="M237.56 676.97L506.06 545.55" stroke="rgba(42, 5, 59, 1)" stroke-width="1.5"></path><path d="M367.23 388.65L367.23 388.65" stroke="rgba(42, 5, 59, 1)" stroke-width="1.5"></path><path d="M367.23 388.65L366.37 555.95" stroke="rgba(42, 5, 59, 1)" stroke-width="1.5"></path><path d="M367.23 388.65L532.57 349.11" stroke="rgba(42, 5, 59, 1)" stroke-width="1.5"></path><path d="M367.23 388.65L229.61 539.4" stroke="rgba(42, 5, 59, 1)" stroke-width="1.5"></path><path d="M366.37 555.95L366.37 555.95" stroke="rgba(42, 5, 59, 1)" stroke-width="1.5"></path><path d="M366.37 555.95L361.82 648.94" stroke="rgba(42, 5, 59, 1)" stroke-width="1.5"></path><path d="M366.37 555.95L506.06 545.55" stroke="rgba(42, 5, 59, 1)" stroke-width="1.5"></path><path d="M361.82 648.94L361.82 648.94" stroke="rgba(42, 5, 59, 1)" stroke-width="1.5"></path><path d="M361.82 648.94L229.61 539.4" stroke="rgba(42, 5, 59, 1)" stroke-width="1.5"></path><path d="M361.82 648.94L537.61 659.58" stroke="rgba(42, 5, 59, 1)" stroke-width="1.5"></path><path d="M532.57 349.11L532.57 349.11" stroke="rgba(42, 5, 59, 1)" stroke-width="1.5"></path><path d="M532.57 349.11L645.03 360.5" stroke="rgba(42, 5, 59, 1)" stroke-width="1.5"></path><path d="M506.06 545.55L506.06 545.55" stroke="rgba(42, 5, 59, 1)" stroke-width="1.5"></path><path d="M506.06 545.55L537.61 659.58" stroke="rgba(42, 5, 59, 1)" stroke-width="1.5"></path><path d="M506.06 545.55L361.82 648.94" stroke="rgba(42, 5, 59, 1)" stroke-width="1.5"></path><path d="M506.06 545.55L658.44 655.4" stroke="rgba(42, 5, 59, 1)" stroke-width="1.5"></path><path d="M506.06 545.55L532.57 349.11" stroke="rgba(42, 5, 59, 1)" stroke-width="1.5"></path><path d="M537.61 659.58L537.61 659.58" stroke="rgba(42, 5, 59, 1)" stroke-width="1.5"></path><path d="M537.61 659.58L658.44 655.4" stroke="rgba(42, 5, 59, 1)" stroke-width="1.5"></path><path d="M645.03 360.5L645.03 360.5" stroke="rgba(42, 5, 59, 1)" stroke-width="1.5"></path><path d="M645.03 360.5L845.69 342.14" stroke="rgba(42, 5, 59, 1)" stroke-width="1.5"></path><path d="M645.03 360.5L810.5 242.05" stroke="rgba(42, 5, 59, 1)" stroke-width="1.5"></path><path d="M658.44 655.4L658.44 655.4" stroke="rgba(42, 5, 59, 1)" stroke-width="1.5"></path><path d="M658.44 655.4L848.54 646.73" stroke="rgba(42, 5, 59, 1)" stroke-width="1.5"></path><path d="M658.44 655.4L943.95 697.49" stroke="rgba(42, 5, 59, 1)" stroke-width="1.5"></path><path d="M658.44 655.4L645.03 360.5" stroke="rgba(42, 5, 59, 1)" stroke-width="1.5"></path><path d="M851.35 99.13L851.35 99.13" stroke="rgba(42, 5, 59, 1)" stroke-width="1.5"></path><path d="M851.35 99.13L810.5 242.05" stroke="rgba(42, 5, 59, 1)" stroke-width="1.5"></path><path d="M851.35 99.13L1003.41 252.29" stroke="rgba(42, 5, 59, 1)" stroke-width="1.5"></path><path d="M810.5 242.05L810.5 242.05" stroke="rgba(42, 5, 59, 1)" stroke-width="1.5"></path><path d="M810.5 242.05L845.69 342.14" stroke="rgba(42, 5, 59, 1)" stroke-width="1.5"></path><path d="M845.69 342.14L845.69 342.14" stroke="rgba(42, 5, 59, 1)" stroke-width="1.5"></path><path d="M845.69 342.14L964.76 407.84" stroke="rgba(42, 5, 59, 1)" stroke-width="1.5"></path><path d="M848.54 646.73L848.54 646.73" stroke="rgba(42, 5, 59, 1)" stroke-width="1.5"></path><path d="M848.54 646.73L943.95 697.49" stroke="rgba(42, 5, 59, 1)" stroke-width="1.5"></path><path d="M848.54 646.73L978.59 558.42" stroke="rgba(42, 5, 59, 1)" stroke-width="1.5"></path><path d="M848.54 646.73L964.76 407.84" stroke="rgba(42, 5, 59, 1)" stroke-width="1.5"></path><path d="M848.54 646.73L1094.1 497.67" stroke="rgba(42, 5, 59, 1)" stroke-width="1.5"></path><path d="M848.54 646.73L1149.39 681.88" stroke="rgba(42, 5, 59, 1)" stroke-width="1.5"></path><path d="M1011.18 -51.64L1011.18 -51.64" stroke="rgba(42, 5, 59, 1)" stroke-width="1.5"></path><path d="M1011.18 -51.64L1101.05 -91.35" stroke="rgba(42, 5, 59, 1)" stroke-width="1.5"></path><path d="M1011.18 -51.64L1097.82 75.23" stroke="rgba(42, 5, 59, 1)" stroke-width="1.5"></path><path d="M1011.18 -51.64L851.35 99.13" stroke="rgba(42, 5, 59, 1)" stroke-width="1.5"></path><path d="M1003.41 252.29L1003.41 252.29" stroke="rgba(42, 5, 59, 1)" stroke-width="1.5"></path><path d="M1003.41 252.29L1113.87 193.52" stroke="rgba(42, 5, 59, 1)" stroke-width="1.5"></path><path d="M1003.41 252.29L964.76 407.84" stroke="rgba(42, 5, 59, 1)" stroke-width="1.5"></path><path d="M964.76 407.84L964.76 407.84" stroke="rgba(42, 5, 59, 1)" stroke-width="1.5"></path><path d="M964.76 407.84L978.59 558.42" stroke="rgba(42, 5, 59, 1)" stroke-width="1.5"></path><path d="M964.76 407.84L1094.1 497.67" stroke="rgba(42, 5, 59, 1)" stroke-width="1.5"></path><path d="M964.76 407.84L1119.29 368.42" stroke="rgba(42, 5, 59, 1)" stroke-width="1.5"></path><path d="M978.59 558.42L978.59 558.42" stroke="rgba(42, 5, 59, 1)" stroke-width="1.5"></path><path d="M978.59 558.42L1094.1 497.67" stroke="rgba(42, 5, 59, 1)" stroke-width="1.5"></path><path d="M978.59 558.42L943.95 697.49" stroke="rgba(42, 5, 59, 1)" stroke-width="1.5"></path><path d="M943.95 697.49L943.95 697.49" stroke="rgba(42, 5, 59, 1)" stroke-width="1.5"></path><path d="M1101.05 -91.35L1101.05 -91.35" stroke="rgba(42, 5, 59, 1)" stroke-width="1.5"></path><path d="M1101.05 -91.35L1097.82 75.23" stroke="rgba(42, 5, 59, 1)" stroke-width="1.5"></path><path d="M1101.05 -91.35L1274.04 58.34" stroke="rgba(42, 5, 59, 1)" stroke-width="1.5"></path><path d="M1097.82 75.23L1097.82 75.23" stroke="rgba(42, 5, 59, 1)" stroke-width="1.5"></path><path d="M1097.82 75.23L1113.87 193.52" stroke="rgba(42, 5, 59, 1)" stroke-width="1.5"></path><path d="M1097.82 75.23L1274.04 58.34" stroke="rgba(42, 5, 59, 1)" stroke-width="1.5"></path><path d="M1113.87 193.52L1113.87 193.52" stroke="rgba(42, 5, 59, 1)" stroke-width="1.5"></path><path d="M1113.87 193.52L1264.86 244.03" stroke="rgba(42, 5, 59, 1)" stroke-width="1.5"></path><path d="M1119.29 368.42L1119.29 368.42" stroke="rgba(42, 5, 59, 1)" stroke-width="1.5"></path><path d="M1119.29 368.42L1245.26 356.51" stroke="rgba(42, 5, 59, 1)" stroke-width="1.5"></path><path d="M1119.29 368.42L1094.1 497.67" stroke="rgba(42, 5, 59, 1)" stroke-width="1.5"></path><path d="M1119.29 368.42L1003.41 252.29" stroke="rgba(42, 5, 59, 1)" stroke-width="1.5"></path><path d="M1119.29 368.42L1113.87 193.52" stroke="rgba(42, 5, 59, 1)" stroke-width="1.5"></path><path d="M1094.1 497.67L1094.1 497.67" stroke="rgba(42, 5, 59, 1)" stroke-width="1.5"></path><path d="M1094.1 497.67L1244.57 556.82" stroke="rgba(42, 5, 59, 1)" stroke-width="1.5"></path><path d="M1149.39 681.88L1149.39 681.88" stroke="rgba(42, 5, 59, 1)" stroke-width="1.5"></path><path d="M1149.39 681.88L1281.7 712.4" stroke="rgba(42, 5, 59, 1)" stroke-width="1.5"></path><path d="M1149.39 681.88L1244.57 556.82" stroke="rgba(42, 5, 59, 1)" stroke-width="1.5"></path><path d="M1274.04 58.34L1274.04 58.34" stroke="rgba(42, 5, 59, 1)" stroke-width="1.5"></path><path d="M1274.04 58.34L1458.16 39.74" stroke="rgba(42, 5, 59, 1)" stroke-width="1.5"></path><path d="M1274.04 58.34L1264.86 244.03" stroke="rgba(42, 5, 59, 1)" stroke-width="1.5"></path><path d="M1274.04 58.34L1427.11 -59.65" stroke="rgba(42, 5, 59, 1)" stroke-width="1.5"></path><path d="M1274.04 58.34L1113.87 193.52" stroke="rgba(42, 5, 59, 1)" stroke-width="1.5"></path><path d="M1264.86 244.03L1264.86 244.03" stroke="rgba(42, 5, 59, 1)" stroke-width="1.5"></path><path d="M1264.86 244.03L1245.26 356.51" stroke="rgba(42, 5, 59, 1)" stroke-width="1.5"></path><path d="M1264.86 244.03L1389.47 366.97" stroke="rgba(42, 5, 59, 1)" stroke-width="1.5"></path><path d="M1245.26 356.51L1245.26 356.51" stroke="rgba(42, 5, 59, 1)" stroke-width="1.5"></path><path d="M1245.26 356.51L1389.47 366.97" stroke="rgba(42, 5, 59, 1)" stroke-width="1.5"></path><path d="M1244.57 556.82L1244.57 556.82" stroke="rgba(42, 5, 59, 1)" stroke-width="1.5"></path><path d="M1244.57 556.82L1281.7 712.4" stroke="rgba(42, 5, 59, 1)" stroke-width="1.5"></path><path d="M1281.7 712.4L1281.7 712.4" stroke="rgba(42, 5, 59, 1)" stroke-width="1.5"></path><path d="M1281.7 712.4L1437.85 656.06" stroke="rgba(42, 5, 59, 1)" stroke-width="1.5"></path><path d="M1281.7 712.4L1406.85 522.52" stroke="rgba(42, 5, 59, 1)" stroke-width="1.5"></path><path d="M1281.7 712.4L1094.1 497.67" stroke="rgba(42, 5, 59, 1)" stroke-width="1.5"></path><path d="M1427.11 -59.65L1427.11 -59.65" stroke="rgba(42, 5, 59, 1)" stroke-width="1.5"></path><path d="M1427.11 -59.65L1458.16 39.74" stroke="rgba(42, 5, 59, 1)" stroke-width="1.5"></path><path d="M1427.11 -59.65L1575.03 -65.89" stroke="rgba(42, 5, 59, 1)" stroke-width="1.5"></path><path d="M1458.16 39.74L1458.16 39.74" stroke="rgba(42, 5, 59, 1)" stroke-width="1.5"></path><path d="M1458.16 39.74L1585.08 104.73" stroke="rgba(42, 5, 59, 1)" stroke-width="1.5"></path><path d="M1458.16 39.74L1575.03 -65.89" stroke="rgba(42, 5, 59, 1)" stroke-width="1.5"></path><path d="M1447.1 247.19L1447.1 247.19" stroke="rgba(42, 5, 59, 1)" stroke-width="1.5"></path><path d="M1447.1 247.19L1389.47 366.97" stroke="rgba(42, 5, 59, 1)" stroke-width="1.5"></path><path d="M1447.1 247.19L1576.99 205.46" stroke="rgba(42, 5, 59, 1)" stroke-width="1.5"></path><path d="M1447.1 247.19L1569.88 339.78" stroke="rgba(42, 5, 59, 1)" stroke-width="1.5"></path><path d="M1447.1 247.19L1264.86 244.03" stroke="rgba(42, 5, 59, 1)" stroke-width="1.5"></path><path d="M1447.1 247.19L1585.08 104.73" stroke="rgba(42, 5, 59, 1)" stroke-width="1.5"></path><path d="M1389.47 366.97L1389.47 366.97" stroke="rgba(42, 5, 59, 1)" stroke-width="1.5"></path><path d="M1389.47 366.97L1406.85 522.52" stroke="rgba(42, 5, 59, 1)" stroke-width="1.5"></path><path d="M1389.47 366.97L1569.88 339.78" stroke="rgba(42, 5, 59, 1)" stroke-width="1.5"></path><path d="M1389.47 366.97L1244.57 556.82" stroke="rgba(42, 5, 59, 1)" stroke-width="1.5"></path><path d="M1406.85 522.52L1406.85 522.52" stroke="rgba(42, 5, 59, 1)" stroke-width="1.5"></path><path d="M1406.85 522.52L1537.85 560.2" stroke="rgba(42, 5, 59, 1)" stroke-width="1.5"></path><path d="M1406.85 522.52L1437.85 656.06" stroke="rgba(42, 5, 59, 1)" stroke-width="1.5"></path><path d="M1437.85 656.06L1437.85 656.06" stroke="rgba(42, 5, 59, 1)" stroke-width="1.5"></path><path d="M1437.85 656.06L1565.57 661.34" stroke="rgba(42, 5, 59, 1)" stroke-width="1.5"></path><path d="M1575.03 -65.89L1575.03 -65.89" stroke="rgba(42, 5, 59, 1)" stroke-width="1.5"></path><path d="M1575.03 -65.89L1585.08 104.73" stroke="rgba(42, 5, 59, 1)" stroke-width="1.5"></path><path d="M1575.03 -65.89L1576.99 205.46" stroke="rgba(42, 5, 59, 1)" stroke-width="1.5"></path><path d="M1575.03 -65.89L1274.04 58.34" stroke="rgba(42, 5, 59, 1)" stroke-width="1.5"></path><path d="M1585.08 104.73L1585.08 104.73" stroke="rgba(42, 5, 59, 1)" stroke-width="1.5"></path><path d="M1585.08 104.73L1576.99 205.46" stroke="rgba(42, 5, 59, 1)" stroke-width="1.5"></path><path d="M1576.99 205.46L1576.99 205.46" stroke="rgba(42, 5, 59, 1)" stroke-width="1.5"></path><path d="M1576.99 205.46L1569.88 339.78" stroke="rgba(42, 5, 59, 1)" stroke-width="1.5"></path><path d="M1569.88 339.78L1569.88 339.78" stroke="rgba(42, 5, 59, 1)" stroke-width="1.5"></path><path d="M1569.88 339.78L1537.85 560.2" stroke="rgba(42, 5, 59, 1)" stroke-width="1.5"></path><path d="M1569.88 339.78L1585.08 104.73" stroke="rgba(42, 5, 59, 1)" stroke-width="1.5"></path><path d="M1537.85 560.2L1537.85 560.2" stroke="rgba(42, 5, 59, 1)" stroke-width="1.5"></path><path d="M1537.85 560.2L1565.57 661.34" stroke="rgba(42, 5, 59, 1)" stroke-width="1.5"></path><path d="M1537.85 560.2L1437.85 656.06" stroke="rgba(42, 5, 59, 1)" stroke-width="1.5"></path><path d="M1537.85 560.2L1389.47 366.97" stroke="rgba(42, 5, 59, 1)" stroke-width="1.5"></path><path d="M1537.85 560.2L1244.57 556.82" stroke="rgba(42, 5, 59, 1)" stroke-width="1.5"></path><path d="M1565.57 661.34L1565.57 661.34" stroke="rgba(42, 5, 59, 1)" stroke-width="1.5"></path><path d="M1565.57 661.34L1406.85 522.52" stroke="rgba(42, 5, 59, 1)" stroke-width="1.5"></path><circle r="5" cx="-96.34" cy="338.39" fill="rgba(42, 5, 59, 1)"></circle><circle r="5" cx="-100.82" cy="509.12" fill="rgba(42, 5, 59, 1)"></circle><circle r="5" cx="-64.26" cy="646.33" fill="rgba(42, 5, 59, 1)"></circle><circle r="5" cx="101.53" cy="344.57" fill="rgba(42, 5, 59, 1)"></circle><circle r="5" cx="101.96" cy="542.96" fill="rgba(42, 5, 59, 1)"></circle><circle r="5" cx="81.71" cy="704.32" fill="rgba(42, 5, 59, 1)"></circle><circle r="5" cx="226.26" cy="362.78" fill="rgba(42, 5, 59, 1)"></circle><circle r="5" cx="229.61" cy="539.4" fill="rgba(42, 5, 59, 1)"></circle><circle r="5" cx="237.56" cy="676.97" fill="rgba(42, 5, 59, 1)"></circle><circle r="5" cx="367.23" cy="388.65" fill="rgba(42, 5, 59, 1)"></circle><circle r="5" cx="366.37" cy="555.95" fill="rgba(42, 5, 59, 1)"></circle><circle r="5" cx="361.82" cy="648.94" fill="rgba(42, 5, 59, 1)"></circle><circle r="5" cx="532.57" cy="349.11" fill="rgba(42, 5, 59, 1)"></circle><circle r="5" cx="506.06" cy="545.55" fill="rgba(42, 5, 59, 1)"></circle><circle r="5" cx="537.61" cy="659.58" fill="rgba(42, 5, 59, 1)"></circle><circle r="5" cx="645.03" cy="360.5" fill="rgba(42, 5, 59, 1)"></circle><circle r="5" cx="658.44" cy="655.4" fill="rgba(42, 5, 59, 1)"></circle><circle r="5" cx="851.35" cy="99.13" fill="rgba(42, 5, 59, 1)"></circle><circle r="5" cx="810.5" cy="242.05" fill="rgba(42, 5, 59, 1)"></circle><circle r="5" cx="845.69" cy="342.14" fill="rgba(42, 5, 59, 1)"></circle><circle r="5" cx="848.54" cy="646.73" fill="rgba(42, 5, 59, 1)"></circle><circle r="5" cx="1011.18" cy="-51.64" fill="rgba(42, 5, 59, 1)"></circle><circle r="5" cx="1003.41" cy="252.29" fill="rgba(42, 5, 59, 1)"></circle><circle r="5" cx="964.76" cy="407.84" fill="rgba(42, 5, 59, 1)"></circle><circle r="5" cx="978.59" cy="558.42" fill="rgba(42, 5, 59, 1)"></circle><circle r="5" cx="943.95" cy="697.49" fill="rgba(42, 5, 59, 1)"></circle><circle r="5" cx="1101.05" cy="-91.35" fill="rgba(42, 5, 59, 1)"></circle><circle r="5" cx="1097.82" cy="75.23" fill="rgba(42, 5, 59, 1)"></circle><circle r="5" cx="1113.87" cy="193.52" fill="rgba(42, 5, 59, 1)"></circle><circle r="5" cx="1119.29" cy="368.42" fill="rgba(42, 5, 59, 1)"></circle><circle r="5" cx="1094.1" cy="497.67" fill="rgba(42, 5, 59, 1)"></circle><circle r="5" cx="1149.39" cy="681.88" fill="rgba(42, 5, 59, 1)"></circle><circle r="5" cx="1274.04" cy="58.34" fill="rgba(42, 5, 59, 1)"></circle><circle r="5" cx="1264.86" cy="244.03" fill="rgba(42, 5, 59, 1)"></circle><circle r="5" cx="1245.26" cy="356.51" fill="rgba(42, 5, 59, 1)"></circle><circle r="5" cx="1244.57" cy="556.82" fill="rgba(42, 5, 59, 1)"></circle><circle r="5" cx="1281.7" cy="712.4" fill="rgba(42, 5, 59, 1)"></circle><circle r="5" cx="1427.11" cy="-59.65" fill="rgba(42, 5, 59, 1)"></circle><circle r="5" cx="1458.16" cy="39.74" fill="rgba(42, 5, 59, 1)"></circle><circle r="5" cx="1447.1" cy="247.19" fill="rgba(42, 5, 59, 1)"></circle><circle r="5" cx="1389.47" cy="366.97" fill="rgba(42, 5, 59, 1)"></circle><circle r="5" cx="1406.85" cy="522.52" fill="rgba(42, 5, 59, 1)"></circle><circle r="5" cx="1437.85" cy="656.06" fill="rgba(42, 5, 59, 1)"></circle><circle r="5" cx="1575.03" cy="-65.89" fill="rgba(42, 5, 59, 1)"></circle><circle r="5" cx="1585.08" cy="104.73" fill="rgba(42, 5, 59, 1)"></circle><circle r="5" cx="1576.99" cy="205.46" fill="rgba(42, 5, 59, 1)"></circle><circle r="5" cx="1569.88" cy="339.78" fill="rgba(42, 5, 59, 1)"></circle><circle r="5" cx="1537.85" cy="560.2" fill="rgba(42, 5, 59, 1)"></circle><circle r="5" cx="1565.57" cy="661.34" fill="rgba(42, 5, 59, 1)"></circle><path d="M-56.1 537.79L-56.1 537.79" stroke="hsl(285.6, 100%, 65%)" stroke-width="1.5"></path><path d="M-56.1 537.79L-41.55 664.18" stroke="hsl(285.6, 100%, 65%)" stroke-width="1.5"></path><path d="M-56.1 537.79L111.13 543.51" stroke="hsl(285.6, 100%, 65%)" stroke-width="1.5"></path><path d="M-56.1 537.79L71.46 675.14" stroke="hsl(285.6, 100%, 65%)" stroke-width="1.5"></path><path d="M-56.1 537.79L226.1 523.68" stroke="hsl(285.6, 100%, 65%)" stroke-width="1.5"></path><path d="M-41.55 664.18L-41.55 664.18" stroke="hsl(285.6, 100%, 65%)" stroke-width="1.5"></path><path d="M-41.55 664.18L71.46 675.14" stroke="hsl(285.6, 100%, 65%)" stroke-width="1.5"></path><path d="M-41.55 664.18L111.13 543.51" stroke="hsl(285.6, 100%, 65%)" stroke-width="1.5"></path><path d="M-41.55 664.18L237.57 653.55" stroke="hsl(285.6, 100%, 65%)" stroke-width="1.5"></path><path d="M-41.55 664.18L226.1 523.68" stroke="hsl(285.6, 100%, 65%)" stroke-width="1.5"></path><path d="M111.13 543.51L111.13 543.51" stroke="hsl(285.6, 100%, 65%)" stroke-width="1.5"></path><path d="M111.13 543.51L226.1 523.68" stroke="hsl(285.6, 100%, 65%)" stroke-width="1.5"></path><path d="M111.13 543.51L71.46 675.14" stroke="hsl(285.6, 100%, 65%)" stroke-width="1.5"></path><path d="M111.13 543.51L237.57 653.55" stroke="hsl(285.6, 100%, 65%)" stroke-width="1.5"></path><path d="M71.46 675.14L71.46 675.14" stroke="hsl(285.6, 100%, 65%)" stroke-width="1.5"></path><path d="M71.46 675.14L237.57 653.55" stroke="hsl(285.6, 100%, 65%)" stroke-width="1.5"></path><path d="M237.57 653.55L237.57 653.55" stroke="hsl(285.6, 100%, 65%)" stroke-width="1.5"></path><path d="M237.57 653.55L226.1 523.68" stroke="hsl(285.6, 100%, 65%)" stroke-width="1.5"></path><path d="M237.57 653.55L401.81 650.16" stroke="hsl(285.6, 100%, 65%)" stroke-width="1.5"></path><path d="M237.57 653.55L400.94 562.23" stroke="hsl(285.6, 100%, 65%)" stroke-width="1.5"></path><path d="M400.94 562.23L400.94 562.23" stroke="hsl(285.6, 100%, 65%)" stroke-width="1.5"></path><path d="M400.94 562.23L401.81 650.16" stroke="hsl(285.6, 100%, 65%)" stroke-width="1.5"></path><path d="M400.94 562.23L544.41 562.07" stroke="hsl(285.6, 100%, 65%)" stroke-width="1.5"></path><path d="M400.94 562.23L507.11 678.66" stroke="hsl(285.6, 100%, 65%)" stroke-width="1.5"></path><path d="M400.94 562.23L226.1 523.68" stroke="hsl(285.6, 100%, 65%)" stroke-width="1.5"></path><path d="M644.66 687.18L644.66 687.18" stroke="hsl(285.6, 100%, 65%)" stroke-width="1.5"></path><path d="M644.66 687.18L507.11 678.66" stroke="hsl(285.6, 100%, 65%)" stroke-width="1.5"></path><path d="M644.66 687.18L679.47 546.03" stroke="hsl(285.6, 100%, 65%)" stroke-width="1.5"></path><path d="M644.66 687.18L544.41 562.07" stroke="hsl(285.6, 100%, 65%)" stroke-width="1.5"></path><path d="M644.66 687.18L839.16 696.11" stroke="hsl(285.6, 100%, 65%)" stroke-width="1.5"></path><path d="M644.66 687.18L800.73 538.47" stroke="hsl(285.6, 100%, 65%)" stroke-width="1.5"></path><path d="M644.66 687.18L401.81 650.16" stroke="hsl(285.6, 100%, 65%)" stroke-width="1.5"></path><path d="M959.18 708.76L959.18 708.76" stroke="hsl(285.6, 100%, 65%)" stroke-width="1.5"></path><path d="M959.18 708.76L839.16 696.11" stroke="hsl(285.6, 100%, 65%)" stroke-width="1.5"></path><path d="M959.18 708.76L1106.2 703.65" stroke="hsl(285.6, 100%, 65%)" stroke-width="1.5"></path><path d="M959.18 708.76L972.68 510.66" stroke="hsl(285.6, 100%, 65%)" stroke-width="1.5"></path><path d="M959.18 708.76L1125.67 551.74" stroke="hsl(285.6, 100%, 65%)" stroke-width="1.5"></path><path d="M959.18 708.76L800.73 538.47" stroke="hsl(285.6, 100%, 65%)" stroke-width="1.5"></path><path d="M1139.93 410.57L1139.93 410.57" stroke="hsl(285.6, 100%, 65%)" stroke-width="1.5"></path><path d="M1139.93 410.57L1247.28 378.85" stroke="hsl(285.6, 100%, 65%)" stroke-width="1.5"></path><path d="M1139.93 410.57L1240.12 502.68" stroke="hsl(285.6, 100%, 65%)" stroke-width="1.5"></path><path d="M1139.93 410.57L1125.67 551.74" stroke="hsl(285.6, 100%, 65%)" stroke-width="1.5"></path><path d="M1139.93 410.57L981.45 377.29" stroke="hsl(285.6, 100%, 65%)" stroke-width="1.5"></path><path d="M1139.93 410.57L1100.43 230.83" stroke="hsl(285.6, 100%, 65%)" stroke-width="1.5"></path><path d="M1303.65 -100.65L1303.65 -100.65" stroke="hsl(285.6, 100%, 65%)" stroke-width="1.5"></path><path d="M1303.65 -100.65L1454.36 -104.09" stroke="hsl(285.6, 100%, 65%)" stroke-width="1.5"></path><path d="M1303.65 -100.65L1251.84 41.96" stroke="hsl(285.6, 100%, 65%)" stroke-width="1.5"></path><path d="M1303.65 -100.65L1150.25 112.11" stroke="hsl(285.6, 100%, 65%)" stroke-width="1.5"></path><path d="M1251.84 41.96L1251.84 41.96" stroke="hsl(285.6, 100%, 65%)" stroke-width="1.5"></path><path d="M1251.84 41.96L1150.25 112.11" stroke="hsl(285.6, 100%, 65%)" stroke-width="1.5"></path><path d="M1251.84 41.96L1265.94 218.06" stroke="hsl(285.6, 100%, 65%)" stroke-width="1.5"></path><path d="M1455.49 525.81L1455.49 525.81" stroke="hsl(285.6, 100%, 65%)" stroke-width="1.5"></path><path d="M1455.49 525.81L1402.66 662.31" stroke="hsl(285.6, 100%, 65%)" stroke-width="1.5"></path><path d="M1455.49 525.81L1605.66 534.69" stroke="hsl(285.6, 100%, 65%)" stroke-width="1.5"></path><path d="M1568.26 684.87L1568.26 684.87" stroke="hsl(285.6, 100%, 65%)" stroke-width="1.5"></path><path d="M1568.26 684.87L1605.66 534.69" stroke="hsl(285.6, 100%, 65%)" stroke-width="1.5"></path><path d="M226.1 523.68L226.1 523.68" stroke="hsl(285.6, 100%, 65%)" stroke-width="1.5"></path><path d="M401.81 650.16L401.81 650.16" stroke="hsl(285.6, 100%, 65%)" stroke-width="1.5"></path><path d="M401.81 650.16L507.11 678.66" stroke="hsl(285.6, 100%, 65%)" stroke-width="1.5"></path><path d="M401.81 650.16L544.41 562.07" stroke="hsl(285.6, 100%, 65%)" stroke-width="1.5"></path><path d="M544.41 562.07L544.41 562.07" stroke="hsl(285.6, 100%, 65%)" stroke-width="1.5"></path><path d="M544.41 562.07L507.11 678.66" stroke="hsl(285.6, 100%, 65%)" stroke-width="1.5"></path><path d="M544.41 562.07L679.47 546.03" stroke="hsl(285.6, 100%, 65%)" stroke-width="1.5"></path><path d="M544.41 562.07L691.09 384.27" stroke="hsl(285.6, 100%, 65%)" stroke-width="1.5"></path><path d="M507.11 678.66L507.11 678.66" stroke="hsl(285.6, 100%, 65%)" stroke-width="1.5"></path><path d="M507.11 678.66L679.47 546.03" stroke="hsl(285.6, 100%, 65%)" stroke-width="1.5"></path><path d="M507.11 678.66L237.57 653.55" stroke="hsl(285.6, 100%, 65%)" stroke-width="1.5"></path><path d="M691.09 384.27L691.09 384.27" stroke="hsl(285.6, 100%, 65%)" stroke-width="1.5"></path><path d="M691.09 384.27L843.18 409.7" stroke="hsl(285.6, 100%, 65%)" stroke-width="1.5"></path><path d="M691.09 384.27L679.47 546.03" stroke="hsl(285.6, 100%, 65%)" stroke-width="1.5"></path><path d="M691.09 384.27L800.73 538.47" stroke="hsl(285.6, 100%, 65%)" stroke-width="1.5"></path><path d="M679.47 546.03L679.47 546.03" stroke="hsl(285.6, 100%, 65%)" stroke-width="1.5"></path><path d="M679.47 546.03L800.73 538.47" stroke="hsl(285.6, 100%, 65%)" stroke-width="1.5"></path><path d="M843.18 409.7L843.18 409.7" stroke="hsl(285.6, 100%, 65%)" stroke-width="1.5"></path><path d="M843.18 409.7L800.73 538.47" stroke="hsl(285.6, 100%, 65%)" stroke-width="1.5"></path><path d="M843.18 409.7L981.45 377.29" stroke="hsl(285.6, 100%, 65%)" stroke-width="1.5"></path><path d="M843.18 409.7L972.68 510.66" stroke="hsl(285.6, 100%, 65%)" stroke-width="1.5"></path><path d="M843.18 409.7L679.47 546.03" stroke="hsl(285.6, 100%, 65%)" stroke-width="1.5"></path><path d="M800.73 538.47L800.73 538.47" stroke="hsl(285.6, 100%, 65%)" stroke-width="1.5"></path><path d="M800.73 538.47L839.16 696.11" stroke="hsl(285.6, 100%, 65%)" stroke-width="1.5"></path><path d="M800.73 538.47L972.68 510.66" stroke="hsl(285.6, 100%, 65%)" stroke-width="1.5"></path><path d="M839.16 696.11L839.16 696.11" stroke="hsl(285.6, 100%, 65%)" stroke-width="1.5"></path><path d="M981.45 377.29L981.45 377.29" stroke="hsl(285.6, 100%, 65%)" stroke-width="1.5"></path><path d="M981.45 377.29L972.68 510.66" stroke="hsl(285.6, 100%, 65%)" stroke-width="1.5"></path><path d="M972.68 510.66L972.68 510.66" stroke="hsl(285.6, 100%, 65%)" stroke-width="1.5"></path><path d="M972.68 510.66L1125.67 551.74" stroke="hsl(285.6, 100%, 65%)" stroke-width="1.5"></path><path d="M1150.25 112.11L1150.25 112.11" stroke="hsl(285.6, 100%, 65%)" stroke-width="1.5"></path><path d="M1150.25 112.11L1100.43 230.83" stroke="hsl(285.6, 100%, 65%)" stroke-width="1.5"></path><path d="M1100.43 230.83L1100.43 230.83" stroke="hsl(285.6, 100%, 65%)" stroke-width="1.5"></path><path d="M1100.43 230.83L1265.94 218.06" stroke="hsl(285.6, 100%, 65%)" stroke-width="1.5"></path><path d="M1100.43 230.83L981.45 377.29" stroke="hsl(285.6, 100%, 65%)" stroke-width="1.5"></path><path d="M1100.43 230.83L1247.28 378.85" stroke="hsl(285.6, 100%, 65%)" stroke-width="1.5"></path><path d="M1125.67 551.74L1125.67 551.74" stroke="hsl(285.6, 100%, 65%)" stroke-width="1.5"></path><path d="M1125.67 551.74L1240.12 502.68" stroke="hsl(285.6, 100%, 65%)" stroke-width="1.5"></path><path d="M1125.67 551.74L1106.2 703.65" stroke="hsl(285.6, 100%, 65%)" stroke-width="1.5"></path><path d="M1125.67 551.74L1247.28 378.85" stroke="hsl(285.6, 100%, 65%)" stroke-width="1.5"></path><path d="M1125.67 551.74L981.45 377.29" stroke="hsl(285.6, 100%, 65%)" stroke-width="1.5"></path><path d="M1106.2 703.65L1106.2 703.65" stroke="hsl(285.6, 100%, 65%)" stroke-width="1.5"></path><path d="M1106.2 703.65L972.68 510.66" stroke="hsl(285.6, 100%, 65%)" stroke-width="1.5"></path><path d="M1265.94 218.06L1265.94 218.06" stroke="hsl(285.6, 100%, 65%)" stroke-width="1.5"></path><path d="M1265.94 218.06L1150.25 112.11" stroke="hsl(285.6, 100%, 65%)" stroke-width="1.5"></path><path d="M1265.94 218.06L1421.4 239.2" stroke="hsl(285.6, 100%, 65%)" stroke-width="1.5"></path><path d="M1247.28 378.85L1247.28 378.85" stroke="hsl(285.6, 100%, 65%)" stroke-width="1.5"></path><path d="M1247.28 378.85L1240.12 502.68" stroke="hsl(285.6, 100%, 65%)" stroke-width="1.5"></path><path d="M1247.28 378.85L1265.94 218.06" stroke="hsl(285.6, 100%, 65%)" stroke-width="1.5"></path><path d="M1240.12 502.68L1240.12 502.68" stroke="hsl(285.6, 100%, 65%)" stroke-width="1.5"></path><path d="M1240.12 502.68L1455.49 525.81" stroke="hsl(285.6, 100%, 65%)" stroke-width="1.5"></path><path d="M1240.12 502.68L1402.66 662.31" stroke="hsl(285.6, 100%, 65%)" stroke-width="1.5"></path><path d="M1240.12 502.68L1106.2 703.65" stroke="hsl(285.6, 100%, 65%)" stroke-width="1.5"></path><path d="M1454.36 -104.09L1454.36 -104.09" stroke="hsl(285.6, 100%, 65%)" stroke-width="1.5"></path><path d="M1454.36 -104.09L1545.31 65.59" stroke="hsl(285.6, 100%, 65%)" stroke-width="1.5"></path><path d="M1454.36 -104.09L1251.84 41.96" stroke="hsl(285.6, 100%, 65%)" stroke-width="1.5"></path><path d="M1454.36 -104.09L1421.4 239.2" stroke="hsl(285.6, 100%, 65%)" stroke-width="1.5"></path><path d="M1454.36 -104.09L1546.32 238.67" stroke="hsl(285.6, 100%, 65%)" stroke-width="1.5"></path><path d="M1421.4 239.2L1421.4 239.2" stroke="hsl(285.6, 100%, 65%)" stroke-width="1.5"></path><path d="M1421.4 239.2L1452.91 347.41" stroke="hsl(285.6, 100%, 65%)" stroke-width="1.5"></path><path d="M1421.4 239.2L1546.32 238.67" stroke="hsl(285.6, 100%, 65%)" stroke-width="1.5"></path><path d="M1452.91 347.41L1452.91 347.41" stroke="hsl(285.6, 100%, 65%)" stroke-width="1.5"></path><path d="M1452.91 347.41L1546.32 238.67" stroke="hsl(285.6, 100%, 65%)" stroke-width="1.5"></path><path d="M1452.91 347.41L1601.25 350.61" stroke="hsl(285.6, 100%, 65%)" stroke-width="1.5"></path><path d="M1402.66 662.31L1402.66 662.31" stroke="hsl(285.6, 100%, 65%)" stroke-width="1.5"></path><path d="M1402.66 662.31L1568.26 684.87" stroke="hsl(285.6, 100%, 65%)" stroke-width="1.5"></path><path d="M1402.66 662.31L1605.66 534.69" stroke="hsl(285.6, 100%, 65%)" stroke-width="1.5"></path><path d="M1402.66 662.31L1125.67 551.74" stroke="hsl(285.6, 100%, 65%)" stroke-width="1.5"></path><path d="M1402.66 662.31L1106.2 703.65" stroke="hsl(285.6, 100%, 65%)" stroke-width="1.5"></path><path d="M1545.31 65.59L1545.31 65.59" stroke="hsl(285.6, 100%, 65%)" stroke-width="1.5"></path><path d="M1545.31 65.59L1546.32 238.67" stroke="hsl(285.6, 100%, 65%)" stroke-width="1.5"></path><path d="M1545.31 65.59L1421.4 239.2" stroke="hsl(285.6, 100%, 65%)" stroke-width="1.5"></path><path d="M1545.31 65.59L1601.25 350.61" stroke="hsl(285.6, 100%, 65%)" stroke-width="1.5"></path><path d="M1545.31 65.59L1303.65 -100.65" stroke="hsl(285.6, 100%, 65%)" stroke-width="1.5"></path><path d="M1545.31 65.59L1251.84 41.96" stroke="hsl(285.6, 100%, 65%)" stroke-width="1.5"></path><path d="M1546.32 238.67L1546.32 238.67" stroke="hsl(285.6, 100%, 65%)" stroke-width="1.5"></path><path d="M1546.32 238.67L1601.25 350.61" stroke="hsl(285.6, 100%, 65%)" stroke-width="1.5"></path><path d="M1546.32 238.67L1265.94 218.06" stroke="hsl(285.6, 100%, 65%)" stroke-width="1.5"></path><path d="M1601.25 350.61L1601.25 350.61" stroke="hsl(285.6, 100%, 65%)" stroke-width="1.5"></path><path d="M1601.25 350.61L1605.66 534.69" stroke="hsl(285.6, 100%, 65%)" stroke-width="1.5"></path><path d="M1605.66 534.69L1605.66 534.69" stroke="hsl(285.6, 100%, 65%)" stroke-width="1.5"></path><circle r="25" cx="-56.1" cy="537.79" fill="url(#SvgjsRadialGradient1056)"></circle><circle r="25" cx="-41.55" cy="664.18" fill="url(#SvgjsRadialGradient1056)"></circle><circle r="25" cx="111.13" cy="543.51" fill="url(#SvgjsRadialGradient1056)"></circle><circle r="25" cx="71.46" cy="675.14" fill="url(#SvgjsRadialGradient1056)"></circle><circle r="25" cx="237.57" cy="653.55" fill="url(#SvgjsRadialGradient1056)"></circle><circle r="25" cx="400.94" cy="562.23" fill="url(#SvgjsRadialGradient1056)"></circle><circle r="25" cx="644.66" cy="687.18" fill="url(#SvgjsRadialGradient1056)"></circle><circle r="25" cx="959.18" cy="708.76" fill="url(#SvgjsRadialGradient1056)"></circle><circle r="25" cx="1139.93" cy="410.57" fill="url(#SvgjsRadialGradient1056)"></circle><circle r="25" cx="1303.65" cy="-100.65" fill="url(#SvgjsRadialGradient1056)"></circle><circle r="25" cx="1251.84" cy="41.96" fill="url(#SvgjsRadialGradient1056)"></circle><circle r="25" cx="1455.49" cy="525.81" fill="url(#SvgjsRadialGradient1056)"></circle><circle r="25" cx="1568.26" cy="684.87" fill="url(#SvgjsRadialGradient1056)"></circle><circle r="5" cx="226.1" cy="523.68" fill="#e180ff"></circle><circle r="5" cx="401.81" cy="650.16" fill="#e180ff"></circle><circle r="5" cx="544.41" cy="562.07" fill="#e180ff"></circle><circle r="5" cx="507.11" cy="678.66" fill="#e180ff"></circle><circle r="5" cx="691.09" cy="384.27" fill="#e180ff"></circle><circle r="5" cx="679.47" cy="546.03" fill="#e180ff"></circle><circle r="5" cx="843.18" cy="409.7" fill="#e180ff"></circle><circle r="5" cx="800.73" cy="538.47" fill="#e180ff"></circle><circle r="5" cx="839.16" cy="696.11" fill="#e180ff"></circle><circle r="5" cx="981.45" cy="377.29" fill="#e180ff"></circle><circle r="5" cx="972.68" cy="510.66" fill="#e180ff"></circle><circle r="5" cx="1150.25" cy="112.11" fill="#e180ff"></circle><circle r="5" cx="1100.43" cy="230.83" fill="#e180ff"></circle><circle r="5" cx="1125.67" cy="551.74" fill="#e180ff"></circle><circle r="5" cx="1106.2" cy="703.65" fill="#e180ff"></circle><circle r="5" cx="1265.94" cy="218.06" fill="#e180ff"></circle><circle r="5" cx="1247.28" cy="378.85" fill="#e180ff"></circle><circle r="5" cx="1240.12" cy="502.68" fill="#e180ff"></circle><circle r="5" cx="1454.36" cy="-104.09" fill="#e180ff"></circle><circle r="5" cx="1421.4" cy="239.2" fill="#e180ff"></circle><circle r="5" cx="1452.91" cy="347.41" fill="#e180ff"></circle><circle r="5" cx="1402.66" cy="662.31" fill="#e180ff"></circle><circle r="5" cx="1545.31" cy="65.59" fill="#e180ff"></circle><circle r="5" cx="1546.32" cy="238.67" fill="#e180ff"></circle><circle r="5" cx="1601.25" cy="350.61" fill="#e180ff"></circle><circle r="5" cx="1605.66" cy="534.69" fill="#e180ff"></circle></g><defs><mask id="SvgjsMask1054"><rect width="1440" height="560" fill="#ffffff"></rect></mask><linearGradient x1="0%" y1="50%" x2="100%" y2="50%" gradientUnits="userSpaceOnUse" id="SvgjsLinearGradient1055"><stop stop-color="rgba(57, 0, 143, 1)" offset="0"></stop><stop stop-color="rgba(180, 85, 219, 1)" offset="1"></stop></linearGradient><radialGradient id="SvgjsRadialGradient1056"><stop stop-color="#ffffff" offset="0.1"></stop><stop stop-color="rgba(194, 0, 255, 1)" offset="0.2"></stop><stop stop-color="rgba(194, 0, 255, 0)" offset="1"></stop></radialGradient></defs></svg>