<svg xmlns="http://www.w3.org/2000/svg" version="1.1" xmlns:xlink="http://www.w3.org/1999/xlink" xmlns:svgjs="http://svgjs.com/svgjs" width="1440" height="560" preserveAspectRatio="none" viewBox="0 0 1440 560"><g mask="url(&quot;#SvgjsMask1259&quot;)" fill="none"><rect width="1440" height="560" x="0" y="0" fill="url(#SvgjsLinearGradient1260)"></rect><path d="M-85.08 355.51L-85.08 355.51" stroke="rgba(50, 20, 112, 1)" stroke-width="1.5"></path><path d="M-85.08 355.51L-56.68 499.27" stroke="rgba(50, 20, 112, 1)" stroke-width="1.5"></path><path d="M-85.08 355.51L70.39 357.92" stroke="rgba(50, 20, 112, 1)" stroke-width="1.5"></path><path d="M-85.08 355.51L111.02 505" stroke="rgba(50, 20, 112, 1)" stroke-width="1.5"></path><path d="M-85.08 355.51L241.41 357.86" stroke="rgba(50, 20, 112, 1)" stroke-width="1.5"></path><path d="M-85.08 355.51L-64.87 692.87" stroke="rgba(50, 20, 112, 1)" stroke-width="1.5"></path><path d="M-56.68 499.27L-56.68 499.27" stroke="rgba(50, 20, 112, 1)" stroke-width="1.5"></path><path d="M-56.68 499.27L111.02 505" stroke="rgba(50, 20, 112, 1)" stroke-width="1.5"></path><path d="M-56.68 499.27L70.39 357.92" stroke="rgba(50, 20, 112, 1)" stroke-width="1.5"></path><path d="M-56.68 499.27L-64.87 692.87" stroke="rgba(50, 20, 112, 1)" stroke-width="1.5"></path><path d="M-64.87 692.87L-64.87 692.87" stroke="rgba(50, 20, 112, 1)" stroke-width="1.5"></path><path d="M-64.87 692.87L111.02 505" stroke="rgba(50, 20, 112, 1)" stroke-width="1.5"></path><path d="M70.39 357.92L70.39 357.92" stroke="rgba(50, 20, 112, 1)" stroke-width="1.5"></path><path d="M70.39 357.92L111.02 505" stroke="rgba(50, 20, 112, 1)" stroke-width="1.5"></path><path d="M111.02 505L111.02 505" stroke="rgba(50, 20, 112, 1)" stroke-width="1.5"></path><path d="M111.02 505L231.27 536.61" stroke="rgba(50, 20, 112, 1)" stroke-width="1.5"></path><path d="M111.02 505L241.41 357.86" stroke="rgba(50, 20, 112, 1)" stroke-width="1.5"></path><path d="M241.41 357.86L241.41 357.86" stroke="rgba(50, 20, 112, 1)" stroke-width="1.5"></path><path d="M241.41 357.86L340.57 350.03" stroke="rgba(50, 20, 112, 1)" stroke-width="1.5"></path><path d="M241.41 357.86L70.39 357.92" stroke="rgba(50, 20, 112, 1)" stroke-width="1.5"></path><path d="M241.41 357.86L231.27 536.61" stroke="rgba(50, 20, 112, 1)" stroke-width="1.5"></path><path d="M241.41 357.86L354.39 497.84" stroke="rgba(50, 20, 112, 1)" stroke-width="1.5"></path><path d="M231.27 536.61L231.27 536.61" stroke="rgba(50, 20, 112, 1)" stroke-width="1.5"></path><path d="M231.27 536.61L354.39 497.84" stroke="rgba(50, 20, 112, 1)" stroke-width="1.5"></path><path d="M340.57 350.03L340.57 350.03" stroke="rgba(50, 20, 112, 1)" stroke-width="1.5"></path><path d="M340.57 350.03L354.39 497.84" stroke="rgba(50, 20, 112, 1)" stroke-width="1.5"></path><path d="M340.57 350.03L527.98 395.09" stroke="rgba(50, 20, 112, 1)" stroke-width="1.5"></path><path d="M354.39 497.84L354.39 497.84" stroke="rgba(50, 20, 112, 1)" stroke-width="1.5"></path><path d="M354.39 497.84L510.56 539.7" stroke="rgba(50, 20, 112, 1)" stroke-width="1.5"></path><path d="M354.39 497.84L527.98 395.09" stroke="rgba(50, 20, 112, 1)" stroke-width="1.5"></path><path d="M354.39 497.84L364.86 711.32" stroke="rgba(50, 20, 112, 1)" stroke-width="1.5"></path><path d="M364.86 711.32L364.86 711.32" stroke="rgba(50, 20, 112, 1)" stroke-width="1.5"></path><path d="M364.86 711.32L497.22 702.13" stroke="rgba(50, 20, 112, 1)" stroke-width="1.5"></path><path d="M364.86 711.32L231.27 536.61" stroke="rgba(50, 20, 112, 1)" stroke-width="1.5"></path><path d="M364.86 711.32L510.56 539.7" stroke="rgba(50, 20, 112, 1)" stroke-width="1.5"></path><path d="M364.86 711.32L667.26 705.68" stroke="rgba(50, 20, 112, 1)" stroke-width="1.5"></path><path d="M527.98 395.09L527.98 395.09" stroke="rgba(50, 20, 112, 1)" stroke-width="1.5"></path><path d="M527.98 395.09L510.56 539.7" stroke="rgba(50, 20, 112, 1)" stroke-width="1.5"></path><path d="M527.98 395.09L691.94 369.42" stroke="rgba(50, 20, 112, 1)" stroke-width="1.5"></path><path d="M527.98 395.09L694.46 533.51" stroke="rgba(50, 20, 112, 1)" stroke-width="1.5"></path><path d="M527.98 395.09L813.77 357.65" stroke="rgba(50, 20, 112, 1)" stroke-width="1.5"></path><path d="M510.56 539.7L510.56 539.7" stroke="rgba(50, 20, 112, 1)" stroke-width="1.5"></path><path d="M510.56 539.7L497.22 702.13" stroke="rgba(50, 20, 112, 1)" stroke-width="1.5"></path><path d="M510.56 539.7L694.46 533.51" stroke="rgba(50, 20, 112, 1)" stroke-width="1.5"></path><path d="M497.22 702.13L497.22 702.13" stroke="rgba(50, 20, 112, 1)" stroke-width="1.5"></path><path d="M691.94 369.42L691.94 369.42" stroke="rgba(50, 20, 112, 1)" stroke-width="1.5"></path><path d="M691.94 369.42L813.77 357.65" stroke="rgba(50, 20, 112, 1)" stroke-width="1.5"></path><path d="M691.94 369.42L694.46 533.51" stroke="rgba(50, 20, 112, 1)" stroke-width="1.5"></path><path d="M691.94 369.42L829.96 237.12" stroke="rgba(50, 20, 112, 1)" stroke-width="1.5"></path><path d="M691.94 369.42L829.87 544.08" stroke="rgba(50, 20, 112, 1)" stroke-width="1.5"></path><path d="M691.94 369.42L510.56 539.7" stroke="rgba(50, 20, 112, 1)" stroke-width="1.5"></path><path d="M694.46 533.51L694.46 533.51" stroke="rgba(50, 20, 112, 1)" stroke-width="1.5"></path><path d="M694.46 533.51L829.87 544.08" stroke="rgba(50, 20, 112, 1)" stroke-width="1.5"></path><path d="M694.46 533.51L667.26 705.68" stroke="rgba(50, 20, 112, 1)" stroke-width="1.5"></path><path d="M694.46 533.51L800.77 692.63" stroke="rgba(50, 20, 112, 1)" stroke-width="1.5"></path><path d="M667.26 705.68L667.26 705.68" stroke="rgba(50, 20, 112, 1)" stroke-width="1.5"></path><path d="M667.26 705.68L800.77 692.63" stroke="rgba(50, 20, 112, 1)" stroke-width="1.5"></path><path d="M667.26 705.68L497.22 702.13" stroke="rgba(50, 20, 112, 1)" stroke-width="1.5"></path><path d="M667.26 705.68L510.56 539.7" stroke="rgba(50, 20, 112, 1)" stroke-width="1.5"></path><path d="M667.26 705.68L829.87 544.08" stroke="rgba(50, 20, 112, 1)" stroke-width="1.5"></path><path d="M829.96 237.12L829.96 237.12" stroke="rgba(50, 20, 112, 1)" stroke-width="1.5"></path><path d="M829.96 237.12L813.77 357.65" stroke="rgba(50, 20, 112, 1)" stroke-width="1.5"></path><path d="M829.96 237.12L961.31 211.02" stroke="rgba(50, 20, 112, 1)" stroke-width="1.5"></path><path d="M829.96 237.12L963.56 362.82" stroke="rgba(50, 20, 112, 1)" stroke-width="1.5"></path><path d="M813.77 357.65L813.77 357.65" stroke="rgba(50, 20, 112, 1)" stroke-width="1.5"></path><path d="M813.77 357.65L963.56 362.82" stroke="rgba(50, 20, 112, 1)" stroke-width="1.5"></path><path d="M813.77 357.65L829.87 544.08" stroke="rgba(50, 20, 112, 1)" stroke-width="1.5"></path><path d="M829.87 544.08L829.87 544.08" stroke="rgba(50, 20, 112, 1)" stroke-width="1.5"></path><path d="M829.87 544.08L800.77 692.63" stroke="rgba(50, 20, 112, 1)" stroke-width="1.5"></path><path d="M800.77 692.63L800.77 692.63" stroke="rgba(50, 20, 112, 1)" stroke-width="1.5"></path><path d="M946.61 -50.82L946.61 -50.82" stroke="rgba(50, 20, 112, 1)" stroke-width="1.5"></path><path d="M946.61 -50.82L939.96 44.53" stroke="rgba(50, 20, 112, 1)" stroke-width="1.5"></path><path d="M946.61 -50.82L1150.57 52.63" stroke="rgba(50, 20, 112, 1)" stroke-width="1.5"></path><path d="M939.96 44.53L939.96 44.53" stroke="rgba(50, 20, 112, 1)" stroke-width="1.5"></path><path d="M939.96 44.53L961.31 211.02" stroke="rgba(50, 20, 112, 1)" stroke-width="1.5"></path><path d="M939.96 44.53L1150.57 52.63" stroke="rgba(50, 20, 112, 1)" stroke-width="1.5"></path><path d="M939.96 44.53L829.96 237.12" stroke="rgba(50, 20, 112, 1)" stroke-width="1.5"></path><path d="M939.96 44.53L1089.93 223.48" stroke="rgba(50, 20, 112, 1)" stroke-width="1.5"></path><path d="M961.31 211.02L961.31 211.02" stroke="rgba(50, 20, 112, 1)" stroke-width="1.5"></path><path d="M961.31 211.02L1089.93 223.48" stroke="rgba(50, 20, 112, 1)" stroke-width="1.5"></path><path d="M961.31 211.02L963.56 362.82" stroke="rgba(50, 20, 112, 1)" stroke-width="1.5"></path><path d="M961.31 211.02L813.77 357.65" stroke="rgba(50, 20, 112, 1)" stroke-width="1.5"></path><path d="M961.31 211.02L1122.5 381.24" stroke="rgba(50, 20, 112, 1)" stroke-width="1.5"></path><path d="M963.56 362.82L963.56 362.82" stroke="rgba(50, 20, 112, 1)" stroke-width="1.5"></path><path d="M963.56 362.82L984.88 496.23" stroke="rgba(50, 20, 112, 1)" stroke-width="1.5"></path><path d="M963.56 362.82L1122.5 381.24" stroke="rgba(50, 20, 112, 1)" stroke-width="1.5"></path><path d="M984.88 496.23L984.88 496.23" stroke="rgba(50, 20, 112, 1)" stroke-width="1.5"></path><path d="M984.88 496.23L1137.51 495.87" stroke="rgba(50, 20, 112, 1)" stroke-width="1.5"></path><path d="M1002.64 712.5L1002.64 712.5" stroke="rgba(50, 20, 112, 1)" stroke-width="1.5"></path><path d="M1002.64 712.5L1103.98 696.84" stroke="rgba(50, 20, 112, 1)" stroke-width="1.5"></path><path d="M1002.64 712.5L800.77 692.63" stroke="rgba(50, 20, 112, 1)" stroke-width="1.5"></path><path d="M1002.64 712.5L984.88 496.23" stroke="rgba(50, 20, 112, 1)" stroke-width="1.5"></path><path d="M1150.57 52.63L1150.57 52.63" stroke="rgba(50, 20, 112, 1)" stroke-width="1.5"></path><path d="M1150.57 52.63L1278.53 -62.51" stroke="rgba(50, 20, 112, 1)" stroke-width="1.5"></path><path d="M1150.57 52.63L1089.93 223.48" stroke="rgba(50, 20, 112, 1)" stroke-width="1.5"></path><path d="M1089.93 223.48L1089.93 223.48" stroke="rgba(50, 20, 112, 1)" stroke-width="1.5"></path><path d="M1089.93 223.48L1122.5 381.24" stroke="rgba(50, 20, 112, 1)" stroke-width="1.5"></path><path d="M1089.93 223.48L1260.18 261.63" stroke="rgba(50, 20, 112, 1)" stroke-width="1.5"></path><path d="M1122.5 381.24L1122.5 381.24" stroke="rgba(50, 20, 112, 1)" stroke-width="1.5"></path><path d="M1122.5 381.24L1137.51 495.87" stroke="rgba(50, 20, 112, 1)" stroke-width="1.5"></path><path d="M1122.5 381.24L1279.17 381.88" stroke="rgba(50, 20, 112, 1)" stroke-width="1.5"></path><path d="M1122.5 381.24L984.88 496.23" stroke="rgba(50, 20, 112, 1)" stroke-width="1.5"></path><path d="M1122.5 381.24L1260.18 261.63" stroke="rgba(50, 20, 112, 1)" stroke-width="1.5"></path><path d="M1137.51 495.87L1137.51 495.87" stroke="rgba(50, 20, 112, 1)" stroke-width="1.5"></path><path d="M1137.51 495.87L1302.65 491.17" stroke="rgba(50, 20, 112, 1)" stroke-width="1.5"></path><path d="M1137.51 495.87L1279.17 381.88" stroke="rgba(50, 20, 112, 1)" stroke-width="1.5"></path><path d="M1103.98 696.84L1103.98 696.84" stroke="rgba(50, 20, 112, 1)" stroke-width="1.5"></path><path d="M1103.98 696.84L1240.38 661.9" stroke="rgba(50, 20, 112, 1)" stroke-width="1.5"></path><path d="M1103.98 696.84L1137.51 495.87" stroke="rgba(50, 20, 112, 1)" stroke-width="1.5"></path><path d="M1103.98 696.84L984.88 496.23" stroke="rgba(50, 20, 112, 1)" stroke-width="1.5"></path><path d="M1103.98 696.84L1302.65 491.17" stroke="rgba(50, 20, 112, 1)" stroke-width="1.5"></path><path d="M1103.98 696.84L800.77 692.63" stroke="rgba(50, 20, 112, 1)" stroke-width="1.5"></path><path d="M1278.53 -62.51L1278.53 -62.51" stroke="rgba(50, 20, 112, 1)" stroke-width="1.5"></path><path d="M1278.53 -62.51L1427.04 -81.49" stroke="rgba(50, 20, 112, 1)" stroke-width="1.5"></path><path d="M1278.53 -62.51L1455.1 99.14" stroke="rgba(50, 20, 112, 1)" stroke-width="1.5"></path><path d="M1278.53 -62.51L1552.34 -40.33" stroke="rgba(50, 20, 112, 1)" stroke-width="1.5"></path><path d="M1260.18 261.63L1260.18 261.63" stroke="rgba(50, 20, 112, 1)" stroke-width="1.5"></path><path d="M1260.18 261.63L1279.17 381.88" stroke="rgba(50, 20, 112, 1)" stroke-width="1.5"></path><path d="M1260.18 261.63L1403.21 343.6" stroke="rgba(50, 20, 112, 1)" stroke-width="1.5"></path><path d="M1279.17 381.88L1279.17 381.88" stroke="rgba(50, 20, 112, 1)" stroke-width="1.5"></path><path d="M1279.17 381.88L1302.65 491.17" stroke="rgba(50, 20, 112, 1)" stroke-width="1.5"></path><path d="M1279.17 381.88L1403.21 343.6" stroke="rgba(50, 20, 112, 1)" stroke-width="1.5"></path><path d="M1302.65 491.17L1302.65 491.17" stroke="rgba(50, 20, 112, 1)" stroke-width="1.5"></path><path d="M1302.65 491.17L1454.91 504.16" stroke="rgba(50, 20, 112, 1)" stroke-width="1.5"></path><path d="M1240.38 661.9L1240.38 661.9" stroke="rgba(50, 20, 112, 1)" stroke-width="1.5"></path><path d="M1240.38 661.9L1302.65 491.17" stroke="rgba(50, 20, 112, 1)" stroke-width="1.5"></path><path d="M1240.38 661.9L1137.51 495.87" stroke="rgba(50, 20, 112, 1)" stroke-width="1.5"></path><path d="M1240.38 661.9L1458.63 659.2" stroke="rgba(50, 20, 112, 1)" stroke-width="1.5"></path><path d="M1240.38 661.9L1002.64 712.5" stroke="rgba(50, 20, 112, 1)" stroke-width="1.5"></path><path d="M1240.38 661.9L1454.91 504.16" stroke="rgba(50, 20, 112, 1)" stroke-width="1.5"></path><path d="M1427.04 -81.49L1427.04 -81.49" stroke="rgba(50, 20, 112, 1)" stroke-width="1.5"></path><path d="M1427.04 -81.49L1552.34 -40.33" stroke="rgba(50, 20, 112, 1)" stroke-width="1.5"></path><path d="M1427.04 -81.49L1455.1 99.14" stroke="rgba(50, 20, 112, 1)" stroke-width="1.5"></path><path d="M1455.1 99.14L1455.1 99.14" stroke="rgba(50, 20, 112, 1)" stroke-width="1.5"></path><path d="M1455.1 99.14L1577.74 105.32" stroke="rgba(50, 20, 112, 1)" stroke-width="1.5"></path><path d="M1455.1 99.14L1549.54 202.75" stroke="rgba(50, 20, 112, 1)" stroke-width="1.5"></path><path d="M1455.1 99.14L1458.31 248.03" stroke="rgba(50, 20, 112, 1)" stroke-width="1.5"></path><path d="M1455.1 99.14L1552.34 -40.33" stroke="rgba(50, 20, 112, 1)" stroke-width="1.5"></path><path d="M1458.31 248.03L1458.31 248.03" stroke="rgba(50, 20, 112, 1)" stroke-width="1.5"></path><path d="M1458.31 248.03L1549.54 202.75" stroke="rgba(50, 20, 112, 1)" stroke-width="1.5"></path><path d="M1458.31 248.03L1403.21 343.6" stroke="rgba(50, 20, 112, 1)" stroke-width="1.5"></path><path d="M1403.21 343.6L1403.21 343.6" stroke="rgba(50, 20, 112, 1)" stroke-width="1.5"></path><path d="M1403.21 343.6L1559.78 346.14" stroke="rgba(50, 20, 112, 1)" stroke-width="1.5"></path><path d="M1403.21 343.6L1454.91 504.16" stroke="rgba(50, 20, 112, 1)" stroke-width="1.5"></path><path d="M1403.21 343.6L1302.65 491.17" stroke="rgba(50, 20, 112, 1)" stroke-width="1.5"></path><path d="M1454.91 504.16L1454.91 504.16" stroke="rgba(50, 20, 112, 1)" stroke-width="1.5"></path><path d="M1454.91 504.16L1600.71 549.54" stroke="rgba(50, 20, 112, 1)" stroke-width="1.5"></path><path d="M1454.91 504.16L1458.63 659.2" stroke="rgba(50, 20, 112, 1)" stroke-width="1.5"></path><path d="M1454.91 504.16L1559.78 346.14" stroke="rgba(50, 20, 112, 1)" stroke-width="1.5"></path><path d="M1454.91 504.16L1279.17 381.88" stroke="rgba(50, 20, 112, 1)" stroke-width="1.5"></path><path d="M1458.63 659.2L1458.63 659.2" stroke="rgba(50, 20, 112, 1)" stroke-width="1.5"></path><path d="M1458.63 659.2L1600.71 549.54" stroke="rgba(50, 20, 112, 1)" stroke-width="1.5"></path><path d="M1552.34 -40.33L1552.34 -40.33" stroke="rgba(50, 20, 112, 1)" stroke-width="1.5"></path><path d="M1552.34 -40.33L1577.74 105.32" stroke="rgba(50, 20, 112, 1)" stroke-width="1.5"></path><path d="M1552.34 -40.33L1549.54 202.75" stroke="rgba(50, 20, 112, 1)" stroke-width="1.5"></path><path d="M1552.34 -40.33L1458.31 248.03" stroke="rgba(50, 20, 112, 1)" stroke-width="1.5"></path><path d="M1577.74 105.32L1577.74 105.32" stroke="rgba(50, 20, 112, 1)" stroke-width="1.5"></path><path d="M1577.74 105.32L1549.54 202.75" stroke="rgba(50, 20, 112, 1)" stroke-width="1.5"></path><path d="M1577.74 105.32L1458.31 248.03" stroke="rgba(50, 20, 112, 1)" stroke-width="1.5"></path><path d="M1577.74 105.32L1427.04 -81.49" stroke="rgba(50, 20, 112, 1)" stroke-width="1.5"></path><path d="M1549.54 202.75L1549.54 202.75" stroke="rgba(50, 20, 112, 1)" stroke-width="1.5"></path><path d="M1549.54 202.75L1559.78 346.14" stroke="rgba(50, 20, 112, 1)" stroke-width="1.5"></path><path d="M1549.54 202.75L1403.21 343.6" stroke="rgba(50, 20, 112, 1)" stroke-width="1.5"></path><path d="M1559.78 346.14L1559.78 346.14" stroke="rgba(50, 20, 112, 1)" stroke-width="1.5"></path><path d="M1559.78 346.14L1458.31 248.03" stroke="rgba(50, 20, 112, 1)" stroke-width="1.5"></path><path d="M1559.78 346.14L1600.71 549.54" stroke="rgba(50, 20, 112, 1)" stroke-width="1.5"></path><path d="M1600.71 549.54L1600.71 549.54" stroke="rgba(50, 20, 112, 1)" stroke-width="1.5"></path><circle r="5" cx="-85.08" cy="355.51" fill="rgba(50, 20, 112, 1)"></circle><circle r="5" cx="-56.68" cy="499.27" fill="rgba(50, 20, 112, 1)"></circle><circle r="5" cx="-64.87" cy="692.87" fill="rgba(50, 20, 112, 1)"></circle><circle r="5" cx="70.39" cy="357.92" fill="rgba(50, 20, 112, 1)"></circle><circle r="5" cx="111.02" cy="505" fill="rgba(50, 20, 112, 1)"></circle><circle r="5" cx="241.41" cy="357.86" fill="rgba(50, 20, 112, 1)"></circle><circle r="5" cx="231.27" cy="536.61" fill="rgba(50, 20, 112, 1)"></circle><circle r="5" cx="340.57" cy="350.03" fill="rgba(50, 20, 112, 1)"></circle><circle r="5" cx="354.39" cy="497.84" fill="rgba(50, 20, 112, 1)"></circle><circle r="5" cx="364.86" cy="711.32" fill="rgba(50, 20, 112, 1)"></circle><circle r="5" cx="527.98" cy="395.09" fill="rgba(50, 20, 112, 1)"></circle><circle r="5" cx="510.56" cy="539.7" fill="rgba(50, 20, 112, 1)"></circle><circle r="5" cx="497.22" cy="702.13" fill="rgba(50, 20, 112, 1)"></circle><circle r="5" cx="691.94" cy="369.42" fill="rgba(50, 20, 112, 1)"></circle><circle r="5" cx="694.46" cy="533.51" fill="rgba(50, 20, 112, 1)"></circle><circle r="5" cx="667.26" cy="705.68" fill="rgba(50, 20, 112, 1)"></circle><circle r="5" cx="829.96" cy="237.12" fill="rgba(50, 20, 112, 1)"></circle><circle r="5" cx="813.77" cy="357.65" fill="rgba(50, 20, 112, 1)"></circle><circle r="5" cx="829.87" cy="544.08" fill="rgba(50, 20, 112, 1)"></circle><circle r="5" cx="800.77" cy="692.63" fill="rgba(50, 20, 112, 1)"></circle><circle r="5" cx="946.61" cy="-50.82" fill="rgba(50, 20, 112, 1)"></circle><circle r="5" cx="939.96" cy="44.53" fill="rgba(50, 20, 112, 1)"></circle><circle r="5" cx="961.31" cy="211.02" fill="rgba(50, 20, 112, 1)"></circle><circle r="5" cx="963.56" cy="362.82" fill="rgba(50, 20, 112, 1)"></circle><circle r="5" cx="984.88" cy="496.23" fill="rgba(50, 20, 112, 1)"></circle><circle r="5" cx="1002.64" cy="712.5" fill="rgba(50, 20, 112, 1)"></circle><circle r="5" cx="1150.57" cy="52.63" fill="rgba(50, 20, 112, 1)"></circle><circle r="5" cx="1089.93" cy="223.48" fill="rgba(50, 20, 112, 1)"></circle><circle r="5" cx="1122.5" cy="381.24" fill="rgba(50, 20, 112, 1)"></circle><circle r="5" cx="1137.51" cy="495.87" fill="rgba(50, 20, 112, 1)"></circle><circle r="5" cx="1103.98" cy="696.84" fill="rgba(50, 20, 112, 1)"></circle><circle r="5" cx="1278.53" cy="-62.51" fill="rgba(50, 20, 112, 1)"></circle><circle r="5" cx="1260.18" cy="261.63" fill="rgba(50, 20, 112, 1)"></circle><circle r="5" cx="1279.17" cy="381.88" fill="rgba(50, 20, 112, 1)"></circle><circle r="5" cx="1302.65" cy="491.17" fill="rgba(50, 20, 112, 1)"></circle><circle r="5" cx="1240.38" cy="661.9" fill="rgba(50, 20, 112, 1)"></circle><circle r="5" cx="1427.04" cy="-81.49" fill="rgba(50, 20, 112, 1)"></circle><circle r="5" cx="1455.1" cy="99.14" fill="rgba(50, 20, 112, 1)"></circle><circle r="5" cx="1458.31" cy="248.03" fill="rgba(50, 20, 112, 1)"></circle><circle r="5" cx="1403.21" cy="343.6" fill="rgba(50, 20, 112, 1)"></circle><circle r="5" cx="1454.91" cy="504.16" fill="rgba(50, 20, 112, 1)"></circle><circle r="5" cx="1458.63" cy="659.2" fill="rgba(50, 20, 112, 1)"></circle><circle r="5" cx="1552.34" cy="-40.33" fill="rgba(50, 20, 112, 1)"></circle><circle r="5" cx="1577.74" cy="105.32" fill="rgba(50, 20, 112, 1)"></circle><circle r="5" cx="1549.54" cy="202.75" fill="rgba(50, 20, 112, 1)"></circle><circle r="5" cx="1559.78" cy="346.14" fill="rgba(50, 20, 112, 1)"></circle><circle r="5" cx="1600.71" cy="549.54" fill="rgba(50, 20, 112, 1)"></circle><path d="M-50.33 672.21L-50.33 672.21" stroke="hsl(270, 100%, 77.5%)" stroke-width="1.5"></path><path d="M-50.33 672.21L-61.78 514.5" stroke="hsl(270, 100%, 77.5%)" stroke-width="1.5"></path><path d="M-50.33 672.21L107.21 702.04" stroke="hsl(270, 100%, 77.5%)" stroke-width="1.5"></path><path d="M540.74 516.64L540.74 516.64" stroke="hsl(270, 100%, 77.5%)" stroke-width="1.5"></path><path d="M540.74 516.64L637.93 510.31" stroke="hsl(270, 100%, 77.5%)" stroke-width="1.5"></path><path d="M540.74 516.64L530.01 399.29" stroke="hsl(270, 100%, 77.5%)" stroke-width="1.5"></path><path d="M540.74 516.64L383.43 516.48" stroke="hsl(270, 100%, 77.5%)" stroke-width="1.5"></path><path d="M540.74 516.64L542.31 686.91" stroke="hsl(270, 100%, 77.5%)" stroke-width="1.5"></path><path d="M939.01 521.19L939.01 521.19" stroke="hsl(270, 100%, 77.5%)" stroke-width="1.5"></path><path d="M939.01 521.19L807.32 546.53" stroke="hsl(270, 100%, 77.5%)" stroke-width="1.5"></path><path d="M939.01 521.19L1001.83 668.43" stroke="hsl(270, 100%, 77.5%)" stroke-width="1.5"></path><path d="M939.01 521.19L979.19 361.08" stroke="hsl(270, 100%, 77.5%)" stroke-width="1.5"></path><path d="M1147.66 552.55L1147.66 552.55" stroke="hsl(270, 100%, 77.5%)" stroke-width="1.5"></path><path d="M1147.66 552.55L1244.95 535.16" stroke="hsl(270, 100%, 77.5%)" stroke-width="1.5"></path><path d="M1147.66 552.55L1110.83 676.04" stroke="hsl(270, 100%, 77.5%)" stroke-width="1.5"></path><path d="M1147.66 552.55L1242.02 672.66" stroke="hsl(270, 100%, 77.5%)" stroke-width="1.5"></path><path d="M1147.66 552.55L1106.83 385.83" stroke="hsl(270, 100%, 77.5%)" stroke-width="1.5"></path><path d="M1311.25 191.98L1311.25 191.98" stroke="hsl(270, 100%, 77.5%)" stroke-width="1.5"></path><path d="M1311.25 191.98L1423.94 219.27" stroke="hsl(270, 100%, 77.5%)" stroke-width="1.5"></path><path d="M1311.25 191.98L1292.87 67.89" stroke="hsl(270, 100%, 77.5%)" stroke-width="1.5"></path><path d="M1311.25 191.98L1098.58 206.87" stroke="hsl(270, 100%, 77.5%)" stroke-width="1.5"></path><path d="M1311.25 191.98L1435.26 365.78" stroke="hsl(270, 100%, 77.5%)" stroke-width="1.5"></path><path d="M1311.25 191.98L1255.02 398.38" stroke="hsl(270, 100%, 77.5%)" stroke-width="1.5"></path><path d="M1244.95 535.16L1244.95 535.16" stroke="hsl(270, 100%, 77.5%)" stroke-width="1.5"></path><path d="M1244.95 535.16L1255.02 398.38" stroke="hsl(270, 100%, 77.5%)" stroke-width="1.5"></path><path d="M1244.95 535.16L1242.02 672.66" stroke="hsl(270, 100%, 77.5%)" stroke-width="1.5"></path><path d="M1242.02 672.66L1242.02 672.66" stroke="hsl(270, 100%, 77.5%)" stroke-width="1.5"></path><path d="M1242.02 672.66L1110.83 676.04" stroke="hsl(270, 100%, 77.5%)" stroke-width="1.5"></path><path d="M1561.08 -39.08L1561.08 -39.08" stroke="hsl(270, 100%, 77.5%)" stroke-width="1.5"></path><path d="M1561.08 -39.08L1588.1 87.26" stroke="hsl(270, 100%, 77.5%)" stroke-width="1.5"></path><path d="M1561.08 -39.08L1402.38 -93.25" stroke="hsl(270, 100%, 77.5%)" stroke-width="1.5"></path><path d="M1561.08 -39.08L1579.35 200.49" stroke="hsl(270, 100%, 77.5%)" stroke-width="1.5"></path><path d="M1561.08 -39.08L1299.84 -47.79" stroke="hsl(270, 100%, 77.5%)" stroke-width="1.5"></path><path d="M1561.08 -39.08L1292.87 67.89" stroke="hsl(270, 100%, 77.5%)" stroke-width="1.5"></path><path d="M1561.08 -39.08L1423.94 219.27" stroke="hsl(270, 100%, 77.5%)" stroke-width="1.5"></path><path d="M-61.78 514.5L-61.78 514.5" stroke="hsl(270, 100%, 77.5%)" stroke-width="1.5"></path><path d="M-61.78 514.5L53.46 520.92" stroke="hsl(270, 100%, 77.5%)" stroke-width="1.5"></path><path d="M-61.78 514.5L107.21 702.04" stroke="hsl(270, 100%, 77.5%)" stroke-width="1.5"></path><path d="M-61.78 514.5L224.76 503.22" stroke="hsl(270, 100%, 77.5%)" stroke-width="1.5"></path><path d="M-61.78 514.5L240.15 697.79" stroke="hsl(270, 100%, 77.5%)" stroke-width="1.5"></path><path d="M53.46 520.92L53.46 520.92" stroke="hsl(270, 100%, 77.5%)" stroke-width="1.5"></path><path d="M53.46 520.92L224.76 503.22" stroke="hsl(270, 100%, 77.5%)" stroke-width="1.5"></path><path d="M53.46 520.92L-50.33 672.21" stroke="hsl(270, 100%, 77.5%)" stroke-width="1.5"></path><path d="M53.46 520.92L107.21 702.04" stroke="hsl(270, 100%, 77.5%)" stroke-width="1.5"></path><path d="M53.46 520.92L240.15 697.79" stroke="hsl(270, 100%, 77.5%)" stroke-width="1.5"></path><path d="M107.21 702.04L107.21 702.04" stroke="hsl(270, 100%, 77.5%)" stroke-width="1.5"></path><path d="M107.21 702.04L240.15 697.79" stroke="hsl(270, 100%, 77.5%)" stroke-width="1.5"></path><path d="M224.76 503.22L224.76 503.22" stroke="hsl(270, 100%, 77.5%)" stroke-width="1.5"></path><path d="M224.76 503.22L383.43 516.48" stroke="hsl(270, 100%, 77.5%)" stroke-width="1.5"></path><path d="M240.15 697.79L240.15 697.79" stroke="hsl(270, 100%, 77.5%)" stroke-width="1.5"></path><path d="M240.15 697.79L344.32 690.11" stroke="hsl(270, 100%, 77.5%)" stroke-width="1.5"></path><path d="M240.15 697.79L224.76 503.22" stroke="hsl(270, 100%, 77.5%)" stroke-width="1.5"></path><path d="M240.15 697.79L383.43 516.48" stroke="hsl(270, 100%, 77.5%)" stroke-width="1.5"></path><path d="M240.15 697.79L-50.33 672.21" stroke="hsl(270, 100%, 77.5%)" stroke-width="1.5"></path><path d="M383.43 516.48L383.43 516.48" stroke="hsl(270, 100%, 77.5%)" stroke-width="1.5"></path><path d="M383.43 516.48L344.32 690.11" stroke="hsl(270, 100%, 77.5%)" stroke-width="1.5"></path><path d="M383.43 516.48L530.01 399.29" stroke="hsl(270, 100%, 77.5%)" stroke-width="1.5"></path><path d="M344.32 690.11L344.32 690.11" stroke="hsl(270, 100%, 77.5%)" stroke-width="1.5"></path><path d="M344.32 690.11L542.31 686.91" stroke="hsl(270, 100%, 77.5%)" stroke-width="1.5"></path><path d="M344.32 690.11L224.76 503.22" stroke="hsl(270, 100%, 77.5%)" stroke-width="1.5"></path><path d="M344.32 690.11L107.21 702.04" stroke="hsl(270, 100%, 77.5%)" stroke-width="1.5"></path><path d="M344.32 690.11L540.74 516.64" stroke="hsl(270, 100%, 77.5%)" stroke-width="1.5"></path><path d="M530.01 399.29L530.01 399.29" stroke="hsl(270, 100%, 77.5%)" stroke-width="1.5"></path><path d="M530.01 399.29L637.93 510.31" stroke="hsl(270, 100%, 77.5%)" stroke-width="1.5"></path><path d="M542.31 686.91L542.31 686.91" stroke="hsl(270, 100%, 77.5%)" stroke-width="1.5"></path><path d="M542.31 686.91L690.11 686.11" stroke="hsl(270, 100%, 77.5%)" stroke-width="1.5"></path><path d="M542.31 686.91L637.93 510.31" stroke="hsl(270, 100%, 77.5%)" stroke-width="1.5"></path><path d="M637.93 510.31L637.93 510.31" stroke="hsl(270, 100%, 77.5%)" stroke-width="1.5"></path><path d="M637.93 510.31L807.32 546.53" stroke="hsl(270, 100%, 77.5%)" stroke-width="1.5"></path><path d="M637.93 510.31L690.11 686.11" stroke="hsl(270, 100%, 77.5%)" stroke-width="1.5"></path><path d="M690.11 686.11L690.11 686.11" stroke="hsl(270, 100%, 77.5%)" stroke-width="1.5"></path><path d="M690.11 686.11L792.48 677.16" stroke="hsl(270, 100%, 77.5%)" stroke-width="1.5"></path><path d="M690.11 686.11L807.32 546.53" stroke="hsl(270, 100%, 77.5%)" stroke-width="1.5"></path><path d="M690.11 686.11L540.74 516.64" stroke="hsl(270, 100%, 77.5%)" stroke-width="1.5"></path><path d="M860.67 354.53L860.67 354.53" stroke="hsl(270, 100%, 77.5%)" stroke-width="1.5"></path><path d="M860.67 354.53L979.19 361.08" stroke="hsl(270, 100%, 77.5%)" stroke-width="1.5"></path><path d="M860.67 354.53L960.68 260.11" stroke="hsl(270, 100%, 77.5%)" stroke-width="1.5"></path><path d="M860.67 354.53L939.01 521.19" stroke="hsl(270, 100%, 77.5%)" stroke-width="1.5"></path><path d="M807.32 546.53L807.32 546.53" stroke="hsl(270, 100%, 77.5%)" stroke-width="1.5"></path><path d="M807.32 546.53L792.48 677.16" stroke="hsl(270, 100%, 77.5%)" stroke-width="1.5"></path><path d="M807.32 546.53L860.67 354.53" stroke="hsl(270, 100%, 77.5%)" stroke-width="1.5"></path><path d="M807.32 546.53L1001.83 668.43" stroke="hsl(270, 100%, 77.5%)" stroke-width="1.5"></path><path d="M792.48 677.16L792.48 677.16" stroke="hsl(270, 100%, 77.5%)" stroke-width="1.5"></path><path d="M960.68 260.11L960.68 260.11" stroke="hsl(270, 100%, 77.5%)" stroke-width="1.5"></path><path d="M960.68 260.11L979.19 361.08" stroke="hsl(270, 100%, 77.5%)" stroke-width="1.5"></path><path d="M960.68 260.11L1098.58 206.87" stroke="hsl(270, 100%, 77.5%)" stroke-width="1.5"></path><path d="M960.68 260.11L1106.83 385.83" stroke="hsl(270, 100%, 77.5%)" stroke-width="1.5"></path><path d="M960.68 260.11L939.01 521.19" stroke="hsl(270, 100%, 77.5%)" stroke-width="1.5"></path><path d="M979.19 361.08L979.19 361.08" stroke="hsl(270, 100%, 77.5%)" stroke-width="1.5"></path><path d="M979.19 361.08L1106.83 385.83" stroke="hsl(270, 100%, 77.5%)" stroke-width="1.5"></path><path d="M1001.83 668.43L1001.83 668.43" stroke="hsl(270, 100%, 77.5%)" stroke-width="1.5"></path><path d="M1001.83 668.43L1110.83 676.04" stroke="hsl(270, 100%, 77.5%)" stroke-width="1.5"></path><path d="M1098.58 206.87L1098.58 206.87" stroke="hsl(270, 100%, 77.5%)" stroke-width="1.5"></path><path d="M1098.58 206.87L1106.83 385.83" stroke="hsl(270, 100%, 77.5%)" stroke-width="1.5"></path><path d="M1098.58 206.87L979.19 361.08" stroke="hsl(270, 100%, 77.5%)" stroke-width="1.5"></path><path d="M1106.83 385.83L1106.83 385.83" stroke="hsl(270, 100%, 77.5%)" stroke-width="1.5"></path><path d="M1106.83 385.83L1255.02 398.38" stroke="hsl(270, 100%, 77.5%)" stroke-width="1.5"></path><path d="M1110.83 676.04L1110.83 676.04" stroke="hsl(270, 100%, 77.5%)" stroke-width="1.5"></path><path d="M1110.83 676.04L1244.95 535.16" stroke="hsl(270, 100%, 77.5%)" stroke-width="1.5"></path><path d="M1110.83 676.04L939.01 521.19" stroke="hsl(270, 100%, 77.5%)" stroke-width="1.5"></path><path d="M1110.83 676.04L1106.83 385.83" stroke="hsl(270, 100%, 77.5%)" stroke-width="1.5"></path><path d="M1299.84 -47.79L1299.84 -47.79" stroke="hsl(270, 100%, 77.5%)" stroke-width="1.5"></path><path d="M1299.84 -47.79L1402.38 -93.25" stroke="hsl(270, 100%, 77.5%)" stroke-width="1.5"></path><path d="M1299.84 -47.79L1292.87 67.89" stroke="hsl(270, 100%, 77.5%)" stroke-width="1.5"></path><path d="M1299.84 -47.79L1311.25 191.98" stroke="hsl(270, 100%, 77.5%)" stroke-width="1.5"></path><path d="M1299.84 -47.79L1423.94 219.27" stroke="hsl(270, 100%, 77.5%)" stroke-width="1.5"></path><path d="M1292.87 67.89L1292.87 67.89" stroke="hsl(270, 100%, 77.5%)" stroke-width="1.5"></path><path d="M1292.87 67.89L1402.38 -93.25" stroke="hsl(270, 100%, 77.5%)" stroke-width="1.5"></path><path d="M1255.02 398.38L1255.02 398.38" stroke="hsl(270, 100%, 77.5%)" stroke-width="1.5"></path><path d="M1255.02 398.38L1435.26 365.78" stroke="hsl(270, 100%, 77.5%)" stroke-width="1.5"></path><path d="M1255.02 398.38L1147.66 552.55" stroke="hsl(270, 100%, 77.5%)" stroke-width="1.5"></path><path d="M1255.02 398.38L1399.61 538.28" stroke="hsl(270, 100%, 77.5%)" stroke-width="1.5"></path><path d="M1402.38 -93.25L1402.38 -93.25" stroke="hsl(270, 100%, 77.5%)" stroke-width="1.5"></path><path d="M1423.94 219.27L1423.94 219.27" stroke="hsl(270, 100%, 77.5%)" stroke-width="1.5"></path><path d="M1423.94 219.27L1435.26 365.78" stroke="hsl(270, 100%, 77.5%)" stroke-width="1.5"></path><path d="M1423.94 219.27L1579.35 200.49" stroke="hsl(270, 100%, 77.5%)" stroke-width="1.5"></path><path d="M1423.94 219.27L1292.87 67.89" stroke="hsl(270, 100%, 77.5%)" stroke-width="1.5"></path><path d="M1423.94 219.27L1588.1 87.26" stroke="hsl(270, 100%, 77.5%)" stroke-width="1.5"></path><path d="M1423.94 219.27L1562.37 410.06" stroke="hsl(270, 100%, 77.5%)" stroke-width="1.5"></path><path d="M1435.26 365.78L1435.26 365.78" stroke="hsl(270, 100%, 77.5%)" stroke-width="1.5"></path><path d="M1435.26 365.78L1562.37 410.06" stroke="hsl(270, 100%, 77.5%)" stroke-width="1.5"></path><path d="M1435.26 365.78L1399.61 538.28" stroke="hsl(270, 100%, 77.5%)" stroke-width="1.5"></path><path d="M1399.61 538.28L1399.61 538.28" stroke="hsl(270, 100%, 77.5%)" stroke-width="1.5"></path><path d="M1399.61 538.28L1439.54 654.84" stroke="hsl(270, 100%, 77.5%)" stroke-width="1.5"></path><path d="M1399.61 538.28L1244.95 535.16" stroke="hsl(270, 100%, 77.5%)" stroke-width="1.5"></path><path d="M1399.61 538.28L1555.57 510.57" stroke="hsl(270, 100%, 77.5%)" stroke-width="1.5"></path><path d="M1439.54 654.84L1439.54 654.84" stroke="hsl(270, 100%, 77.5%)" stroke-width="1.5"></path><path d="M1588.1 87.26L1588.1 87.26" stroke="hsl(270, 100%, 77.5%)" stroke-width="1.5"></path><path d="M1588.1 87.26L1579.35 200.49" stroke="hsl(270, 100%, 77.5%)" stroke-width="1.5"></path><path d="M1588.1 87.26L1402.38 -93.25" stroke="hsl(270, 100%, 77.5%)" stroke-width="1.5"></path><path d="M1588.1 87.26L1292.87 67.89" stroke="hsl(270, 100%, 77.5%)" stroke-width="1.5"></path><path d="M1588.1 87.26L1311.25 191.98" stroke="hsl(270, 100%, 77.5%)" stroke-width="1.5"></path><path d="M1579.35 200.49L1579.35 200.49" stroke="hsl(270, 100%, 77.5%)" stroke-width="1.5"></path><path d="M1579.35 200.49L1562.37 410.06" stroke="hsl(270, 100%, 77.5%)" stroke-width="1.5"></path><path d="M1562.37 410.06L1562.37 410.06" stroke="hsl(270, 100%, 77.5%)" stroke-width="1.5"></path><path d="M1562.37 410.06L1555.57 510.57" stroke="hsl(270, 100%, 77.5%)" stroke-width="1.5"></path><path d="M1562.37 410.06L1399.61 538.28" stroke="hsl(270, 100%, 77.5%)" stroke-width="1.5"></path><path d="M1555.57 510.57L1555.57 510.57" stroke="hsl(270, 100%, 77.5%)" stroke-width="1.5"></path><path d="M1555.57 510.57L1577.26 658.47" stroke="hsl(270, 100%, 77.5%)" stroke-width="1.5"></path><path d="M1577.26 658.47L1577.26 658.47" stroke="hsl(270, 100%, 77.5%)" stroke-width="1.5"></path><path d="M1577.26 658.47L1439.54 654.84" stroke="hsl(270, 100%, 77.5%)" stroke-width="1.5"></path><path d="M1577.26 658.47L1399.61 538.28" stroke="hsl(270, 100%, 77.5%)" stroke-width="1.5"></path><path d="M1577.26 658.47L1562.37 410.06" stroke="hsl(270, 100%, 77.5%)" stroke-width="1.5"></path><circle r="25" cx="-50.33" cy="672.21" fill="url(#SvgjsRadialGradient1261)"></circle><circle r="25" cx="540.74" cy="516.64" fill="url(#SvgjsRadialGradient1261)"></circle><circle r="25" cx="939.01" cy="521.19" fill="url(#SvgjsRadialGradient1261)"></circle><circle r="25" cx="1147.66" cy="552.55" fill="url(#SvgjsRadialGradient1261)"></circle><circle r="25" cx="1311.25" cy="191.98" fill="url(#SvgjsRadialGradient1261)"></circle><circle r="25" cx="1244.95" cy="535.16" fill="url(#SvgjsRadialGradient1261)"></circle><circle r="25" cx="1242.02" cy="672.66" fill="url(#SvgjsRadialGradient1261)"></circle><circle r="25" cx="1561.08" cy="-39.08" fill="url(#SvgjsRadialGradient1261)"></circle><circle r="5" cx="-61.78" cy="514.5" fill="#cc98ff"></circle><circle r="5" cx="53.46" cy="520.92" fill="#cc98ff"></circle><circle r="5" cx="107.21" cy="702.04" fill="#cc98ff"></circle><circle r="5" cx="224.76" cy="503.22" fill="#cc98ff"></circle><circle r="5" cx="240.15" cy="697.79" fill="#cc98ff"></circle><circle r="5" cx="383.43" cy="516.48" fill="#cc98ff"></circle><circle r="5" cx="344.32" cy="690.11" fill="#cc98ff"></circle><circle r="5" cx="530.01" cy="399.29" fill="#cc98ff"></circle><circle r="5" cx="542.31" cy="686.91" fill="#cc98ff"></circle><circle r="5" cx="637.93" cy="510.31" fill="#cc98ff"></circle><circle r="5" cx="690.11" cy="686.11" fill="#cc98ff"></circle><circle r="5" cx="860.67" cy="354.53" fill="#cc98ff"></circle><circle r="5" cx="807.32" cy="546.53" fill="#cc98ff"></circle><circle r="5" cx="792.48" cy="677.16" fill="#cc98ff"></circle><circle r="5" cx="960.68" cy="260.11" fill="#cc98ff"></circle><circle r="5" cx="979.19" cy="361.08" fill="#cc98ff"></circle><circle r="5" cx="1001.83" cy="668.43" fill="#cc98ff"></circle><circle r="5" cx="1098.58" cy="206.87" fill="#cc98ff"></circle><circle r="5" cx="1106.83" cy="385.83" fill="#cc98ff"></circle><circle r="5" cx="1110.83" cy="676.04" fill="#cc98ff"></circle><circle r="5" cx="1299.84" cy="-47.79" fill="#cc98ff"></circle><circle r="5" cx="1292.87" cy="67.89" fill="#cc98ff"></circle><circle r="5" cx="1255.02" cy="398.38" fill="#cc98ff"></circle><circle r="5" cx="1402.38" cy="-93.25" fill="#cc98ff"></circle><circle r="5" cx="1423.94" cy="219.27" fill="#cc98ff"></circle><circle r="5" cx="1435.26" cy="365.78" fill="#cc98ff"></circle><circle r="5" cx="1399.61" cy="538.28" fill="#cc98ff"></circle><circle r="5" cx="1439.54" cy="654.84" fill="#cc98ff"></circle><circle r="5" cx="1588.1" cy="87.26" fill="#cc98ff"></circle><circle r="5" cx="1579.35" cy="200.49" fill="#cc98ff"></circle><circle r="5" cx="1562.37" cy="410.06" fill="#cc98ff"></circle><circle r="5" cx="1555.57" cy="510.57" fill="#cc98ff"></circle><circle r="5" cx="1577.26" cy="658.47" fill="#cc98ff"></circle></g><defs><mask id="SvgjsMask1259"><rect width="1440" height="560" fill="#ffffff"></rect></mask><linearGradient x1="15.28%" y1="-39.29%" x2="84.72%" y2="139.29%" gradientUnits="userSpaceOnUse" id="SvgjsLinearGradient1260"><stop stop-color="rgba(66, 40, 141, 1)" offset="0"></stop><stop stop-color="rgba(138, 91, 236, 1)" offset="1"></stop></linearGradient><radialGradient id="SvgjsRadialGradient1261"><stop stop-color="#ffffff" offset="0.1"></stop><stop stop-color="rgba(152, 49, 255, 1)" offset="0.2"></stop><stop stop-color="rgba(152, 49, 255, 0)" offset="1"></stop></radialGradient></defs></svg>