<svg xmlns="http://www.w3.org/2000/svg" version="1.1" xmlns:xlink="http://www.w3.org/1999/xlink" xmlns:svgjs="http://svgjs.com/svgjs" width="1440" height="560" preserveAspectRatio="none" viewBox="0 0 1440 560"><g mask="url(&quot;#SvgjsMask1322&quot;)" fill="none"><rect width="1440" height="560" x="0" y="0" fill="url(#SvgjsLinearGradient1323)"></rect><path d="M-48.66 373.06L-48.66 373.06" stroke="rgba(50, 20, 112, 1)" stroke-width="1.5"></path><path d="M-48.66 373.06L48.3 407.07" stroke="rgba(50, 20, 112, 1)" stroke-width="1.5"></path><path d="M-48.66 373.06L-81.34 537.99" stroke="rgba(50, 20, 112, 1)" stroke-width="1.5"></path><path d="M-48.66 373.06L108.28 558.21" stroke="rgba(50, 20, 112, 1)" stroke-width="1.5"></path><path d="M-48.66 373.06L189.08 506.89" stroke="rgba(50, 20, 112, 1)" stroke-width="1.5"></path><path d="M-81.34 537.99L-81.34 537.99" stroke="rgba(50, 20, 112, 1)" stroke-width="1.5"></path><path d="M-81.34 537.99L-61.97 709.38" stroke="rgba(50, 20, 112, 1)" stroke-width="1.5"></path><path d="M-61.97 709.38L-61.97 709.38" stroke="rgba(50, 20, 112, 1)" stroke-width="1.5"></path><path d="M-61.97 709.38L62.28 699.57" stroke="rgba(50, 20, 112, 1)" stroke-width="1.5"></path><path d="M-61.97 709.38L108.28 558.21" stroke="rgba(50, 20, 112, 1)" stroke-width="1.5"></path><path d="M-61.97 709.38L255.3 689.2" stroke="rgba(50, 20, 112, 1)" stroke-width="1.5"></path><path d="M-61.97 709.38L48.3 407.07" stroke="rgba(50, 20, 112, 1)" stroke-width="1.5"></path><path d="M-61.97 709.38L189.08 506.89" stroke="rgba(50, 20, 112, 1)" stroke-width="1.5"></path><path d="M48.3 407.07L48.3 407.07" stroke="rgba(50, 20, 112, 1)" stroke-width="1.5"></path><path d="M48.3 407.07L108.28 558.21" stroke="rgba(50, 20, 112, 1)" stroke-width="1.5"></path><path d="M48.3 407.07L189.08 506.89" stroke="rgba(50, 20, 112, 1)" stroke-width="1.5"></path><path d="M48.3 407.07L-81.34 537.99" stroke="rgba(50, 20, 112, 1)" stroke-width="1.5"></path><path d="M48.3 407.07L62.28 699.57" stroke="rgba(50, 20, 112, 1)" stroke-width="1.5"></path><path d="M108.28 558.21L108.28 558.21" stroke="rgba(50, 20, 112, 1)" stroke-width="1.5"></path><path d="M108.28 558.21L189.08 506.89" stroke="rgba(50, 20, 112, 1)" stroke-width="1.5"></path><path d="M108.28 558.21L62.28 699.57" stroke="rgba(50, 20, 112, 1)" stroke-width="1.5"></path><path d="M108.28 558.21L-81.34 537.99" stroke="rgba(50, 20, 112, 1)" stroke-width="1.5"></path><path d="M62.28 699.57L62.28 699.57" stroke="rgba(50, 20, 112, 1)" stroke-width="1.5"></path><path d="M189.08 506.89L189.08 506.89" stroke="rgba(50, 20, 112, 1)" stroke-width="1.5"></path><path d="M189.08 506.89L347.06 526.91" stroke="rgba(50, 20, 112, 1)" stroke-width="1.5"></path><path d="M189.08 506.89L255.3 689.2" stroke="rgba(50, 20, 112, 1)" stroke-width="1.5"></path><path d="M189.08 506.89L62.28 699.57" stroke="rgba(50, 20, 112, 1)" stroke-width="1.5"></path><path d="M189.08 506.89L382.59 665.58" stroke="rgba(50, 20, 112, 1)" stroke-width="1.5"></path><path d="M255.3 689.2L255.3 689.2" stroke="rgba(50, 20, 112, 1)" stroke-width="1.5"></path><path d="M255.3 689.2L382.59 665.58" stroke="rgba(50, 20, 112, 1)" stroke-width="1.5"></path><path d="M255.3 689.2L347.06 526.91" stroke="rgba(50, 20, 112, 1)" stroke-width="1.5"></path><path d="M411.09 374.08L411.09 374.08" stroke="rgba(50, 20, 112, 1)" stroke-width="1.5"></path><path d="M411.09 374.08L550.88 352.33" stroke="rgba(50, 20, 112, 1)" stroke-width="1.5"></path><path d="M411.09 374.08L487.86 499.41" stroke="rgba(50, 20, 112, 1)" stroke-width="1.5"></path><path d="M411.09 374.08L347.06 526.91" stroke="rgba(50, 20, 112, 1)" stroke-width="1.5"></path><path d="M347.06 526.91L347.06 526.91" stroke="rgba(50, 20, 112, 1)" stroke-width="1.5"></path><path d="M347.06 526.91L382.59 665.58" stroke="rgba(50, 20, 112, 1)" stroke-width="1.5"></path><path d="M347.06 526.91L487.86 499.41" stroke="rgba(50, 20, 112, 1)" stroke-width="1.5"></path><path d="M382.59 665.58L382.59 665.58" stroke="rgba(50, 20, 112, 1)" stroke-width="1.5"></path><path d="M382.59 665.58L550.21 681.41" stroke="rgba(50, 20, 112, 1)" stroke-width="1.5"></path><path d="M382.59 665.58L487.86 499.41" stroke="rgba(50, 20, 112, 1)" stroke-width="1.5"></path><path d="M382.59 665.58L639.47 648.04" stroke="rgba(50, 20, 112, 1)" stroke-width="1.5"></path><path d="M550.88 352.33L550.88 352.33" stroke="rgba(50, 20, 112, 1)" stroke-width="1.5"></path><path d="M550.88 352.33L487.86 499.41" stroke="rgba(50, 20, 112, 1)" stroke-width="1.5"></path><path d="M550.88 352.33L686.82 223.68" stroke="rgba(50, 20, 112, 1)" stroke-width="1.5"></path><path d="M550.88 352.33L796.81 376.97" stroke="rgba(50, 20, 112, 1)" stroke-width="1.5"></path><path d="M487.86 499.41L487.86 499.41" stroke="rgba(50, 20, 112, 1)" stroke-width="1.5"></path><path d="M487.86 499.41L550.21 681.41" stroke="rgba(50, 20, 112, 1)" stroke-width="1.5"></path><path d="M550.21 681.41L550.21 681.41" stroke="rgba(50, 20, 112, 1)" stroke-width="1.5"></path><path d="M550.21 681.41L639.47 648.04" stroke="rgba(50, 20, 112, 1)" stroke-width="1.5"></path><path d="M550.21 681.41L794.7 682.29" stroke="rgba(50, 20, 112, 1)" stroke-width="1.5"></path><path d="M550.21 681.41L347.06 526.91" stroke="rgba(50, 20, 112, 1)" stroke-width="1.5"></path><path d="M550.21 681.41L255.3 689.2" stroke="rgba(50, 20, 112, 1)" stroke-width="1.5"></path><path d="M686.82 223.68L686.82 223.68" stroke="rgba(50, 20, 112, 1)" stroke-width="1.5"></path><path d="M686.82 223.68L824.19 195.54" stroke="rgba(50, 20, 112, 1)" stroke-width="1.5"></path><path d="M686.82 223.68L796.81 376.97" stroke="rgba(50, 20, 112, 1)" stroke-width="1.5"></path><path d="M686.82 223.68L937.79 193.3" stroke="rgba(50, 20, 112, 1)" stroke-width="1.5"></path><path d="M639.47 648.04L639.47 648.04" stroke="rgba(50, 20, 112, 1)" stroke-width="1.5"></path><path d="M824.19 195.54L824.19 195.54" stroke="rgba(50, 20, 112, 1)" stroke-width="1.5"></path><path d="M824.19 195.54L937.79 193.3" stroke="rgba(50, 20, 112, 1)" stroke-width="1.5"></path><path d="M796.81 376.97L796.81 376.97" stroke="rgba(50, 20, 112, 1)" stroke-width="1.5"></path><path d="M796.81 376.97L839.98 491.55" stroke="rgba(50, 20, 112, 1)" stroke-width="1.5"></path><path d="M796.81 376.97L824.19 195.54" stroke="rgba(50, 20, 112, 1)" stroke-width="1.5"></path><path d="M796.81 376.97L937.79 193.3" stroke="rgba(50, 20, 112, 1)" stroke-width="1.5"></path><path d="M839.98 491.55L839.98 491.55" stroke="rgba(50, 20, 112, 1)" stroke-width="1.5"></path><path d="M839.98 491.55L794.7 682.29" stroke="rgba(50, 20, 112, 1)" stroke-width="1.5"></path><path d="M839.98 491.55L971.83 693.81" stroke="rgba(50, 20, 112, 1)" stroke-width="1.5"></path><path d="M839.98 491.55L639.47 648.04" stroke="rgba(50, 20, 112, 1)" stroke-width="1.5"></path><path d="M839.98 491.55L1135.75 507.01" stroke="rgba(50, 20, 112, 1)" stroke-width="1.5"></path><path d="M794.7 682.29L794.7 682.29" stroke="rgba(50, 20, 112, 1)" stroke-width="1.5"></path><path d="M794.7 682.29L639.47 648.04" stroke="rgba(50, 20, 112, 1)" stroke-width="1.5"></path><path d="M794.7 682.29L971.83 693.81" stroke="rgba(50, 20, 112, 1)" stroke-width="1.5"></path><path d="M953.05 -80.72L953.05 -80.72" stroke="rgba(50, 20, 112, 1)" stroke-width="1.5"></path><path d="M953.05 -80.72L1128.81 -50.35" stroke="rgba(50, 20, 112, 1)" stroke-width="1.5"></path><path d="M1010.71 108.56L1010.71 108.56" stroke="rgba(50, 20, 112, 1)" stroke-width="1.5"></path><path d="M1010.71 108.56L1116.36 75.88" stroke="rgba(50, 20, 112, 1)" stroke-width="1.5"></path><path d="M1010.71 108.56L937.79 193.3" stroke="rgba(50, 20, 112, 1)" stroke-width="1.5"></path><path d="M937.79 193.3L937.79 193.3" stroke="rgba(50, 20, 112, 1)" stroke-width="1.5"></path><path d="M937.79 193.3L1107.91 231.96" stroke="rgba(50, 20, 112, 1)" stroke-width="1.5"></path><path d="M971.83 693.81L971.83 693.81" stroke="rgba(50, 20, 112, 1)" stroke-width="1.5"></path><path d="M971.83 693.81L1126.65 705.72" stroke="rgba(50, 20, 112, 1)" stroke-width="1.5"></path><path d="M1128.81 -50.35L1128.81 -50.35" stroke="rgba(50, 20, 112, 1)" stroke-width="1.5"></path><path d="M1128.81 -50.35L1116.36 75.88" stroke="rgba(50, 20, 112, 1)" stroke-width="1.5"></path><path d="M1128.81 -50.35L1295.74 -108.28" stroke="rgba(50, 20, 112, 1)" stroke-width="1.5"></path><path d="M1128.81 -50.35L1010.71 108.56" stroke="rgba(50, 20, 112, 1)" stroke-width="1.5"></path><path d="M1128.81 -50.35L1300.6 73.72" stroke="rgba(50, 20, 112, 1)" stroke-width="1.5"></path><path d="M1116.36 75.88L1116.36 75.88" stroke="rgba(50, 20, 112, 1)" stroke-width="1.5"></path><path d="M1107.91 231.96L1107.91 231.96" stroke="rgba(50, 20, 112, 1)" stroke-width="1.5"></path><path d="M1107.91 231.96L1156.36 371.31" stroke="rgba(50, 20, 112, 1)" stroke-width="1.5"></path><path d="M1107.91 231.96L1116.36 75.88" stroke="rgba(50, 20, 112, 1)" stroke-width="1.5"></path><path d="M1107.91 231.96L1010.71 108.56" stroke="rgba(50, 20, 112, 1)" stroke-width="1.5"></path><path d="M1107.91 231.96L1303.22 222.36" stroke="rgba(50, 20, 112, 1)" stroke-width="1.5"></path><path d="M1107.91 231.96L1255.92 402.42" stroke="rgba(50, 20, 112, 1)" stroke-width="1.5"></path><path d="M1156.36 371.31L1156.36 371.31" stroke="rgba(50, 20, 112, 1)" stroke-width="1.5"></path><path d="M1156.36 371.31L1255.92 402.42" stroke="rgba(50, 20, 112, 1)" stroke-width="1.5"></path><path d="M1156.36 371.31L1135.75 507.01" stroke="rgba(50, 20, 112, 1)" stroke-width="1.5"></path><path d="M1156.36 371.31L1306.5 488.1" stroke="rgba(50, 20, 112, 1)" stroke-width="1.5"></path><path d="M1156.36 371.31L1303.22 222.36" stroke="rgba(50, 20, 112, 1)" stroke-width="1.5"></path><path d="M1156.36 371.31L1388.09 401.8" stroke="rgba(50, 20, 112, 1)" stroke-width="1.5"></path><path d="M1135.75 507.01L1135.75 507.01" stroke="rgba(50, 20, 112, 1)" stroke-width="1.5"></path><path d="M1135.75 507.01L1255.92 402.42" stroke="rgba(50, 20, 112, 1)" stroke-width="1.5"></path><path d="M1126.65 705.72L1126.65 705.72" stroke="rgba(50, 20, 112, 1)" stroke-width="1.5"></path><path d="M1126.65 705.72L1271.22 661.02" stroke="rgba(50, 20, 112, 1)" stroke-width="1.5"></path><path d="M1126.65 705.72L1135.75 507.01" stroke="rgba(50, 20, 112, 1)" stroke-width="1.5"></path><path d="M1126.65 705.72L1406.93 697.45" stroke="rgba(50, 20, 112, 1)" stroke-width="1.5"></path><path d="M1126.65 705.72L1306.5 488.1" stroke="rgba(50, 20, 112, 1)" stroke-width="1.5"></path><path d="M1295.74 -108.28L1295.74 -108.28" stroke="rgba(50, 20, 112, 1)" stroke-width="1.5"></path><path d="M1295.74 -108.28L1410.46 -60.44" stroke="rgba(50, 20, 112, 1)" stroke-width="1.5"></path><path d="M1295.74 -108.28L1300.6 73.72" stroke="rgba(50, 20, 112, 1)" stroke-width="1.5"></path><path d="M1295.74 -108.28L1401.58 107.29" stroke="rgba(50, 20, 112, 1)" stroke-width="1.5"></path><path d="M1300.6 73.72L1300.6 73.72" stroke="rgba(50, 20, 112, 1)" stroke-width="1.5"></path><path d="M1300.6 73.72L1401.58 107.29" stroke="rgba(50, 20, 112, 1)" stroke-width="1.5"></path><path d="M1300.6 73.72L1303.22 222.36" stroke="rgba(50, 20, 112, 1)" stroke-width="1.5"></path><path d="M1300.6 73.72L1410.46 -60.44" stroke="rgba(50, 20, 112, 1)" stroke-width="1.5"></path><path d="M1300.6 73.72L1116.36 75.88" stroke="rgba(50, 20, 112, 1)" stroke-width="1.5"></path><path d="M1300.6 73.72L1438.43 210.85" stroke="rgba(50, 20, 112, 1)" stroke-width="1.5"></path><path d="M1303.22 222.36L1303.22 222.36" stroke="rgba(50, 20, 112, 1)" stroke-width="1.5"></path><path d="M1303.22 222.36L1438.43 210.85" stroke="rgba(50, 20, 112, 1)" stroke-width="1.5"></path><path d="M1303.22 222.36L1401.58 107.29" stroke="rgba(50, 20, 112, 1)" stroke-width="1.5"></path><path d="M1303.22 222.36L1255.92 402.42" stroke="rgba(50, 20, 112, 1)" stroke-width="1.5"></path><path d="M1255.92 402.42L1255.92 402.42" stroke="rgba(50, 20, 112, 1)" stroke-width="1.5"></path><path d="M1255.92 402.42L1306.5 488.1" stroke="rgba(50, 20, 112, 1)" stroke-width="1.5"></path><path d="M1255.92 402.42L1388.09 401.8" stroke="rgba(50, 20, 112, 1)" stroke-width="1.5"></path><path d="M1306.5 488.1L1306.5 488.1" stroke="rgba(50, 20, 112, 1)" stroke-width="1.5"></path><path d="M1306.5 488.1L1388.09 401.8" stroke="rgba(50, 20, 112, 1)" stroke-width="1.5"></path><path d="M1306.5 488.1L1135.75 507.01" stroke="rgba(50, 20, 112, 1)" stroke-width="1.5"></path><path d="M1306.5 488.1L1271.22 661.02" stroke="rgba(50, 20, 112, 1)" stroke-width="1.5"></path><path d="M1271.22 661.02L1271.22 661.02" stroke="rgba(50, 20, 112, 1)" stroke-width="1.5"></path><path d="M1271.22 661.02L1406.93 697.45" stroke="rgba(50, 20, 112, 1)" stroke-width="1.5"></path><path d="M1271.22 661.02L1135.75 507.01" stroke="rgba(50, 20, 112, 1)" stroke-width="1.5"></path><path d="M1271.22 661.02L1255.92 402.42" stroke="rgba(50, 20, 112, 1)" stroke-width="1.5"></path><path d="M1410.46 -60.44L1410.46 -60.44" stroke="rgba(50, 20, 112, 1)" stroke-width="1.5"></path><path d="M1410.46 -60.44L1569.5 -78.16" stroke="rgba(50, 20, 112, 1)" stroke-width="1.5"></path><path d="M1401.58 107.29L1401.58 107.29" stroke="rgba(50, 20, 112, 1)" stroke-width="1.5"></path><path d="M1401.58 107.29L1438.43 210.85" stroke="rgba(50, 20, 112, 1)" stroke-width="1.5"></path><path d="M1438.43 210.85L1438.43 210.85" stroke="rgba(50, 20, 112, 1)" stroke-width="1.5"></path><path d="M1438.43 210.85L1552.29 201.5" stroke="rgba(50, 20, 112, 1)" stroke-width="1.5"></path><path d="M1438.43 210.85L1590.1 100.38" stroke="rgba(50, 20, 112, 1)" stroke-width="1.5"></path><path d="M1388.09 401.8L1388.09 401.8" stroke="rgba(50, 20, 112, 1)" stroke-width="1.5"></path><path d="M1388.09 401.8L1576.26 393.28" stroke="rgba(50, 20, 112, 1)" stroke-width="1.5"></path><path d="M1406.93 697.45L1406.93 697.45" stroke="rgba(50, 20, 112, 1)" stroke-width="1.5"></path><path d="M1406.93 697.45L1546.3 672.45" stroke="rgba(50, 20, 112, 1)" stroke-width="1.5"></path><path d="M1406.93 697.45L1568.16 535.52" stroke="rgba(50, 20, 112, 1)" stroke-width="1.5"></path><path d="M1569.5 -78.16L1569.5 -78.16" stroke="rgba(50, 20, 112, 1)" stroke-width="1.5"></path><path d="M1569.5 -78.16L1590.1 100.38" stroke="rgba(50, 20, 112, 1)" stroke-width="1.5"></path><path d="M1569.5 -78.16L1401.58 107.29" stroke="rgba(50, 20, 112, 1)" stroke-width="1.5"></path><path d="M1569.5 -78.16L1295.74 -108.28" stroke="rgba(50, 20, 112, 1)" stroke-width="1.5"></path><path d="M1590.1 100.38L1590.1 100.38" stroke="rgba(50, 20, 112, 1)" stroke-width="1.5"></path><path d="M1590.1 100.38L1552.29 201.5" stroke="rgba(50, 20, 112, 1)" stroke-width="1.5"></path><path d="M1590.1 100.38L1401.58 107.29" stroke="rgba(50, 20, 112, 1)" stroke-width="1.5"></path><path d="M1552.29 201.5L1552.29 201.5" stroke="rgba(50, 20, 112, 1)" stroke-width="1.5"></path><path d="M1552.29 201.5L1401.58 107.29" stroke="rgba(50, 20, 112, 1)" stroke-width="1.5"></path><path d="M1552.29 201.5L1576.26 393.28" stroke="rgba(50, 20, 112, 1)" stroke-width="1.5"></path><path d="M1552.29 201.5L1303.22 222.36" stroke="rgba(50, 20, 112, 1)" stroke-width="1.5"></path><path d="M1552.29 201.5L1388.09 401.8" stroke="rgba(50, 20, 112, 1)" stroke-width="1.5"></path><path d="M1576.26 393.28L1576.26 393.28" stroke="rgba(50, 20, 112, 1)" stroke-width="1.5"></path><path d="M1576.26 393.28L1568.16 535.52" stroke="rgba(50, 20, 112, 1)" stroke-width="1.5"></path><path d="M1568.16 535.52L1568.16 535.52" stroke="rgba(50, 20, 112, 1)" stroke-width="1.5"></path><path d="M1568.16 535.52L1546.3 672.45" stroke="rgba(50, 20, 112, 1)" stroke-width="1.5"></path><path d="M1568.16 535.52L1388.09 401.8" stroke="rgba(50, 20, 112, 1)" stroke-width="1.5"></path><path d="M1546.3 672.45L1546.3 672.45" stroke="rgba(50, 20, 112, 1)" stroke-width="1.5"></path><path d="M1546.3 672.45L1271.22 661.02" stroke="rgba(50, 20, 112, 1)" stroke-width="1.5"></path><path d="M1546.3 672.45L1576.26 393.28" stroke="rgba(50, 20, 112, 1)" stroke-width="1.5"></path><circle r="5" cx="-48.66" cy="373.06" fill="rgba(50, 20, 112, 1)"></circle><circle r="5" cx="-81.34" cy="537.99" fill="rgba(50, 20, 112, 1)"></circle><circle r="5" cx="-61.97" cy="709.38" fill="rgba(50, 20, 112, 1)"></circle><circle r="5" cx="48.3" cy="407.07" fill="rgba(50, 20, 112, 1)"></circle><circle r="5" cx="108.28" cy="558.21" fill="rgba(50, 20, 112, 1)"></circle><circle r="5" cx="62.28" cy="699.57" fill="rgba(50, 20, 112, 1)"></circle><circle r="5" cx="189.08" cy="506.89" fill="rgba(50, 20, 112, 1)"></circle><circle r="5" cx="255.3" cy="689.2" fill="rgba(50, 20, 112, 1)"></circle><circle r="5" cx="411.09" cy="374.08" fill="rgba(50, 20, 112, 1)"></circle><circle r="5" cx="347.06" cy="526.91" fill="rgba(50, 20, 112, 1)"></circle><circle r="5" cx="382.59" cy="665.58" fill="rgba(50, 20, 112, 1)"></circle><circle r="5" cx="550.88" cy="352.33" fill="rgba(50, 20, 112, 1)"></circle><circle r="5" cx="487.86" cy="499.41" fill="rgba(50, 20, 112, 1)"></circle><circle r="5" cx="550.21" cy="681.41" fill="rgba(50, 20, 112, 1)"></circle><circle r="5" cx="686.82" cy="223.68" fill="rgba(50, 20, 112, 1)"></circle><circle r="5" cx="639.47" cy="648.04" fill="rgba(50, 20, 112, 1)"></circle><circle r="5" cx="824.19" cy="195.54" fill="rgba(50, 20, 112, 1)"></circle><circle r="5" cx="796.81" cy="376.97" fill="rgba(50, 20, 112, 1)"></circle><circle r="5" cx="839.98" cy="491.55" fill="rgba(50, 20, 112, 1)"></circle><circle r="5" cx="794.7" cy="682.29" fill="rgba(50, 20, 112, 1)"></circle><circle r="5" cx="953.05" cy="-80.72" fill="rgba(50, 20, 112, 1)"></circle><circle r="5" cx="1010.71" cy="108.56" fill="rgba(50, 20, 112, 1)"></circle><circle r="5" cx="937.79" cy="193.3" fill="rgba(50, 20, 112, 1)"></circle><circle r="5" cx="971.83" cy="693.81" fill="rgba(50, 20, 112, 1)"></circle><circle r="5" cx="1128.81" cy="-50.35" fill="rgba(50, 20, 112, 1)"></circle><circle r="5" cx="1116.36" cy="75.88" fill="rgba(50, 20, 112, 1)"></circle><circle r="5" cx="1107.91" cy="231.96" fill="rgba(50, 20, 112, 1)"></circle><circle r="5" cx="1156.36" cy="371.31" fill="rgba(50, 20, 112, 1)"></circle><circle r="5" cx="1135.75" cy="507.01" fill="rgba(50, 20, 112, 1)"></circle><circle r="5" cx="1126.65" cy="705.72" fill="rgba(50, 20, 112, 1)"></circle><circle r="5" cx="1295.74" cy="-108.28" fill="rgba(50, 20, 112, 1)"></circle><circle r="5" cx="1300.6" cy="73.72" fill="rgba(50, 20, 112, 1)"></circle><circle r="5" cx="1303.22" cy="222.36" fill="rgba(50, 20, 112, 1)"></circle><circle r="5" cx="1255.92" cy="402.42" fill="rgba(50, 20, 112, 1)"></circle><circle r="5" cx="1306.5" cy="488.1" fill="rgba(50, 20, 112, 1)"></circle><circle r="5" cx="1271.22" cy="661.02" fill="rgba(50, 20, 112, 1)"></circle><circle r="5" cx="1410.46" cy="-60.44" fill="rgba(50, 20, 112, 1)"></circle><circle r="5" cx="1401.58" cy="107.29" fill="rgba(50, 20, 112, 1)"></circle><circle r="5" cx="1438.43" cy="210.85" fill="rgba(50, 20, 112, 1)"></circle><circle r="5" cx="1388.09" cy="401.8" fill="rgba(50, 20, 112, 1)"></circle><circle r="5" cx="1406.93" cy="697.45" fill="rgba(50, 20, 112, 1)"></circle><circle r="5" cx="1569.5" cy="-78.16" fill="rgba(50, 20, 112, 1)"></circle><circle r="5" cx="1590.1" cy="100.38" fill="rgba(50, 20, 112, 1)"></circle><circle r="5" cx="1552.29" cy="201.5" fill="rgba(50, 20, 112, 1)"></circle><circle r="5" cx="1576.26" cy="393.28" fill="rgba(50, 20, 112, 1)"></circle><circle r="5" cx="1568.16" cy="535.52" fill="rgba(50, 20, 112, 1)"></circle><circle r="5" cx="1546.3" cy="672.45" fill="rgba(50, 20, 112, 1)"></circle><path d="M202.93 674.31L202.93 674.31" stroke="hsl(270, 100%, 77.5%)" stroke-width="1.5"></path><path d="M202.93 674.31L68.23 711.92" stroke="hsl(270, 100%, 77.5%)" stroke-width="1.5"></path><path d="M202.93 674.31L92.65 559.96" stroke="hsl(270, 100%, 77.5%)" stroke-width="1.5"></path><path d="M202.93 674.31L246.2 514.16" stroke="hsl(270, 100%, 77.5%)" stroke-width="1.5"></path><path d="M202.93 674.31L382.21 548.74" stroke="hsl(270, 100%, 77.5%)" stroke-width="1.5"></path><path d="M821.46 550.38L821.46 550.38" stroke="hsl(270, 100%, 77.5%)" stroke-width="1.5"></path><path d="M821.46 550.38L835.44 670.51" stroke="hsl(270, 100%, 77.5%)" stroke-width="1.5"></path><path d="M821.46 550.38L797.32 406.65" stroke="hsl(270, 100%, 77.5%)" stroke-width="1.5"></path><path d="M1101.96 404.06L1101.96 404.06" stroke="hsl(270, 100%, 77.5%)" stroke-width="1.5"></path><path d="M1101.96 404.06L1132.46 502.98" stroke="hsl(270, 100%, 77.5%)" stroke-width="1.5"></path><path d="M1101.96 404.06L1251.77 382.25" stroke="hsl(270, 100%, 77.5%)" stroke-width="1.5"></path><path d="M1101.96 404.06L1128.78 252.52" stroke="hsl(270, 100%, 77.5%)" stroke-width="1.5"></path><path d="M1101.96 404.06L940.09 382.85" stroke="hsl(270, 100%, 77.5%)" stroke-width="1.5"></path><path d="M1237.78 230.04L1237.78 230.04" stroke="hsl(270, 100%, 77.5%)" stroke-width="1.5"></path><path d="M1237.78 230.04L1128.78 252.52" stroke="hsl(270, 100%, 77.5%)" stroke-width="1.5"></path><path d="M1237.78 230.04L1251.77 382.25" stroke="hsl(270, 100%, 77.5%)" stroke-width="1.5"></path><path d="M1237.78 230.04L1245.25 59.39" stroke="hsl(270, 100%, 77.5%)" stroke-width="1.5"></path><path d="M-42.01 537.28L-42.01 537.28" stroke="hsl(270, 100%, 77.5%)" stroke-width="1.5"></path><path d="M-42.01 537.28L92.65 559.96" stroke="hsl(270, 100%, 77.5%)" stroke-width="1.5"></path><path d="M-42.01 537.28L-48.06 683.8" stroke="hsl(270, 100%, 77.5%)" stroke-width="1.5"></path><path d="M-42.01 537.28L68.23 711.92" stroke="hsl(270, 100%, 77.5%)" stroke-width="1.5"></path><path d="M-42.01 537.28L202.93 674.31" stroke="hsl(270, 100%, 77.5%)" stroke-width="1.5"></path><path d="M-42.01 537.28L246.2 514.16" stroke="hsl(270, 100%, 77.5%)" stroke-width="1.5"></path><path d="M-48.06 683.8L-48.06 683.8" stroke="hsl(270, 100%, 77.5%)" stroke-width="1.5"></path><path d="M-48.06 683.8L68.23 711.92" stroke="hsl(270, 100%, 77.5%)" stroke-width="1.5"></path><path d="M-48.06 683.8L92.65 559.96" stroke="hsl(270, 100%, 77.5%)" stroke-width="1.5"></path><path d="M-48.06 683.8L202.93 674.31" stroke="hsl(270, 100%, 77.5%)" stroke-width="1.5"></path><path d="M-48.06 683.8L246.2 514.16" stroke="hsl(270, 100%, 77.5%)" stroke-width="1.5"></path><path d="M92.65 559.96L92.65 559.96" stroke="hsl(270, 100%, 77.5%)" stroke-width="1.5"></path><path d="M92.65 559.96L68.23 711.92" stroke="hsl(270, 100%, 77.5%)" stroke-width="1.5"></path><path d="M68.23 711.92L68.23 711.92" stroke="hsl(270, 100%, 77.5%)" stroke-width="1.5"></path><path d="M246.2 514.16L246.2 514.16" stroke="hsl(270, 100%, 77.5%)" stroke-width="1.5"></path><path d="M246.2 514.16L382.21 548.74" stroke="hsl(270, 100%, 77.5%)" stroke-width="1.5"></path><path d="M246.2 514.16L92.65 559.96" stroke="hsl(270, 100%, 77.5%)" stroke-width="1.5"></path><path d="M382.21 548.74L382.21 548.74" stroke="hsl(270, 100%, 77.5%)" stroke-width="1.5"></path><path d="M382.21 548.74L490.21 496.33" stroke="hsl(270, 100%, 77.5%)" stroke-width="1.5"></path><path d="M382.21 548.74L515.91 666.33" stroke="hsl(270, 100%, 77.5%)" stroke-width="1.5"></path><path d="M382.21 548.74L92.65 559.96" stroke="hsl(270, 100%, 77.5%)" stroke-width="1.5"></path><path d="M382.21 548.74L672.31 511.18" stroke="hsl(270, 100%, 77.5%)" stroke-width="1.5"></path><path d="M490.21 496.33L490.21 496.33" stroke="hsl(270, 100%, 77.5%)" stroke-width="1.5"></path><path d="M490.21 496.33L515.91 666.33" stroke="hsl(270, 100%, 77.5%)" stroke-width="1.5"></path><path d="M490.21 496.33L672.31 511.18" stroke="hsl(270, 100%, 77.5%)" stroke-width="1.5"></path><path d="M490.21 496.33L675.16 655.7" stroke="hsl(270, 100%, 77.5%)" stroke-width="1.5"></path><path d="M490.21 496.33L246.2 514.16" stroke="hsl(270, 100%, 77.5%)" stroke-width="1.5"></path><path d="M515.91 666.33L515.91 666.33" stroke="hsl(270, 100%, 77.5%)" stroke-width="1.5"></path><path d="M515.91 666.33L675.16 655.7" stroke="hsl(270, 100%, 77.5%)" stroke-width="1.5"></path><path d="M672.31 511.18L672.31 511.18" stroke="hsl(270, 100%, 77.5%)" stroke-width="1.5"></path><path d="M672.31 511.18L675.16 655.7" stroke="hsl(270, 100%, 77.5%)" stroke-width="1.5"></path><path d="M672.31 511.18L821.46 550.38" stroke="hsl(270, 100%, 77.5%)" stroke-width="1.5"></path><path d="M675.16 655.7L675.16 655.7" stroke="hsl(270, 100%, 77.5%)" stroke-width="1.5"></path><path d="M675.16 655.7L835.44 670.51" stroke="hsl(270, 100%, 77.5%)" stroke-width="1.5"></path><path d="M675.16 655.7L821.46 550.38" stroke="hsl(270, 100%, 77.5%)" stroke-width="1.5"></path><path d="M797.32 406.65L797.32 406.65" stroke="hsl(270, 100%, 77.5%)" stroke-width="1.5"></path><path d="M797.32 406.65L940.09 382.85" stroke="hsl(270, 100%, 77.5%)" stroke-width="1.5"></path><path d="M797.32 406.65L672.31 511.18" stroke="hsl(270, 100%, 77.5%)" stroke-width="1.5"></path><path d="M797.32 406.65L994.94 550.1" stroke="hsl(270, 100%, 77.5%)" stroke-width="1.5"></path><path d="M797.32 406.65L835.44 670.51" stroke="hsl(270, 100%, 77.5%)" stroke-width="1.5"></path><path d="M797.32 406.65L675.16 655.7" stroke="hsl(270, 100%, 77.5%)" stroke-width="1.5"></path><path d="M835.44 670.51L835.44 670.51" stroke="hsl(270, 100%, 77.5%)" stroke-width="1.5"></path><path d="M835.44 670.51L1005.01 710.17" stroke="hsl(270, 100%, 77.5%)" stroke-width="1.5"></path><path d="M835.44 670.51L994.94 550.1" stroke="hsl(270, 100%, 77.5%)" stroke-width="1.5"></path><path d="M835.44 670.51L672.31 511.18" stroke="hsl(270, 100%, 77.5%)" stroke-width="1.5"></path><path d="M940.09 382.85L940.09 382.85" stroke="hsl(270, 100%, 77.5%)" stroke-width="1.5"></path><path d="M940.09 382.85L994.94 550.1" stroke="hsl(270, 100%, 77.5%)" stroke-width="1.5"></path><path d="M940.09 382.85L821.46 550.38" stroke="hsl(270, 100%, 77.5%)" stroke-width="1.5"></path><path d="M994.94 550.1L994.94 550.1" stroke="hsl(270, 100%, 77.5%)" stroke-width="1.5"></path><path d="M994.94 550.1L1096.76 646.71" stroke="hsl(270, 100%, 77.5%)" stroke-width="1.5"></path><path d="M994.94 550.1L1132.46 502.98" stroke="hsl(270, 100%, 77.5%)" stroke-width="1.5"></path><path d="M994.94 550.1L1005.01 710.17" stroke="hsl(270, 100%, 77.5%)" stroke-width="1.5"></path><path d="M994.94 550.1L821.46 550.38" stroke="hsl(270, 100%, 77.5%)" stroke-width="1.5"></path><path d="M1005.01 710.17L1005.01 710.17" stroke="hsl(270, 100%, 77.5%)" stroke-width="1.5"></path><path d="M1005.01 710.17L1096.76 646.71" stroke="hsl(270, 100%, 77.5%)" stroke-width="1.5"></path><path d="M1005.01 710.17L1132.46 502.98" stroke="hsl(270, 100%, 77.5%)" stroke-width="1.5"></path><path d="M1005.01 710.17L821.46 550.38" stroke="hsl(270, 100%, 77.5%)" stroke-width="1.5"></path><path d="M1005.01 710.17L1284.85 681.7" stroke="hsl(270, 100%, 77.5%)" stroke-width="1.5"></path><path d="M1128.78 252.52L1128.78 252.52" stroke="hsl(270, 100%, 77.5%)" stroke-width="1.5"></path><path d="M1132.46 502.98L1132.46 502.98" stroke="hsl(270, 100%, 77.5%)" stroke-width="1.5"></path><path d="M1132.46 502.98L1276.72 505.76" stroke="hsl(270, 100%, 77.5%)" stroke-width="1.5"></path><path d="M1096.76 646.71L1096.76 646.71" stroke="hsl(270, 100%, 77.5%)" stroke-width="1.5"></path><path d="M1096.76 646.71L1132.46 502.98" stroke="hsl(270, 100%, 77.5%)" stroke-width="1.5"></path><path d="M1096.76 646.71L1284.85 681.7" stroke="hsl(270, 100%, 77.5%)" stroke-width="1.5"></path><path d="M1096.76 646.71L1276.72 505.76" stroke="hsl(270, 100%, 77.5%)" stroke-width="1.5"></path><path d="M1096.76 646.71L1101.96 404.06" stroke="hsl(270, 100%, 77.5%)" stroke-width="1.5"></path><path d="M1245.25 59.39L1245.25 59.39" stroke="hsl(270, 100%, 77.5%)" stroke-width="1.5"></path><path d="M1245.25 59.39L1407.56 88.02" stroke="hsl(270, 100%, 77.5%)" stroke-width="1.5"></path><path d="M1245.25 59.39L1128.78 252.52" stroke="hsl(270, 100%, 77.5%)" stroke-width="1.5"></path><path d="M1245.25 59.39L1422.17 -84.89" stroke="hsl(270, 100%, 77.5%)" stroke-width="1.5"></path><path d="M1245.25 59.39L1419.86 228.73" stroke="hsl(270, 100%, 77.5%)" stroke-width="1.5"></path><path d="M1251.77 382.25L1251.77 382.25" stroke="hsl(270, 100%, 77.5%)" stroke-width="1.5"></path><path d="M1251.77 382.25L1276.72 505.76" stroke="hsl(270, 100%, 77.5%)" stroke-width="1.5"></path><path d="M1251.77 382.25L1389.4 355.43" stroke="hsl(270, 100%, 77.5%)" stroke-width="1.5"></path><path d="M1276.72 505.76L1276.72 505.76" stroke="hsl(270, 100%, 77.5%)" stroke-width="1.5"></path><path d="M1276.72 505.76L1390.38 554.18" stroke="hsl(270, 100%, 77.5%)" stroke-width="1.5"></path><path d="M1276.72 505.76L1284.85 681.7" stroke="hsl(270, 100%, 77.5%)" stroke-width="1.5"></path><path d="M1284.85 681.7L1284.85 681.7" stroke="hsl(270, 100%, 77.5%)" stroke-width="1.5"></path><path d="M1284.85 681.7L1426.36 640.77" stroke="hsl(270, 100%, 77.5%)" stroke-width="1.5"></path><path d="M1284.85 681.7L1390.38 554.18" stroke="hsl(270, 100%, 77.5%)" stroke-width="1.5"></path><path d="M1284.85 681.7L1132.46 502.98" stroke="hsl(270, 100%, 77.5%)" stroke-width="1.5"></path><path d="M1422.17 -84.89L1422.17 -84.89" stroke="hsl(270, 100%, 77.5%)" stroke-width="1.5"></path><path d="M1422.17 -84.89L1545.42 -111.27" stroke="hsl(270, 100%, 77.5%)" stroke-width="1.5"></path><path d="M1422.17 -84.89L1407.56 88.02" stroke="hsl(270, 100%, 77.5%)" stroke-width="1.5"></path><path d="M1422.17 -84.89L1537.93 64.72" stroke="hsl(270, 100%, 77.5%)" stroke-width="1.5"></path><path d="M1407.56 88.02L1407.56 88.02" stroke="hsl(270, 100%, 77.5%)" stroke-width="1.5"></path><path d="M1407.56 88.02L1537.93 64.72" stroke="hsl(270, 100%, 77.5%)" stroke-width="1.5"></path><path d="M1407.56 88.02L1419.86 228.73" stroke="hsl(270, 100%, 77.5%)" stroke-width="1.5"></path><path d="M1419.86 228.73L1419.86 228.73" stroke="hsl(270, 100%, 77.5%)" stroke-width="1.5"></path><path d="M1419.86 228.73L1389.4 355.43" stroke="hsl(270, 100%, 77.5%)" stroke-width="1.5"></path><path d="M1419.86 228.73L1579.25 233.56" stroke="hsl(270, 100%, 77.5%)" stroke-width="1.5"></path><path d="M1419.86 228.73L1237.78 230.04" stroke="hsl(270, 100%, 77.5%)" stroke-width="1.5"></path><path d="M1419.86 228.73L1537.93 64.72" stroke="hsl(270, 100%, 77.5%)" stroke-width="1.5"></path><path d="M1389.4 355.43L1389.4 355.43" stroke="hsl(270, 100%, 77.5%)" stroke-width="1.5"></path><path d="M1389.4 355.43L1276.72 505.76" stroke="hsl(270, 100%, 77.5%)" stroke-width="1.5"></path><path d="M1389.4 355.43L1237.78 230.04" stroke="hsl(270, 100%, 77.5%)" stroke-width="1.5"></path><path d="M1389.4 355.43L1390.38 554.18" stroke="hsl(270, 100%, 77.5%)" stroke-width="1.5"></path><path d="M1390.38 554.18L1390.38 554.18" stroke="hsl(270, 100%, 77.5%)" stroke-width="1.5"></path><path d="M1390.38 554.18L1426.36 640.77" stroke="hsl(270, 100%, 77.5%)" stroke-width="1.5"></path><path d="M1390.38 554.18L1575.91 511.09" stroke="hsl(270, 100%, 77.5%)" stroke-width="1.5"></path><path d="M1426.36 640.77L1426.36 640.77" stroke="hsl(270, 100%, 77.5%)" stroke-width="1.5"></path><path d="M1426.36 640.77L1589.2 643.42" stroke="hsl(270, 100%, 77.5%)" stroke-width="1.5"></path><path d="M1426.36 640.77L1575.91 511.09" stroke="hsl(270, 100%, 77.5%)" stroke-width="1.5"></path><path d="M1426.36 640.77L1276.72 505.76" stroke="hsl(270, 100%, 77.5%)" stroke-width="1.5"></path><path d="M1426.36 640.77L1389.4 355.43" stroke="hsl(270, 100%, 77.5%)" stroke-width="1.5"></path><path d="M1545.42 -111.27L1545.42 -111.27" stroke="hsl(270, 100%, 77.5%)" stroke-width="1.5"></path><path d="M1545.42 -111.27L1537.93 64.72" stroke="hsl(270, 100%, 77.5%)" stroke-width="1.5"></path><path d="M1537.93 64.72L1537.93 64.72" stroke="hsl(270, 100%, 77.5%)" stroke-width="1.5"></path><path d="M1537.93 64.72L1579.25 233.56" stroke="hsl(270, 100%, 77.5%)" stroke-width="1.5"></path><path d="M1579.25 233.56L1579.25 233.56" stroke="hsl(270, 100%, 77.5%)" stroke-width="1.5"></path><path d="M1579.25 233.56L1602.37 386.75" stroke="hsl(270, 100%, 77.5%)" stroke-width="1.5"></path><path d="M1579.25 233.56L1407.56 88.02" stroke="hsl(270, 100%, 77.5%)" stroke-width="1.5"></path><path d="M1579.25 233.56L1389.4 355.43" stroke="hsl(270, 100%, 77.5%)" stroke-width="1.5"></path><path d="M1602.37 386.75L1602.37 386.75" stroke="hsl(270, 100%, 77.5%)" stroke-width="1.5"></path><path d="M1602.37 386.75L1575.91 511.09" stroke="hsl(270, 100%, 77.5%)" stroke-width="1.5"></path><path d="M1602.37 386.75L1389.4 355.43" stroke="hsl(270, 100%, 77.5%)" stroke-width="1.5"></path><path d="M1602.37 386.75L1419.86 228.73" stroke="hsl(270, 100%, 77.5%)" stroke-width="1.5"></path><path d="M1575.91 511.09L1575.91 511.09" stroke="hsl(270, 100%, 77.5%)" stroke-width="1.5"></path><path d="M1575.91 511.09L1589.2 643.42" stroke="hsl(270, 100%, 77.5%)" stroke-width="1.5"></path><path d="M1575.91 511.09L1389.4 355.43" stroke="hsl(270, 100%, 77.5%)" stroke-width="1.5"></path><path d="M1575.91 511.09L1579.25 233.56" stroke="hsl(270, 100%, 77.5%)" stroke-width="1.5"></path><path d="M1589.2 643.42L1589.2 643.42" stroke="hsl(270, 100%, 77.5%)" stroke-width="1.5"></path><circle r="25" cx="202.93" cy="674.31" fill="url(#SvgjsRadialGradient1324)"></circle><circle r="25" cx="821.46" cy="550.38" fill="url(#SvgjsRadialGradient1324)"></circle><circle r="25" cx="1101.96" cy="404.06" fill="url(#SvgjsRadialGradient1324)"></circle><circle r="25" cx="1237.78" cy="230.04" fill="url(#SvgjsRadialGradient1324)"></circle><circle r="5" cx="-42.01" cy="537.28" fill="#cc98ff"></circle><circle r="5" cx="-48.06" cy="683.8" fill="#cc98ff"></circle><circle r="5" cx="92.65" cy="559.96" fill="#cc98ff"></circle><circle r="5" cx="68.23" cy="711.92" fill="#cc98ff"></circle><circle r="5" cx="246.2" cy="514.16" fill="#cc98ff"></circle><circle r="5" cx="382.21" cy="548.74" fill="#cc98ff"></circle><circle r="5" cx="490.21" cy="496.33" fill="#cc98ff"></circle><circle r="5" cx="515.91" cy="666.33" fill="#cc98ff"></circle><circle r="5" cx="672.31" cy="511.18" fill="#cc98ff"></circle><circle r="5" cx="675.16" cy="655.7" fill="#cc98ff"></circle><circle r="5" cx="797.32" cy="406.65" fill="#cc98ff"></circle><circle r="5" cx="835.44" cy="670.51" fill="#cc98ff"></circle><circle r="5" cx="940.09" cy="382.85" fill="#cc98ff"></circle><circle r="5" cx="994.94" cy="550.1" fill="#cc98ff"></circle><circle r="5" cx="1005.01" cy="710.17" fill="#cc98ff"></circle><circle r="5" cx="1128.78" cy="252.52" fill="#cc98ff"></circle><circle r="5" cx="1132.46" cy="502.98" fill="#cc98ff"></circle><circle r="5" cx="1096.76" cy="646.71" fill="#cc98ff"></circle><circle r="5" cx="1245.25" cy="59.39" fill="#cc98ff"></circle><circle r="5" cx="1251.77" cy="382.25" fill="#cc98ff"></circle><circle r="5" cx="1276.72" cy="505.76" fill="#cc98ff"></circle><circle r="5" cx="1284.85" cy="681.7" fill="#cc98ff"></circle><circle r="5" cx="1422.17" cy="-84.89" fill="#cc98ff"></circle><circle r="5" cx="1407.56" cy="88.02" fill="#cc98ff"></circle><circle r="5" cx="1419.86" cy="228.73" fill="#cc98ff"></circle><circle r="5" cx="1389.4" cy="355.43" fill="#cc98ff"></circle><circle r="5" cx="1390.38" cy="554.18" fill="#cc98ff"></circle><circle r="5" cx="1426.36" cy="640.77" fill="#cc98ff"></circle><circle r="5" cx="1545.42" cy="-111.27" fill="#cc98ff"></circle><circle r="5" cx="1537.93" cy="64.72" fill="#cc98ff"></circle><circle r="5" cx="1579.25" cy="233.56" fill="#cc98ff"></circle><circle r="5" cx="1602.37" cy="386.75" fill="#cc98ff"></circle><circle r="5" cx="1575.91" cy="511.09" fill="#cc98ff"></circle><circle r="5" cx="1589.2" cy="643.42" fill="#cc98ff"></circle></g><defs><mask id="SvgjsMask1322"><rect width="1440" height="560" fill="#ffffff"></rect></mask><linearGradient x1="100%" y1="50%" x2="0%" y2="50%" gradientUnits="userSpaceOnUse" id="SvgjsLinearGradient1323"><stop stop-color="rgba(96, 60, 201, 1)" offset="0"></stop><stop stop-color="rgba(204, 91, 236, 1)" offset="1"></stop></linearGradient><radialGradient id="SvgjsRadialGradient1324"><stop stop-color="#ffffff" offset="0.1"></stop><stop stop-color="rgba(152, 49, 255, 1)" offset="0.2"></stop><stop stop-color="rgba(152, 49, 255, 0)" offset="1"></stop></radialGradient></defs></svg>