<svg xmlns="http://www.w3.org/2000/svg" version="1.1" xmlns:xlink="http://www.w3.org/1999/xlink" xmlns:svgjs="http://svgjs.com/svgjs" width="1440" height="560" preserveAspectRatio="none" viewBox="0 0 1440 560"><g mask="url(&quot;#SvgjsMask1325&quot;)" fill="none"><rect width="1440" height="560" x="0" y="0" fill="url(#SvgjsLinearGradient1326)"></rect><path d="M-89.37 359.09L-89.37 359.09" stroke="rgba(50, 20, 112, 1)" stroke-width="1.5"></path><path d="M-89.37 359.09L-52.45 488.72" stroke="rgba(50, 20, 112, 1)" stroke-width="1.5"></path><path d="M-89.37 359.09L59.81 346.82" stroke="rgba(50, 20, 112, 1)" stroke-width="1.5"></path><path d="M-89.37 359.09L97 534.78" stroke="rgba(50, 20, 112, 1)" stroke-width="1.5"></path><path d="M-89.37 359.09L197.83 343.22" stroke="rgba(50, 20, 112, 1)" stroke-width="1.5"></path><path d="M-89.37 359.09L-72.43 660.11" stroke="rgba(50, 20, 112, 1)" stroke-width="1.5"></path><path d="M-52.45 488.72L-52.45 488.72" stroke="rgba(50, 20, 112, 1)" stroke-width="1.5"></path><path d="M-52.45 488.72L97 534.78" stroke="rgba(50, 20, 112, 1)" stroke-width="1.5"></path><path d="M-52.45 488.72L-72.43 660.11" stroke="rgba(50, 20, 112, 1)" stroke-width="1.5"></path><path d="M-72.43 660.11L-72.43 660.11" stroke="rgba(50, 20, 112, 1)" stroke-width="1.5"></path><path d="M-72.43 660.11L52.42 676.15" stroke="rgba(50, 20, 112, 1)" stroke-width="1.5"></path><path d="M-72.43 660.11L97 534.78" stroke="rgba(50, 20, 112, 1)" stroke-width="1.5"></path><path d="M59.81 346.82L59.81 346.82" stroke="rgba(50, 20, 112, 1)" stroke-width="1.5"></path><path d="M59.81 346.82L197.83 343.22" stroke="rgba(50, 20, 112, 1)" stroke-width="1.5"></path><path d="M97 534.78L97 534.78" stroke="rgba(50, 20, 112, 1)" stroke-width="1.5"></path><path d="M97 534.78L206.83 553.16" stroke="rgba(50, 20, 112, 1)" stroke-width="1.5"></path><path d="M97 534.78L52.42 676.15" stroke="rgba(50, 20, 112, 1)" stroke-width="1.5"></path><path d="M52.42 676.15L52.42 676.15" stroke="rgba(50, 20, 112, 1)" stroke-width="1.5"></path><path d="M52.42 676.15L221.08 660.87" stroke="rgba(50, 20, 112, 1)" stroke-width="1.5"></path><path d="M52.42 676.15L206.83 553.16" stroke="rgba(50, 20, 112, 1)" stroke-width="1.5"></path><path d="M197.83 343.22L197.83 343.22" stroke="rgba(50, 20, 112, 1)" stroke-width="1.5"></path><path d="M197.83 343.22L346.65 373.05" stroke="rgba(50, 20, 112, 1)" stroke-width="1.5"></path><path d="M197.83 343.22L206.83 553.16" stroke="rgba(50, 20, 112, 1)" stroke-width="1.5"></path><path d="M197.83 343.22L97 534.78" stroke="rgba(50, 20, 112, 1)" stroke-width="1.5"></path><path d="M206.83 553.16L206.83 553.16" stroke="rgba(50, 20, 112, 1)" stroke-width="1.5"></path><path d="M206.83 553.16L221.08 660.87" stroke="rgba(50, 20, 112, 1)" stroke-width="1.5"></path><path d="M221.08 660.87L221.08 660.87" stroke="rgba(50, 20, 112, 1)" stroke-width="1.5"></path><path d="M221.08 660.87L97 534.78" stroke="rgba(50, 20, 112, 1)" stroke-width="1.5"></path><path d="M221.08 660.87L385.82 532.54" stroke="rgba(50, 20, 112, 1)" stroke-width="1.5"></path><path d="M221.08 660.87L490.32 687.53" stroke="rgba(50, 20, 112, 1)" stroke-width="1.5"></path><path d="M221.08 660.87L-72.43 660.11" stroke="rgba(50, 20, 112, 1)" stroke-width="1.5"></path><path d="M346.65 373.05L346.65 373.05" stroke="rgba(50, 20, 112, 1)" stroke-width="1.5"></path><path d="M346.65 373.05L500.4 397.02" stroke="rgba(50, 20, 112, 1)" stroke-width="1.5"></path><path d="M385.82 532.54L385.82 532.54" stroke="rgba(50, 20, 112, 1)" stroke-width="1.5"></path><path d="M385.82 532.54L346.65 373.05" stroke="rgba(50, 20, 112, 1)" stroke-width="1.5"></path><path d="M385.82 532.54L552.77 536.37" stroke="rgba(50, 20, 112, 1)" stroke-width="1.5"></path><path d="M385.82 532.54L500.4 397.02" stroke="rgba(50, 20, 112, 1)" stroke-width="1.5"></path><path d="M385.82 532.54L206.83 553.16" stroke="rgba(50, 20, 112, 1)" stroke-width="1.5"></path><path d="M500.4 397.02L500.4 397.02" stroke="rgba(50, 20, 112, 1)" stroke-width="1.5"></path><path d="M500.4 397.02L552.77 536.37" stroke="rgba(50, 20, 112, 1)" stroke-width="1.5"></path><path d="M552.77 536.37L552.77 536.37" stroke="rgba(50, 20, 112, 1)" stroke-width="1.5"></path><path d="M552.77 536.37L703.21 504.2" stroke="rgba(50, 20, 112, 1)" stroke-width="1.5"></path><path d="M490.32 687.53L490.32 687.53" stroke="rgba(50, 20, 112, 1)" stroke-width="1.5"></path><path d="M490.32 687.53L552.77 536.37" stroke="rgba(50, 20, 112, 1)" stroke-width="1.5"></path><path d="M490.32 687.53L669.8 654.29" stroke="rgba(50, 20, 112, 1)" stroke-width="1.5"></path><path d="M671.49 213.61L671.49 213.61" stroke="rgba(50, 20, 112, 1)" stroke-width="1.5"></path><path d="M671.49 213.61L707.7 362.53" stroke="rgba(50, 20, 112, 1)" stroke-width="1.5"></path><path d="M671.49 213.61L810.44 359.64" stroke="rgba(50, 20, 112, 1)" stroke-width="1.5"></path><path d="M671.49 213.61L500.4 397.02" stroke="rgba(50, 20, 112, 1)" stroke-width="1.5"></path><path d="M671.49 213.61L703.21 504.2" stroke="rgba(50, 20, 112, 1)" stroke-width="1.5"></path><path d="M671.49 213.61L994.39 189.56" stroke="rgba(50, 20, 112, 1)" stroke-width="1.5"></path><path d="M671.49 213.61L552.77 536.37" stroke="rgba(50, 20, 112, 1)" stroke-width="1.5"></path><path d="M707.7 362.53L707.7 362.53" stroke="rgba(50, 20, 112, 1)" stroke-width="1.5"></path><path d="M707.7 362.53L810.44 359.64" stroke="rgba(50, 20, 112, 1)" stroke-width="1.5"></path><path d="M707.7 362.53L703.21 504.2" stroke="rgba(50, 20, 112, 1)" stroke-width="1.5"></path><path d="M707.7 362.53L500.4 397.02" stroke="rgba(50, 20, 112, 1)" stroke-width="1.5"></path><path d="M703.21 504.2L703.21 504.2" stroke="rgba(50, 20, 112, 1)" stroke-width="1.5"></path><path d="M703.21 504.2L793.21 554.81" stroke="rgba(50, 20, 112, 1)" stroke-width="1.5"></path><path d="M669.8 654.29L669.8 654.29" stroke="rgba(50, 20, 112, 1)" stroke-width="1.5"></path><path d="M669.8 654.29L703.21 504.2" stroke="rgba(50, 20, 112, 1)" stroke-width="1.5"></path><path d="M669.8 654.29L793.21 554.81" stroke="rgba(50, 20, 112, 1)" stroke-width="1.5"></path><path d="M810.44 359.64L810.44 359.64" stroke="rgba(50, 20, 112, 1)" stroke-width="1.5"></path><path d="M810.44 359.64L703.21 504.2" stroke="rgba(50, 20, 112, 1)" stroke-width="1.5"></path><path d="M810.44 359.64L793.21 554.81" stroke="rgba(50, 20, 112, 1)" stroke-width="1.5"></path><path d="M793.21 554.81L793.21 554.81" stroke="rgba(50, 20, 112, 1)" stroke-width="1.5"></path><path d="M793.21 554.81L835.34 682.51" stroke="rgba(50, 20, 112, 1)" stroke-width="1.5"></path><path d="M793.21 554.81L986.62 504.2" stroke="rgba(50, 20, 112, 1)" stroke-width="1.5"></path><path d="M835.34 682.51L835.34 682.51" stroke="rgba(50, 20, 112, 1)" stroke-width="1.5"></path><path d="M835.34 682.51L669.8 654.29" stroke="rgba(50, 20, 112, 1)" stroke-width="1.5"></path><path d="M835.34 682.51L1011.39 654.59" stroke="rgba(50, 20, 112, 1)" stroke-width="1.5"></path><path d="M835.34 682.51L703.21 504.2" stroke="rgba(50, 20, 112, 1)" stroke-width="1.5"></path><path d="M835.34 682.51L986.62 504.2" stroke="rgba(50, 20, 112, 1)" stroke-width="1.5"></path><path d="M953.27 -45.73L953.27 -45.73" stroke="rgba(50, 20, 112, 1)" stroke-width="1.5"></path><path d="M953.27 -45.73L995.07 73.24" stroke="rgba(50, 20, 112, 1)" stroke-width="1.5"></path><path d="M995.07 73.24L995.07 73.24" stroke="rgba(50, 20, 112, 1)" stroke-width="1.5"></path><path d="M995.07 73.24L994.39 189.56" stroke="rgba(50, 20, 112, 1)" stroke-width="1.5"></path><path d="M994.39 189.56L994.39 189.56" stroke="rgba(50, 20, 112, 1)" stroke-width="1.5"></path><path d="M994.39 189.56L1134.18 214.94" stroke="rgba(50, 20, 112, 1)" stroke-width="1.5"></path><path d="M986.62 504.2L986.62 504.2" stroke="rgba(50, 20, 112, 1)" stroke-width="1.5"></path><path d="M986.62 504.2L1109.27 488.87" stroke="rgba(50, 20, 112, 1)" stroke-width="1.5"></path><path d="M986.62 504.2L1011.39 654.59" stroke="rgba(50, 20, 112, 1)" stroke-width="1.5"></path><path d="M1011.39 654.59L1011.39 654.59" stroke="rgba(50, 20, 112, 1)" stroke-width="1.5"></path><path d="M1011.39 654.59L1088.07 693.48" stroke="rgba(50, 20, 112, 1)" stroke-width="1.5"></path><path d="M1011.39 654.59L1109.27 488.87" stroke="rgba(50, 20, 112, 1)" stroke-width="1.5"></path><path d="M1011.39 654.59L793.21 554.81" stroke="rgba(50, 20, 112, 1)" stroke-width="1.5"></path><path d="M1011.39 654.59L1263.31 708.97" stroke="rgba(50, 20, 112, 1)" stroke-width="1.5"></path><path d="M1087.77 -61.47L1087.77 -61.47" stroke="rgba(50, 20, 112, 1)" stroke-width="1.5"></path><path d="M1087.77 -61.47L1118.67 40.79" stroke="rgba(50, 20, 112, 1)" stroke-width="1.5"></path><path d="M1087.77 -61.47L953.27 -45.73" stroke="rgba(50, 20, 112, 1)" stroke-width="1.5"></path><path d="M1118.67 40.79L1118.67 40.79" stroke="rgba(50, 20, 112, 1)" stroke-width="1.5"></path><path d="M1118.67 40.79L995.07 73.24" stroke="rgba(50, 20, 112, 1)" stroke-width="1.5"></path><path d="M1134.18 214.94L1134.18 214.94" stroke="rgba(50, 20, 112, 1)" stroke-width="1.5"></path><path d="M1134.18 214.94L1298.85 226.17" stroke="rgba(50, 20, 112, 1)" stroke-width="1.5"></path><path d="M1134.18 214.94L1242.02 85.89" stroke="rgba(50, 20, 112, 1)" stroke-width="1.5"></path><path d="M1134.18 214.94L1156.33 386.3" stroke="rgba(50, 20, 112, 1)" stroke-width="1.5"></path><path d="M1134.18 214.94L1118.67 40.79" stroke="rgba(50, 20, 112, 1)" stroke-width="1.5"></path><path d="M1134.18 214.94L1247.97 361.29" stroke="rgba(50, 20, 112, 1)" stroke-width="1.5"></path><path d="M1156.33 386.3L1156.33 386.3" stroke="rgba(50, 20, 112, 1)" stroke-width="1.5"></path><path d="M1156.33 386.3L1247.97 361.29" stroke="rgba(50, 20, 112, 1)" stroke-width="1.5"></path><path d="M1156.33 386.3L1109.27 488.87" stroke="rgba(50, 20, 112, 1)" stroke-width="1.5"></path><path d="M1109.27 488.87L1109.27 488.87" stroke="rgba(50, 20, 112, 1)" stroke-width="1.5"></path><path d="M1109.27 488.87L1247.97 361.29" stroke="rgba(50, 20, 112, 1)" stroke-width="1.5"></path><path d="M1088.07 693.48L1088.07 693.48" stroke="rgba(50, 20, 112, 1)" stroke-width="1.5"></path><path d="M1088.07 693.48L1263.31 708.97" stroke="rgba(50, 20, 112, 1)" stroke-width="1.5"></path><path d="M1088.07 693.48L1109.27 488.87" stroke="rgba(50, 20, 112, 1)" stroke-width="1.5"></path><path d="M1242.02 85.89L1242.02 85.89" stroke="rgba(50, 20, 112, 1)" stroke-width="1.5"></path><path d="M1242.02 85.89L1118.67 40.79" stroke="rgba(50, 20, 112, 1)" stroke-width="1.5"></path><path d="M1242.02 85.89L1388.84 49.41" stroke="rgba(50, 20, 112, 1)" stroke-width="1.5"></path><path d="M1242.02 85.89L1298.85 226.17" stroke="rgba(50, 20, 112, 1)" stroke-width="1.5"></path><path d="M1242.02 85.89L1087.77 -61.47" stroke="rgba(50, 20, 112, 1)" stroke-width="1.5"></path><path d="M1298.85 226.17L1298.85 226.17" stroke="rgba(50, 20, 112, 1)" stroke-width="1.5"></path><path d="M1298.85 226.17L1247.97 361.29" stroke="rgba(50, 20, 112, 1)" stroke-width="1.5"></path><path d="M1298.85 226.17L1415.19 341.3" stroke="rgba(50, 20, 112, 1)" stroke-width="1.5"></path><path d="M1247.97 361.29L1247.97 361.29" stroke="rgba(50, 20, 112, 1)" stroke-width="1.5"></path><path d="M1247.97 361.29L1415.19 341.3" stroke="rgba(50, 20, 112, 1)" stroke-width="1.5"></path><path d="M1247.97 361.29L1296.95 547.54" stroke="rgba(50, 20, 112, 1)" stroke-width="1.5"></path><path d="M1296.95 547.54L1296.95 547.54" stroke="rgba(50, 20, 112, 1)" stroke-width="1.5"></path><path d="M1296.95 547.54L1416.06 506.45" stroke="rgba(50, 20, 112, 1)" stroke-width="1.5"></path><path d="M1296.95 547.54L1263.31 708.97" stroke="rgba(50, 20, 112, 1)" stroke-width="1.5"></path><path d="M1263.31 708.97L1263.31 708.97" stroke="rgba(50, 20, 112, 1)" stroke-width="1.5"></path><path d="M1432.15 -103.33L1432.15 -103.33" stroke="rgba(50, 20, 112, 1)" stroke-width="1.5"></path><path d="M1432.15 -103.33L1388.84 49.41" stroke="rgba(50, 20, 112, 1)" stroke-width="1.5"></path><path d="M1432.15 -103.33L1598.69 -95.79" stroke="rgba(50, 20, 112, 1)" stroke-width="1.5"></path><path d="M1432.15 -103.33L1568.82 92.25" stroke="rgba(50, 20, 112, 1)" stroke-width="1.5"></path><path d="M1388.84 49.41L1388.84 49.41" stroke="rgba(50, 20, 112, 1)" stroke-width="1.5"></path><path d="M1388.84 49.41L1568.82 92.25" stroke="rgba(50, 20, 112, 1)" stroke-width="1.5"></path><path d="M1415.19 341.3L1415.19 341.3" stroke="rgba(50, 20, 112, 1)" stroke-width="1.5"></path><path d="M1415.19 341.3L1543.7 337.66" stroke="rgba(50, 20, 112, 1)" stroke-width="1.5"></path><path d="M1416.06 506.45L1416.06 506.45" stroke="rgba(50, 20, 112, 1)" stroke-width="1.5"></path><path d="M1416.06 506.45L1415.19 341.3" stroke="rgba(50, 20, 112, 1)" stroke-width="1.5"></path><path d="M1416.06 506.45L1442.48 681.09" stroke="rgba(50, 20, 112, 1)" stroke-width="1.5"></path><path d="M1416.06 506.45L1601.73 556.12" stroke="rgba(50, 20, 112, 1)" stroke-width="1.5"></path><path d="M1442.48 681.09L1442.48 681.09" stroke="rgba(50, 20, 112, 1)" stroke-width="1.5"></path><path d="M1442.48 681.09L1609.03 654.05" stroke="rgba(50, 20, 112, 1)" stroke-width="1.5"></path><path d="M1442.48 681.09L1263.31 708.97" stroke="rgba(50, 20, 112, 1)" stroke-width="1.5"></path><path d="M1598.69 -95.79L1598.69 -95.79" stroke="rgba(50, 20, 112, 1)" stroke-width="1.5"></path><path d="M1598.69 -95.79L1568.82 92.25" stroke="rgba(50, 20, 112, 1)" stroke-width="1.5"></path><path d="M1568.82 92.25L1568.82 92.25" stroke="rgba(50, 20, 112, 1)" stroke-width="1.5"></path><path d="M1568.82 92.25L1580.81 210.89" stroke="rgba(50, 20, 112, 1)" stroke-width="1.5"></path><path d="M1580.81 210.89L1580.81 210.89" stroke="rgba(50, 20, 112, 1)" stroke-width="1.5"></path><path d="M1580.81 210.89L1543.7 337.66" stroke="rgba(50, 20, 112, 1)" stroke-width="1.5"></path><path d="M1580.81 210.89L1415.19 341.3" stroke="rgba(50, 20, 112, 1)" stroke-width="1.5"></path><path d="M1580.81 210.89L1388.84 49.41" stroke="rgba(50, 20, 112, 1)" stroke-width="1.5"></path><path d="M1543.7 337.66L1543.7 337.66" stroke="rgba(50, 20, 112, 1)" stroke-width="1.5"></path><path d="M1601.73 556.12L1601.73 556.12" stroke="rgba(50, 20, 112, 1)" stroke-width="1.5"></path><path d="M1601.73 556.12L1609.03 654.05" stroke="rgba(50, 20, 112, 1)" stroke-width="1.5"></path><path d="M1601.73 556.12L1442.48 681.09" stroke="rgba(50, 20, 112, 1)" stroke-width="1.5"></path><path d="M1601.73 556.12L1543.7 337.66" stroke="rgba(50, 20, 112, 1)" stroke-width="1.5"></path><path d="M1601.73 556.12L1415.19 341.3" stroke="rgba(50, 20, 112, 1)" stroke-width="1.5"></path><path d="M1601.73 556.12L1296.95 547.54" stroke="rgba(50, 20, 112, 1)" stroke-width="1.5"></path><path d="M1609.03 654.05L1609.03 654.05" stroke="rgba(50, 20, 112, 1)" stroke-width="1.5"></path><path d="M1609.03 654.05L1416.06 506.45" stroke="rgba(50, 20, 112, 1)" stroke-width="1.5"></path><circle r="5" cx="-89.37" cy="359.09" fill="rgba(50, 20, 112, 1)"></circle><circle r="5" cx="-52.45" cy="488.72" fill="rgba(50, 20, 112, 1)"></circle><circle r="5" cx="-72.43" cy="660.11" fill="rgba(50, 20, 112, 1)"></circle><circle r="5" cx="59.81" cy="346.82" fill="rgba(50, 20, 112, 1)"></circle><circle r="5" cx="97" cy="534.78" fill="rgba(50, 20, 112, 1)"></circle><circle r="5" cx="52.42" cy="676.15" fill="rgba(50, 20, 112, 1)"></circle><circle r="5" cx="197.83" cy="343.22" fill="rgba(50, 20, 112, 1)"></circle><circle r="5" cx="206.83" cy="553.16" fill="rgba(50, 20, 112, 1)"></circle><circle r="5" cx="221.08" cy="660.87" fill="rgba(50, 20, 112, 1)"></circle><circle r="5" cx="346.65" cy="373.05" fill="rgba(50, 20, 112, 1)"></circle><circle r="5" cx="385.82" cy="532.54" fill="rgba(50, 20, 112, 1)"></circle><circle r="5" cx="500.4" cy="397.02" fill="rgba(50, 20, 112, 1)"></circle><circle r="5" cx="552.77" cy="536.37" fill="rgba(50, 20, 112, 1)"></circle><circle r="5" cx="490.32" cy="687.53" fill="rgba(50, 20, 112, 1)"></circle><circle r="5" cx="671.49" cy="213.61" fill="rgba(50, 20, 112, 1)"></circle><circle r="5" cx="707.7" cy="362.53" fill="rgba(50, 20, 112, 1)"></circle><circle r="5" cx="703.21" cy="504.2" fill="rgba(50, 20, 112, 1)"></circle><circle r="5" cx="669.8" cy="654.29" fill="rgba(50, 20, 112, 1)"></circle><circle r="5" cx="810.44" cy="359.64" fill="rgba(50, 20, 112, 1)"></circle><circle r="5" cx="793.21" cy="554.81" fill="rgba(50, 20, 112, 1)"></circle><circle r="5" cx="835.34" cy="682.51" fill="rgba(50, 20, 112, 1)"></circle><circle r="5" cx="953.27" cy="-45.73" fill="rgba(50, 20, 112, 1)"></circle><circle r="5" cx="995.07" cy="73.24" fill="rgba(50, 20, 112, 1)"></circle><circle r="5" cx="994.39" cy="189.56" fill="rgba(50, 20, 112, 1)"></circle><circle r="5" cx="986.62" cy="504.2" fill="rgba(50, 20, 112, 1)"></circle><circle r="5" cx="1011.39" cy="654.59" fill="rgba(50, 20, 112, 1)"></circle><circle r="5" cx="1087.77" cy="-61.47" fill="rgba(50, 20, 112, 1)"></circle><circle r="5" cx="1118.67" cy="40.79" fill="rgba(50, 20, 112, 1)"></circle><circle r="5" cx="1134.18" cy="214.94" fill="rgba(50, 20, 112, 1)"></circle><circle r="5" cx="1156.33" cy="386.3" fill="rgba(50, 20, 112, 1)"></circle><circle r="5" cx="1109.27" cy="488.87" fill="rgba(50, 20, 112, 1)"></circle><circle r="5" cx="1088.07" cy="693.48" fill="rgba(50, 20, 112, 1)"></circle><circle r="5" cx="1242.02" cy="85.89" fill="rgba(50, 20, 112, 1)"></circle><circle r="5" cx="1298.85" cy="226.17" fill="rgba(50, 20, 112, 1)"></circle><circle r="5" cx="1247.97" cy="361.29" fill="rgba(50, 20, 112, 1)"></circle><circle r="5" cx="1296.95" cy="547.54" fill="rgba(50, 20, 112, 1)"></circle><circle r="5" cx="1263.31" cy="708.97" fill="rgba(50, 20, 112, 1)"></circle><circle r="5" cx="1432.15" cy="-103.33" fill="rgba(50, 20, 112, 1)"></circle><circle r="5" cx="1388.84" cy="49.41" fill="rgba(50, 20, 112, 1)"></circle><circle r="5" cx="1415.19" cy="341.3" fill="rgba(50, 20, 112, 1)"></circle><circle r="5" cx="1416.06" cy="506.45" fill="rgba(50, 20, 112, 1)"></circle><circle r="5" cx="1442.48" cy="681.09" fill="rgba(50, 20, 112, 1)"></circle><circle r="5" cx="1598.69" cy="-95.79" fill="rgba(50, 20, 112, 1)"></circle><circle r="5" cx="1568.82" cy="92.25" fill="rgba(50, 20, 112, 1)"></circle><circle r="5" cx="1580.81" cy="210.89" fill="rgba(50, 20, 112, 1)"></circle><circle r="5" cx="1543.7" cy="337.66" fill="rgba(50, 20, 112, 1)"></circle><circle r="5" cx="1601.73" cy="556.12" fill="rgba(50, 20, 112, 1)"></circle><circle r="5" cx="1609.03" cy="654.05" fill="rgba(50, 20, 112, 1)"></circle><path d="M-85.5 689.86L-85.5 689.86" stroke="hsl(270, 100%, 77.5%)" stroke-width="1.5"></path><path d="M-85.5 689.86L102.9 684.55" stroke="hsl(270, 100%, 77.5%)" stroke-width="1.5"></path><path d="M-85.5 689.86L-105.69 488.09" stroke="hsl(270, 100%, 77.5%)" stroke-width="1.5"></path><path d="M91.48 515.25L91.48 515.25" stroke="hsl(270, 100%, 77.5%)" stroke-width="1.5"></path><path d="M91.48 515.25L254.72 517.06" stroke="hsl(270, 100%, 77.5%)" stroke-width="1.5"></path><path d="M91.48 515.25L102.9 684.55" stroke="hsl(270, 100%, 77.5%)" stroke-width="1.5"></path><path d="M91.48 515.25L-105.69 488.09" stroke="hsl(270, 100%, 77.5%)" stroke-width="1.5"></path><path d="M91.48 515.25L254.13 667.46" stroke="hsl(270, 100%, 77.5%)" stroke-width="1.5"></path><path d="M91.48 515.25L-85.5 689.86" stroke="hsl(270, 100%, 77.5%)" stroke-width="1.5"></path><path d="M91.48 515.25L349.28 560.76" stroke="hsl(270, 100%, 77.5%)" stroke-width="1.5"></path><path d="M254.13 667.46L254.13 667.46" stroke="hsl(270, 100%, 77.5%)" stroke-width="1.5"></path><path d="M254.13 667.46L349.28 560.76" stroke="hsl(270, 100%, 77.5%)" stroke-width="1.5"></path><path d="M254.13 667.46L254.72 517.06" stroke="hsl(270, 100%, 77.5%)" stroke-width="1.5"></path><path d="M254.13 667.46L102.9 684.55" stroke="hsl(270, 100%, 77.5%)" stroke-width="1.5"></path><path d="M409.07 669.85L409.07 669.85" stroke="hsl(270, 100%, 77.5%)" stroke-width="1.5"></path><path d="M409.07 669.85L488.71 710.34" stroke="hsl(270, 100%, 77.5%)" stroke-width="1.5"></path><path d="M409.07 669.85L349.28 560.76" stroke="hsl(270, 100%, 77.5%)" stroke-width="1.5"></path><path d="M409.07 669.85L254.13 667.46" stroke="hsl(270, 100%, 77.5%)" stroke-width="1.5"></path><path d="M409.07 669.85L507.66 498.82" stroke="hsl(270, 100%, 77.5%)" stroke-width="1.5"></path><path d="M409.07 669.85L254.72 517.06" stroke="hsl(270, 100%, 77.5%)" stroke-width="1.5"></path><path d="M662.33 522.16L662.33 522.16" stroke="hsl(270, 100%, 77.5%)" stroke-width="1.5"></path><path d="M662.33 522.16L800.55 510.04" stroke="hsl(270, 100%, 77.5%)" stroke-width="1.5"></path><path d="M662.33 522.16L643.1 672.31" stroke="hsl(270, 100%, 77.5%)" stroke-width="1.5"></path><path d="M662.33 522.16L507.66 498.82" stroke="hsl(270, 100%, 77.5%)" stroke-width="1.5"></path><path d="M1304.24 84.7L1304.24 84.7" stroke="hsl(270, 100%, 77.5%)" stroke-width="1.5"></path><path d="M1304.24 84.7L1298.97 205.39" stroke="hsl(270, 100%, 77.5%)" stroke-width="1.5"></path><path d="M1304.24 84.7L1447.97 112.26" stroke="hsl(270, 100%, 77.5%)" stroke-width="1.5"></path><path d="M1304.24 84.7L1153.05 69.89" stroke="hsl(270, 100%, 77.5%)" stroke-width="1.5"></path><path d="M1304.24 84.7L1261.25 -89.94" stroke="hsl(270, 100%, 77.5%)" stroke-width="1.5"></path><path d="M1305.13 409.18L1305.13 409.18" stroke="hsl(270, 100%, 77.5%)" stroke-width="1.5"></path><path d="M1305.13 409.18L1454.49 370.44" stroke="hsl(270, 100%, 77.5%)" stroke-width="1.5"></path><path d="M1305.13 409.18L1392.44 560.97" stroke="hsl(270, 100%, 77.5%)" stroke-width="1.5"></path><path d="M1305.13 409.18L1425.28 252.98" stroke="hsl(270, 100%, 77.5%)" stroke-width="1.5"></path><path d="M1305.13 409.18L1107.06 389.54" stroke="hsl(270, 100%, 77.5%)" stroke-width="1.5"></path><path d="M1433.39 -42.11L1433.39 -42.11" stroke="hsl(270, 100%, 77.5%)" stroke-width="1.5"></path><path d="M1433.39 -42.11L1546.8 -66.89" stroke="hsl(270, 100%, 77.5%)" stroke-width="1.5"></path><path d="M1433.39 -42.11L1447.97 112.26" stroke="hsl(270, 100%, 77.5%)" stroke-width="1.5"></path><path d="M1447.97 112.26L1447.97 112.26" stroke="hsl(270, 100%, 77.5%)" stroke-width="1.5"></path><path d="M1447.97 112.26L1570.23 42.05" stroke="hsl(270, 100%, 77.5%)" stroke-width="1.5"></path><path d="M1447.97 112.26L1425.28 252.98" stroke="hsl(270, 100%, 77.5%)" stroke-width="1.5"></path><path d="M1447.97 112.26L1298.97 205.39" stroke="hsl(270, 100%, 77.5%)" stroke-width="1.5"></path><path d="M1454.49 370.44L1454.49 370.44" stroke="hsl(270, 100%, 77.5%)" stroke-width="1.5"></path><path d="M1454.49 370.44L1425.28 252.98" stroke="hsl(270, 100%, 77.5%)" stroke-width="1.5"></path><path d="M1454.49 370.44L1587.69 347.47" stroke="hsl(270, 100%, 77.5%)" stroke-width="1.5"></path><path d="M1454.49 370.44L1546.29 537.76" stroke="hsl(270, 100%, 77.5%)" stroke-width="1.5"></path><path d="M1546.29 537.76L1546.29 537.76" stroke="hsl(270, 100%, 77.5%)" stroke-width="1.5"></path><path d="M1546.29 537.76L1553.37 678.85" stroke="hsl(270, 100%, 77.5%)" stroke-width="1.5"></path><path d="M1546.29 537.76L1392.44 560.97" stroke="hsl(270, 100%, 77.5%)" stroke-width="1.5"></path><path d="M1546.29 537.76L1413.66 642.06" stroke="hsl(270, 100%, 77.5%)" stroke-width="1.5"></path><path d="M-105.69 488.09L-105.69 488.09" stroke="hsl(270, 100%, 77.5%)" stroke-width="1.5"></path><path d="M-105.69 488.09L102.9 684.55" stroke="hsl(270, 100%, 77.5%)" stroke-width="1.5"></path><path d="M-105.69 488.09L254.72 517.06" stroke="hsl(270, 100%, 77.5%)" stroke-width="1.5"></path><path d="M-105.69 488.09L254.13 667.46" stroke="hsl(270, 100%, 77.5%)" stroke-width="1.5"></path><path d="M102.9 684.55L102.9 684.55" stroke="hsl(270, 100%, 77.5%)" stroke-width="1.5"></path><path d="M102.9 684.55L254.72 517.06" stroke="hsl(270, 100%, 77.5%)" stroke-width="1.5"></path><path d="M102.9 684.55L349.28 560.76" stroke="hsl(270, 100%, 77.5%)" stroke-width="1.5"></path><path d="M254.72 517.06L254.72 517.06" stroke="hsl(270, 100%, 77.5%)" stroke-width="1.5"></path><path d="M254.72 517.06L349.28 560.76" stroke="hsl(270, 100%, 77.5%)" stroke-width="1.5"></path><path d="M349.28 560.76L349.28 560.76" stroke="hsl(270, 100%, 77.5%)" stroke-width="1.5"></path><path d="M507.66 498.82L507.66 498.82" stroke="hsl(270, 100%, 77.5%)" stroke-width="1.5"></path><path d="M507.66 498.82L349.28 560.76" stroke="hsl(270, 100%, 77.5%)" stroke-width="1.5"></path><path d="M507.66 498.82L488.71 710.34" stroke="hsl(270, 100%, 77.5%)" stroke-width="1.5"></path><path d="M488.71 710.34L488.71 710.34" stroke="hsl(270, 100%, 77.5%)" stroke-width="1.5"></path><path d="M643.1 672.31L643.1 672.31" stroke="hsl(270, 100%, 77.5%)" stroke-width="1.5"></path><path d="M643.1 672.31L488.71 710.34" stroke="hsl(270, 100%, 77.5%)" stroke-width="1.5"></path><path d="M643.1 672.31L507.66 498.82" stroke="hsl(270, 100%, 77.5%)" stroke-width="1.5"></path><path d="M643.1 672.31L800.55 510.04" stroke="hsl(270, 100%, 77.5%)" stroke-width="1.5"></path><path d="M643.1 672.31L409.07 669.85" stroke="hsl(270, 100%, 77.5%)" stroke-width="1.5"></path><path d="M643.1 672.31L349.28 560.76" stroke="hsl(270, 100%, 77.5%)" stroke-width="1.5"></path><path d="M843.3 341.75L843.3 341.75" stroke="hsl(270, 100%, 77.5%)" stroke-width="1.5"></path><path d="M843.3 341.75L1000.47 393.99" stroke="hsl(270, 100%, 77.5%)" stroke-width="1.5"></path><path d="M843.3 341.75L800.55 510.04" stroke="hsl(270, 100%, 77.5%)" stroke-width="1.5"></path><path d="M800.55 510.04L800.55 510.04" stroke="hsl(270, 100%, 77.5%)" stroke-width="1.5"></path><path d="M800.55 510.04L1004.1 496.21" stroke="hsl(270, 100%, 77.5%)" stroke-width="1.5"></path><path d="M800.55 510.04L1000.47 393.99" stroke="hsl(270, 100%, 77.5%)" stroke-width="1.5"></path><path d="M800.55 510.04L973.95 707.92" stroke="hsl(270, 100%, 77.5%)" stroke-width="1.5"></path><path d="M1000.47 393.99L1000.47 393.99" stroke="hsl(270, 100%, 77.5%)" stroke-width="1.5"></path><path d="M1000.47 393.99L1004.1 496.21" stroke="hsl(270, 100%, 77.5%)" stroke-width="1.5"></path><path d="M1004.1 496.21L1004.1 496.21" stroke="hsl(270, 100%, 77.5%)" stroke-width="1.5"></path><path d="M1004.1 496.21L1089.43 544.28" stroke="hsl(270, 100%, 77.5%)" stroke-width="1.5"></path><path d="M973.95 707.92L973.95 707.92" stroke="hsl(270, 100%, 77.5%)" stroke-width="1.5"></path><path d="M973.95 707.92L1154.98 708.75" stroke="hsl(270, 100%, 77.5%)" stroke-width="1.5"></path><path d="M973.95 707.92L1089.43 544.28" stroke="hsl(270, 100%, 77.5%)" stroke-width="1.5"></path><path d="M973.95 707.92L1004.1 496.21" stroke="hsl(270, 100%, 77.5%)" stroke-width="1.5"></path><path d="M973.95 707.92L1000.47 393.99" stroke="hsl(270, 100%, 77.5%)" stroke-width="1.5"></path><path d="M973.95 707.92L643.1 672.31" stroke="hsl(270, 100%, 77.5%)" stroke-width="1.5"></path><path d="M1153.05 69.89L1153.05 69.89" stroke="hsl(270, 100%, 77.5%)" stroke-width="1.5"></path><path d="M1153.05 69.89L1111.15 194.74" stroke="hsl(270, 100%, 77.5%)" stroke-width="1.5"></path><path d="M1153.05 69.89L1261.25 -89.94" stroke="hsl(270, 100%, 77.5%)" stroke-width="1.5"></path><path d="M1153.05 69.89L1298.97 205.39" stroke="hsl(270, 100%, 77.5%)" stroke-width="1.5"></path><path d="M1153.05 69.89L1447.97 112.26" stroke="hsl(270, 100%, 77.5%)" stroke-width="1.5"></path><path d="M1111.15 194.74L1111.15 194.74" stroke="hsl(270, 100%, 77.5%)" stroke-width="1.5"></path><path d="M1111.15 194.74L1298.97 205.39" stroke="hsl(270, 100%, 77.5%)" stroke-width="1.5"></path><path d="M1111.15 194.74L1107.06 389.54" stroke="hsl(270, 100%, 77.5%)" stroke-width="1.5"></path><path d="M1111.15 194.74L1304.24 84.7" stroke="hsl(270, 100%, 77.5%)" stroke-width="1.5"></path><path d="M1111.15 194.74L1000.47 393.99" stroke="hsl(270, 100%, 77.5%)" stroke-width="1.5"></path><path d="M1107.06 389.54L1107.06 389.54" stroke="hsl(270, 100%, 77.5%)" stroke-width="1.5"></path><path d="M1107.06 389.54L1000.47 393.99" stroke="hsl(270, 100%, 77.5%)" stroke-width="1.5"></path><path d="M1107.06 389.54L1004.1 496.21" stroke="hsl(270, 100%, 77.5%)" stroke-width="1.5"></path><path d="M1107.06 389.54L1089.43 544.28" stroke="hsl(270, 100%, 77.5%)" stroke-width="1.5"></path><path d="M1089.43 544.28L1089.43 544.28" stroke="hsl(270, 100%, 77.5%)" stroke-width="1.5"></path><path d="M1089.43 544.28L1000.47 393.99" stroke="hsl(270, 100%, 77.5%)" stroke-width="1.5"></path><path d="M1089.43 544.28L1154.98 708.75" stroke="hsl(270, 100%, 77.5%)" stroke-width="1.5"></path><path d="M1154.98 708.75L1154.98 708.75" stroke="hsl(270, 100%, 77.5%)" stroke-width="1.5"></path><path d="M1261.25 -89.94L1261.25 -89.94" stroke="hsl(270, 100%, 77.5%)" stroke-width="1.5"></path><path d="M1261.25 -89.94L1433.39 -42.11" stroke="hsl(270, 100%, 77.5%)" stroke-width="1.5"></path><path d="M1261.25 -89.94L1447.97 112.26" stroke="hsl(270, 100%, 77.5%)" stroke-width="1.5"></path><path d="M1261.25 -89.94L1546.8 -66.89" stroke="hsl(270, 100%, 77.5%)" stroke-width="1.5"></path><path d="M1261.25 -89.94L1298.97 205.39" stroke="hsl(270, 100%, 77.5%)" stroke-width="1.5"></path><path d="M1298.97 205.39L1298.97 205.39" stroke="hsl(270, 100%, 77.5%)" stroke-width="1.5"></path><path d="M1298.97 205.39L1425.28 252.98" stroke="hsl(270, 100%, 77.5%)" stroke-width="1.5"></path><path d="M1425.28 252.98L1425.28 252.98" stroke="hsl(270, 100%, 77.5%)" stroke-width="1.5"></path><path d="M1425.28 252.98L1612.45 239.47" stroke="hsl(270, 100%, 77.5%)" stroke-width="1.5"></path><path d="M1392.44 560.97L1392.44 560.97" stroke="hsl(270, 100%, 77.5%)" stroke-width="1.5"></path><path d="M1392.44 560.97L1413.66 642.06" stroke="hsl(270, 100%, 77.5%)" stroke-width="1.5"></path><path d="M1413.66 642.06L1413.66 642.06" stroke="hsl(270, 100%, 77.5%)" stroke-width="1.5"></path><path d="M1413.66 642.06L1553.37 678.85" stroke="hsl(270, 100%, 77.5%)" stroke-width="1.5"></path><path d="M1413.66 642.06L1305.13 409.18" stroke="hsl(270, 100%, 77.5%)" stroke-width="1.5"></path><path d="M1413.66 642.06L1154.98 708.75" stroke="hsl(270, 100%, 77.5%)" stroke-width="1.5"></path><path d="M1546.8 -66.89L1546.8 -66.89" stroke="hsl(270, 100%, 77.5%)" stroke-width="1.5"></path><path d="M1546.8 -66.89L1570.23 42.05" stroke="hsl(270, 100%, 77.5%)" stroke-width="1.5"></path><path d="M1546.8 -66.89L1447.97 112.26" stroke="hsl(270, 100%, 77.5%)" stroke-width="1.5"></path><path d="M1546.8 -66.89L1304.24 84.7" stroke="hsl(270, 100%, 77.5%)" stroke-width="1.5"></path><path d="M1570.23 42.05L1570.23 42.05" stroke="hsl(270, 100%, 77.5%)" stroke-width="1.5"></path><path d="M1570.23 42.05L1433.39 -42.11" stroke="hsl(270, 100%, 77.5%)" stroke-width="1.5"></path><path d="M1570.23 42.05L1612.45 239.47" stroke="hsl(270, 100%, 77.5%)" stroke-width="1.5"></path><path d="M1570.23 42.05L1425.28 252.98" stroke="hsl(270, 100%, 77.5%)" stroke-width="1.5"></path><path d="M1570.23 42.05L1304.24 84.7" stroke="hsl(270, 100%, 77.5%)" stroke-width="1.5"></path><path d="M1612.45 239.47L1612.45 239.47" stroke="hsl(270, 100%, 77.5%)" stroke-width="1.5"></path><path d="M1612.45 239.47L1587.69 347.47" stroke="hsl(270, 100%, 77.5%)" stroke-width="1.5"></path><path d="M1612.45 239.47L1454.49 370.44" stroke="hsl(270, 100%, 77.5%)" stroke-width="1.5"></path><path d="M1612.45 239.47L1447.97 112.26" stroke="hsl(270, 100%, 77.5%)" stroke-width="1.5"></path><path d="M1587.69 347.47L1587.69 347.47" stroke="hsl(270, 100%, 77.5%)" stroke-width="1.5"></path><path d="M1587.69 347.47L1425.28 252.98" stroke="hsl(270, 100%, 77.5%)" stroke-width="1.5"></path><path d="M1587.69 347.47L1546.29 537.76" stroke="hsl(270, 100%, 77.5%)" stroke-width="1.5"></path><path d="M1553.37 678.85L1553.37 678.85" stroke="hsl(270, 100%, 77.5%)" stroke-width="1.5"></path><circle r="25" cx="-85.5" cy="689.86" fill="url(#SvgjsRadialGradient1327)"></circle><circle r="25" cx="91.48" cy="515.25" fill="url(#SvgjsRadialGradient1327)"></circle><circle r="25" cx="254.13" cy="667.46" fill="url(#SvgjsRadialGradient1327)"></circle><circle r="25" cx="409.07" cy="669.85" fill="url(#SvgjsRadialGradient1327)"></circle><circle r="25" cx="662.33" cy="522.16" fill="url(#SvgjsRadialGradient1327)"></circle><circle r="25" cx="1304.24" cy="84.7" fill="url(#SvgjsRadialGradient1327)"></circle><circle r="25" cx="1305.13" cy="409.18" fill="url(#SvgjsRadialGradient1327)"></circle><circle r="25" cx="1433.39" cy="-42.11" fill="url(#SvgjsRadialGradient1327)"></circle><circle r="25" cx="1447.97" cy="112.26" fill="url(#SvgjsRadialGradient1327)"></circle><circle r="25" cx="1454.49" cy="370.44" fill="url(#SvgjsRadialGradient1327)"></circle><circle r="25" cx="1546.29" cy="537.76" fill="url(#SvgjsRadialGradient1327)"></circle><circle r="5" cx="-105.69" cy="488.09" fill="#cc98ff"></circle><circle r="5" cx="102.9" cy="684.55" fill="#cc98ff"></circle><circle r="5" cx="254.72" cy="517.06" fill="#cc98ff"></circle><circle r="5" cx="349.28" cy="560.76" fill="#cc98ff"></circle><circle r="5" cx="507.66" cy="498.82" fill="#cc98ff"></circle><circle r="5" cx="488.71" cy="710.34" fill="#cc98ff"></circle><circle r="5" cx="643.1" cy="672.31" fill="#cc98ff"></circle><circle r="5" cx="843.3" cy="341.75" fill="#cc98ff"></circle><circle r="5" cx="800.55" cy="510.04" fill="#cc98ff"></circle><circle r="5" cx="1000.47" cy="393.99" fill="#cc98ff"></circle><circle r="5" cx="1004.1" cy="496.21" fill="#cc98ff"></circle><circle r="5" cx="973.95" cy="707.92" fill="#cc98ff"></circle><circle r="5" cx="1153.05" cy="69.89" fill="#cc98ff"></circle><circle r="5" cx="1111.15" cy="194.74" fill="#cc98ff"></circle><circle r="5" cx="1107.06" cy="389.54" fill="#cc98ff"></circle><circle r="5" cx="1089.43" cy="544.28" fill="#cc98ff"></circle><circle r="5" cx="1154.98" cy="708.75" fill="#cc98ff"></circle><circle r="5" cx="1261.25" cy="-89.94" fill="#cc98ff"></circle><circle r="5" cx="1298.97" cy="205.39" fill="#cc98ff"></circle><circle r="5" cx="1425.28" cy="252.98" fill="#cc98ff"></circle><circle r="5" cx="1392.44" cy="560.97" fill="#cc98ff"></circle><circle r="5" cx="1413.66" cy="642.06" fill="#cc98ff"></circle><circle r="5" cx="1546.8" cy="-66.89" fill="#cc98ff"></circle><circle r="5" cx="1570.23" cy="42.05" fill="#cc98ff"></circle><circle r="5" cx="1612.45" cy="239.47" fill="#cc98ff"></circle><circle r="5" cx="1587.69" cy="347.47" fill="#cc98ff"></circle><circle r="5" cx="1553.37" cy="678.85" fill="#cc98ff"></circle></g><defs><mask id="SvgjsMask1325"><rect width="1440" height="560" fill="#ffffff"></rect></mask><linearGradient x1="100%" y1="50%" x2="0%" y2="50%" gradientUnits="userSpaceOnUse" id="SvgjsLinearGradient1326"><stop stop-color="rgba(96, 60, 201, 1)" offset="0"></stop><stop stop-color="rgba(204, 91, 236, 1)" offset="1"></stop></linearGradient><radialGradient id="SvgjsRadialGradient1327"><stop stop-color="#ffffff" offset="0.1"></stop><stop stop-color="rgba(152, 49, 255, 1)" offset="0.2"></stop><stop stop-color="rgba(152, 49, 255, 0)" offset="1"></stop></radialGradient></defs></svg>