<svg xmlns="http://www.w3.org/2000/svg" version="1.1" xmlns:xlink="http://www.w3.org/1999/xlink" xmlns:svgjs="http://svgjs.com/svgjs" width="1440" height="560" preserveAspectRatio="none" viewBox="0 0 1440 560"><g mask="url(&quot;#SvgjsMask1319&quot;)" fill="none"><rect width="1440" height="560" x="0" y="0" fill="url(#SvgjsLinearGradient1320)"></rect><path d="M-107.87 351.69L-107.87 351.69" stroke="rgba(50, 20, 112, 1)" stroke-width="1.5"></path><path d="M-107.87 351.69L-54.25 533.37" stroke="rgba(50, 20, 112, 1)" stroke-width="1.5"></path><path d="M-107.87 351.69L40.14 551.03" stroke="rgba(50, 20, 112, 1)" stroke-width="1.5"></path><path d="M-107.87 351.69L208.99 390.1" stroke="rgba(50, 20, 112, 1)" stroke-width="1.5"></path><path d="M-54.25 533.37L-54.25 533.37" stroke="rgba(50, 20, 112, 1)" stroke-width="1.5"></path><path d="M-54.25 533.37L40.14 551.03" stroke="rgba(50, 20, 112, 1)" stroke-width="1.5"></path><path d="M-54.25 533.37L42.02 654.15" stroke="rgba(50, 20, 112, 1)" stroke-width="1.5"></path><path d="M-101.59 707L-101.59 707" stroke="rgba(50, 20, 112, 1)" stroke-width="1.5"></path><path d="M-101.59 707L42.02 654.15" stroke="rgba(50, 20, 112, 1)" stroke-width="1.5"></path><path d="M-101.59 707L-54.25 533.37" stroke="rgba(50, 20, 112, 1)" stroke-width="1.5"></path><path d="M-101.59 707L40.14 551.03" stroke="rgba(50, 20, 112, 1)" stroke-width="1.5"></path><path d="M-101.59 707L209.99 640.04" stroke="rgba(50, 20, 112, 1)" stroke-width="1.5"></path><path d="M-101.59 707L-107.87 351.69" stroke="rgba(50, 20, 112, 1)" stroke-width="1.5"></path><path d="M-101.59 707L236.09 514.61" stroke="rgba(50, 20, 112, 1)" stroke-width="1.5"></path><path d="M40.14 551.03L40.14 551.03" stroke="rgba(50, 20, 112, 1)" stroke-width="1.5"></path><path d="M40.14 551.03L42.02 654.15" stroke="rgba(50, 20, 112, 1)" stroke-width="1.5"></path><path d="M40.14 551.03L209.99 640.04" stroke="rgba(50, 20, 112, 1)" stroke-width="1.5"></path><path d="M40.14 551.03L236.09 514.61" stroke="rgba(50, 20, 112, 1)" stroke-width="1.5"></path><path d="M42.02 654.15L42.02 654.15" stroke="rgba(50, 20, 112, 1)" stroke-width="1.5"></path><path d="M42.02 654.15L209.99 640.04" stroke="rgba(50, 20, 112, 1)" stroke-width="1.5"></path><path d="M208.99 390.1L208.99 390.1" stroke="rgba(50, 20, 112, 1)" stroke-width="1.5"></path><path d="M208.99 390.1L236.09 514.61" stroke="rgba(50, 20, 112, 1)" stroke-width="1.5"></path><path d="M208.99 390.1L341.79 409.44" stroke="rgba(50, 20, 112, 1)" stroke-width="1.5"></path><path d="M208.99 390.1L375.71 509.94" stroke="rgba(50, 20, 112, 1)" stroke-width="1.5"></path><path d="M208.99 390.1L40.14 551.03" stroke="rgba(50, 20, 112, 1)" stroke-width="1.5"></path><path d="M236.09 514.61L236.09 514.61" stroke="rgba(50, 20, 112, 1)" stroke-width="1.5"></path><path d="M236.09 514.61L209.99 640.04" stroke="rgba(50, 20, 112, 1)" stroke-width="1.5"></path><path d="M236.09 514.61L375.71 509.94" stroke="rgba(50, 20, 112, 1)" stroke-width="1.5"></path><path d="M236.09 514.61L341.79 409.44" stroke="rgba(50, 20, 112, 1)" stroke-width="1.5"></path><path d="M209.99 640.04L209.99 640.04" stroke="rgba(50, 20, 112, 1)" stroke-width="1.5"></path><path d="M209.99 640.04L406.27 681.76" stroke="rgba(50, 20, 112, 1)" stroke-width="1.5"></path><path d="M209.99 640.04L375.71 509.94" stroke="rgba(50, 20, 112, 1)" stroke-width="1.5"></path><path d="M209.99 640.04L208.99 390.1" stroke="rgba(50, 20, 112, 1)" stroke-width="1.5"></path><path d="M341.79 409.44L341.79 409.44" stroke="rgba(50, 20, 112, 1)" stroke-width="1.5"></path><path d="M341.79 409.44L375.71 509.94" stroke="rgba(50, 20, 112, 1)" stroke-width="1.5"></path><path d="M375.71 509.94L375.71 509.94" stroke="rgba(50, 20, 112, 1)" stroke-width="1.5"></path><path d="M375.71 509.94L494.66 510.23" stroke="rgba(50, 20, 112, 1)" stroke-width="1.5"></path><path d="M375.71 509.94L499.67 397.57" stroke="rgba(50, 20, 112, 1)" stroke-width="1.5"></path><path d="M406.27 681.76L406.27 681.76" stroke="rgba(50, 20, 112, 1)" stroke-width="1.5"></path><path d="M406.27 681.76L492.23 640.4" stroke="rgba(50, 20, 112, 1)" stroke-width="1.5"></path><path d="M406.27 681.76L375.71 509.94" stroke="rgba(50, 20, 112, 1)" stroke-width="1.5"></path><path d="M406.27 681.76L494.66 510.23" stroke="rgba(50, 20, 112, 1)" stroke-width="1.5"></path><path d="M406.27 681.76L236.09 514.61" stroke="rgba(50, 20, 112, 1)" stroke-width="1.5"></path><path d="M499.67 397.57L499.67 397.57" stroke="rgba(50, 20, 112, 1)" stroke-width="1.5"></path><path d="M499.67 397.57L494.66 510.23" stroke="rgba(50, 20, 112, 1)" stroke-width="1.5"></path><path d="M499.67 397.57L341.79 409.44" stroke="rgba(50, 20, 112, 1)" stroke-width="1.5"></path><path d="M499.67 397.57L662.71 342.8" stroke="rgba(50, 20, 112, 1)" stroke-width="1.5"></path><path d="M499.67 397.57L650.36 239.85" stroke="rgba(50, 20, 112, 1)" stroke-width="1.5"></path><path d="M494.66 510.23L494.66 510.23" stroke="rgba(50, 20, 112, 1)" stroke-width="1.5"></path><path d="M494.66 510.23L492.23 640.4" stroke="rgba(50, 20, 112, 1)" stroke-width="1.5"></path><path d="M494.66 510.23L660.12 559.03" stroke="rgba(50, 20, 112, 1)" stroke-width="1.5"></path><path d="M494.66 510.23L341.79 409.44" stroke="rgba(50, 20, 112, 1)" stroke-width="1.5"></path><path d="M492.23 640.4L492.23 640.4" stroke="rgba(50, 20, 112, 1)" stroke-width="1.5"></path><path d="M650.36 239.85L650.36 239.85" stroke="rgba(50, 20, 112, 1)" stroke-width="1.5"></path><path d="M650.36 239.85L662.71 342.8" stroke="rgba(50, 20, 112, 1)" stroke-width="1.5"></path><path d="M650.36 239.85L793.82 190.34" stroke="rgba(50, 20, 112, 1)" stroke-width="1.5"></path><path d="M650.36 239.85L836.36 399.07" stroke="rgba(50, 20, 112, 1)" stroke-width="1.5"></path><path d="M662.71 342.8L662.71 342.8" stroke="rgba(50, 20, 112, 1)" stroke-width="1.5"></path><path d="M662.71 342.8L836.36 399.07" stroke="rgba(50, 20, 112, 1)" stroke-width="1.5"></path><path d="M660.12 559.03L660.12 559.03" stroke="rgba(50, 20, 112, 1)" stroke-width="1.5"></path><path d="M660.12 559.03L651 704.95" stroke="rgba(50, 20, 112, 1)" stroke-width="1.5"></path><path d="M660.12 559.03L816.82 653.91" stroke="rgba(50, 20, 112, 1)" stroke-width="1.5"></path><path d="M660.12 559.03L492.23 640.4" stroke="rgba(50, 20, 112, 1)" stroke-width="1.5"></path><path d="M651 704.95L651 704.95" stroke="rgba(50, 20, 112, 1)" stroke-width="1.5"></path><path d="M651 704.95L492.23 640.4" stroke="rgba(50, 20, 112, 1)" stroke-width="1.5"></path><path d="M851.33 94.34L851.33 94.34" stroke="rgba(50, 20, 112, 1)" stroke-width="1.5"></path><path d="M851.33 94.34L793.82 190.34" stroke="rgba(50, 20, 112, 1)" stroke-width="1.5"></path><path d="M851.33 94.34L994.79 50.8" stroke="rgba(50, 20, 112, 1)" stroke-width="1.5"></path><path d="M851.33 94.34L999.4 205.53" stroke="rgba(50, 20, 112, 1)" stroke-width="1.5"></path><path d="M851.33 94.34L940.91 -94.41" stroke="rgba(50, 20, 112, 1)" stroke-width="1.5"></path><path d="M851.33 94.34L650.36 239.85" stroke="rgba(50, 20, 112, 1)" stroke-width="1.5"></path><path d="M793.82 190.34L793.82 190.34" stroke="rgba(50, 20, 112, 1)" stroke-width="1.5"></path><path d="M793.82 190.34L662.71 342.8" stroke="rgba(50, 20, 112, 1)" stroke-width="1.5"></path><path d="M793.82 190.34L999.4 205.53" stroke="rgba(50, 20, 112, 1)" stroke-width="1.5"></path><path d="M836.36 399.07L836.36 399.07" stroke="rgba(50, 20, 112, 1)" stroke-width="1.5"></path><path d="M836.36 399.07L997.66 352.42" stroke="rgba(50, 20, 112, 1)" stroke-width="1.5"></path><path d="M836.36 399.07L945.85 556.45" stroke="rgba(50, 20, 112, 1)" stroke-width="1.5"></path><path d="M816.82 653.91L816.82 653.91" stroke="rgba(50, 20, 112, 1)" stroke-width="1.5"></path><path d="M816.82 653.91L945.85 556.45" stroke="rgba(50, 20, 112, 1)" stroke-width="1.5"></path><path d="M816.82 653.91L651 704.95" stroke="rgba(50, 20, 112, 1)" stroke-width="1.5"></path><path d="M940.91 -94.41L940.91 -94.41" stroke="rgba(50, 20, 112, 1)" stroke-width="1.5"></path><path d="M940.91 -94.41L994.79 50.8" stroke="rgba(50, 20, 112, 1)" stroke-width="1.5"></path><path d="M940.91 -94.41L1117.68 -76.73" stroke="rgba(50, 20, 112, 1)" stroke-width="1.5"></path><path d="M994.79 50.8L994.79 50.8" stroke="rgba(50, 20, 112, 1)" stroke-width="1.5"></path><path d="M994.79 50.8L1104.48 75.38" stroke="rgba(50, 20, 112, 1)" stroke-width="1.5"></path><path d="M994.79 50.8L999.4 205.53" stroke="rgba(50, 20, 112, 1)" stroke-width="1.5"></path><path d="M999.4 205.53L999.4 205.53" stroke="rgba(50, 20, 112, 1)" stroke-width="1.5"></path><path d="M999.4 205.53L1128.17 253.7" stroke="rgba(50, 20, 112, 1)" stroke-width="1.5"></path><path d="M999.4 205.53L997.66 352.42" stroke="rgba(50, 20, 112, 1)" stroke-width="1.5"></path><path d="M999.4 205.53L1104.48 75.38" stroke="rgba(50, 20, 112, 1)" stroke-width="1.5"></path><path d="M999.4 205.53L1090.34 356.31" stroke="rgba(50, 20, 112, 1)" stroke-width="1.5"></path><path d="M997.66 352.42L997.66 352.42" stroke="rgba(50, 20, 112, 1)" stroke-width="1.5"></path><path d="M997.66 352.42L1090.34 356.31" stroke="rgba(50, 20, 112, 1)" stroke-width="1.5"></path><path d="M997.66 352.42L1128.17 253.7" stroke="rgba(50, 20, 112, 1)" stroke-width="1.5"></path><path d="M997.66 352.42L945.85 556.45" stroke="rgba(50, 20, 112, 1)" stroke-width="1.5"></path><path d="M945.85 556.45L945.85 556.45" stroke="rgba(50, 20, 112, 1)" stroke-width="1.5"></path><path d="M945.85 556.45L985.1 698.98" stroke="rgba(50, 20, 112, 1)" stroke-width="1.5"></path><path d="M945.85 556.45L1144.01 518.67" stroke="rgba(50, 20, 112, 1)" stroke-width="1.5"></path><path d="M985.1 698.98L985.1 698.98" stroke="rgba(50, 20, 112, 1)" stroke-width="1.5"></path><path d="M985.1 698.98L816.82 653.91" stroke="rgba(50, 20, 112, 1)" stroke-width="1.5"></path><path d="M985.1 698.98L1157.13 658.98" stroke="rgba(50, 20, 112, 1)" stroke-width="1.5"></path><path d="M985.1 698.98L1144.01 518.67" stroke="rgba(50, 20, 112, 1)" stroke-width="1.5"></path><path d="M985.1 698.98L651 704.95" stroke="rgba(50, 20, 112, 1)" stroke-width="1.5"></path><path d="M1117.68 -76.73L1117.68 -76.73" stroke="rgba(50, 20, 112, 1)" stroke-width="1.5"></path><path d="M1117.68 -76.73L1104.48 75.38" stroke="rgba(50, 20, 112, 1)" stroke-width="1.5"></path><path d="M1117.68 -76.73L994.79 50.8" stroke="rgba(50, 20, 112, 1)" stroke-width="1.5"></path><path d="M1117.68 -76.73L1297.28 -87.14" stroke="rgba(50, 20, 112, 1)" stroke-width="1.5"></path><path d="M1104.48 75.38L1104.48 75.38" stroke="rgba(50, 20, 112, 1)" stroke-width="1.5"></path><path d="M1104.48 75.38L1268.18 53.97" stroke="rgba(50, 20, 112, 1)" stroke-width="1.5"></path><path d="M1128.17 253.7L1128.17 253.7" stroke="rgba(50, 20, 112, 1)" stroke-width="1.5"></path><path d="M1128.17 253.7L1090.34 356.31" stroke="rgba(50, 20, 112, 1)" stroke-width="1.5"></path><path d="M1090.34 356.31L1090.34 356.31" stroke="rgba(50, 20, 112, 1)" stroke-width="1.5"></path><path d="M1090.34 356.31L1144.01 518.67" stroke="rgba(50, 20, 112, 1)" stroke-width="1.5"></path><path d="M1144.01 518.67L1144.01 518.67" stroke="rgba(50, 20, 112, 1)" stroke-width="1.5"></path><path d="M1144.01 518.67L1157.13 658.98" stroke="rgba(50, 20, 112, 1)" stroke-width="1.5"></path><path d="M1144.01 518.67L1292.95 491.85" stroke="rgba(50, 20, 112, 1)" stroke-width="1.5"></path><path d="M1157.13 658.98L1157.13 658.98" stroke="rgba(50, 20, 112, 1)" stroke-width="1.5"></path><path d="M1157.13 658.98L1292.95 491.85" stroke="rgba(50, 20, 112, 1)" stroke-width="1.5"></path><path d="M1297.28 -87.14L1297.28 -87.14" stroke="rgba(50, 20, 112, 1)" stroke-width="1.5"></path><path d="M1297.28 -87.14L1401.44 -92.72" stroke="rgba(50, 20, 112, 1)" stroke-width="1.5"></path><path d="M1297.28 -87.14L1268.18 53.97" stroke="rgba(50, 20, 112, 1)" stroke-width="1.5"></path><path d="M1268.18 53.97L1268.18 53.97" stroke="rgba(50, 20, 112, 1)" stroke-width="1.5"></path><path d="M1266.37 237.94L1266.37 237.94" stroke="rgba(50, 20, 112, 1)" stroke-width="1.5"></path><path d="M1266.37 237.94L1128.17 253.7" stroke="rgba(50, 20, 112, 1)" stroke-width="1.5"></path><path d="M1266.37 237.94L1274.93 386.39" stroke="rgba(50, 20, 112, 1)" stroke-width="1.5"></path><path d="M1274.93 386.39L1274.93 386.39" stroke="rgba(50, 20, 112, 1)" stroke-width="1.5"></path><path d="M1274.93 386.39L1292.95 491.85" stroke="rgba(50, 20, 112, 1)" stroke-width="1.5"></path><path d="M1292.95 491.85L1292.95 491.85" stroke="rgba(50, 20, 112, 1)" stroke-width="1.5"></path><path d="M1292.95 491.85L1441.09 395.36" stroke="rgba(50, 20, 112, 1)" stroke-width="1.5"></path><path d="M1401.44 -92.72L1401.44 -92.72" stroke="rgba(50, 20, 112, 1)" stroke-width="1.5"></path><path d="M1401.44 -92.72L1585.48 -107.75" stroke="rgba(50, 20, 112, 1)" stroke-width="1.5"></path><path d="M1401.44 -92.72L1268.18 53.97" stroke="rgba(50, 20, 112, 1)" stroke-width="1.5"></path><path d="M1401.44 -92.72L1407.13 108.58" stroke="rgba(50, 20, 112, 1)" stroke-width="1.5"></path><path d="M1401.44 -92.72L1604.72 97.19" stroke="rgba(50, 20, 112, 1)" stroke-width="1.5"></path><path d="M1407.13 108.58L1407.13 108.58" stroke="rgba(50, 20, 112, 1)" stroke-width="1.5"></path><path d="M1407.13 108.58L1268.18 53.97" stroke="rgba(50, 20, 112, 1)" stroke-width="1.5"></path><path d="M1407.13 108.58L1424.81 259.81" stroke="rgba(50, 20, 112, 1)" stroke-width="1.5"></path><path d="M1424.81 259.81L1424.81 259.81" stroke="rgba(50, 20, 112, 1)" stroke-width="1.5"></path><path d="M1424.81 259.81L1441.09 395.36" stroke="rgba(50, 20, 112, 1)" stroke-width="1.5"></path><path d="M1424.81 259.81L1560.63 231.5" stroke="rgba(50, 20, 112, 1)" stroke-width="1.5"></path><path d="M1424.81 259.81L1266.37 237.94" stroke="rgba(50, 20, 112, 1)" stroke-width="1.5"></path><path d="M1424.81 259.81L1550.97 407.74" stroke="rgba(50, 20, 112, 1)" stroke-width="1.5"></path><path d="M1441.09 395.36L1441.09 395.36" stroke="rgba(50, 20, 112, 1)" stroke-width="1.5"></path><path d="M1441.09 395.36L1550.97 407.74" stroke="rgba(50, 20, 112, 1)" stroke-width="1.5"></path><path d="M1441.09 395.36L1274.93 386.39" stroke="rgba(50, 20, 112, 1)" stroke-width="1.5"></path><path d="M1435.29 701.17L1435.29 701.17" stroke="rgba(50, 20, 112, 1)" stroke-width="1.5"></path><path d="M1435.29 701.17L1543.96 695.85" stroke="rgba(50, 20, 112, 1)" stroke-width="1.5"></path><path d="M1435.29 701.17L1597.33 531.19" stroke="rgba(50, 20, 112, 1)" stroke-width="1.5"></path><path d="M1585.48 -107.75L1585.48 -107.75" stroke="rgba(50, 20, 112, 1)" stroke-width="1.5"></path><path d="M1585.48 -107.75L1604.72 97.19" stroke="rgba(50, 20, 112, 1)" stroke-width="1.5"></path><path d="M1585.48 -107.75L1407.13 108.58" stroke="rgba(50, 20, 112, 1)" stroke-width="1.5"></path><path d="M1585.48 -107.75L1297.28 -87.14" stroke="rgba(50, 20, 112, 1)" stroke-width="1.5"></path><path d="M1604.72 97.19L1604.72 97.19" stroke="rgba(50, 20, 112, 1)" stroke-width="1.5"></path><path d="M1604.72 97.19L1560.63 231.5" stroke="rgba(50, 20, 112, 1)" stroke-width="1.5"></path><path d="M1604.72 97.19L1407.13 108.58" stroke="rgba(50, 20, 112, 1)" stroke-width="1.5"></path><path d="M1604.72 97.19L1424.81 259.81" stroke="rgba(50, 20, 112, 1)" stroke-width="1.5"></path><path d="M1604.72 97.19L1550.97 407.74" stroke="rgba(50, 20, 112, 1)" stroke-width="1.5"></path><path d="M1560.63 231.5L1560.63 231.5" stroke="rgba(50, 20, 112, 1)" stroke-width="1.5"></path><path d="M1550.97 407.74L1550.97 407.74" stroke="rgba(50, 20, 112, 1)" stroke-width="1.5"></path><path d="M1550.97 407.74L1597.33 531.19" stroke="rgba(50, 20, 112, 1)" stroke-width="1.5"></path><path d="M1550.97 407.74L1560.63 231.5" stroke="rgba(50, 20, 112, 1)" stroke-width="1.5"></path><path d="M1550.97 407.74L1292.95 491.85" stroke="rgba(50, 20, 112, 1)" stroke-width="1.5"></path><path d="M1597.33 531.19L1597.33 531.19" stroke="rgba(50, 20, 112, 1)" stroke-width="1.5"></path><path d="M1597.33 531.19L1543.96 695.85" stroke="rgba(50, 20, 112, 1)" stroke-width="1.5"></path><path d="M1597.33 531.19L1441.09 395.36" stroke="rgba(50, 20, 112, 1)" stroke-width="1.5"></path><path d="M1543.96 695.85L1543.96 695.85" stroke="rgba(50, 20, 112, 1)" stroke-width="1.5"></path><path d="M1543.96 695.85L1550.97 407.74" stroke="rgba(50, 20, 112, 1)" stroke-width="1.5"></path><circle r="5" cx="-107.87" cy="351.69" fill="rgba(50, 20, 112, 1)"></circle><circle r="5" cx="-54.25" cy="533.37" fill="rgba(50, 20, 112, 1)"></circle><circle r="5" cx="-101.59" cy="707" fill="rgba(50, 20, 112, 1)"></circle><circle r="5" cx="40.14" cy="551.03" fill="rgba(50, 20, 112, 1)"></circle><circle r="5" cx="42.02" cy="654.15" fill="rgba(50, 20, 112, 1)"></circle><circle r="5" cx="208.99" cy="390.1" fill="rgba(50, 20, 112, 1)"></circle><circle r="5" cx="236.09" cy="514.61" fill="rgba(50, 20, 112, 1)"></circle><circle r="5" cx="209.99" cy="640.04" fill="rgba(50, 20, 112, 1)"></circle><circle r="5" cx="341.79" cy="409.44" fill="rgba(50, 20, 112, 1)"></circle><circle r="5" cx="375.71" cy="509.94" fill="rgba(50, 20, 112, 1)"></circle><circle r="5" cx="406.27" cy="681.76" fill="rgba(50, 20, 112, 1)"></circle><circle r="5" cx="499.67" cy="397.57" fill="rgba(50, 20, 112, 1)"></circle><circle r="5" cx="494.66" cy="510.23" fill="rgba(50, 20, 112, 1)"></circle><circle r="5" cx="492.23" cy="640.4" fill="rgba(50, 20, 112, 1)"></circle><circle r="5" cx="650.36" cy="239.85" fill="rgba(50, 20, 112, 1)"></circle><circle r="5" cx="662.71" cy="342.8" fill="rgba(50, 20, 112, 1)"></circle><circle r="5" cx="660.12" cy="559.03" fill="rgba(50, 20, 112, 1)"></circle><circle r="5" cx="651" cy="704.95" fill="rgba(50, 20, 112, 1)"></circle><circle r="5" cx="851.33" cy="94.34" fill="rgba(50, 20, 112, 1)"></circle><circle r="5" cx="793.82" cy="190.34" fill="rgba(50, 20, 112, 1)"></circle><circle r="5" cx="836.36" cy="399.07" fill="rgba(50, 20, 112, 1)"></circle><circle r="5" cx="816.82" cy="653.91" fill="rgba(50, 20, 112, 1)"></circle><circle r="5" cx="940.91" cy="-94.41" fill="rgba(50, 20, 112, 1)"></circle><circle r="5" cx="994.79" cy="50.8" fill="rgba(50, 20, 112, 1)"></circle><circle r="5" cx="999.4" cy="205.53" fill="rgba(50, 20, 112, 1)"></circle><circle r="5" cx="997.66" cy="352.42" fill="rgba(50, 20, 112, 1)"></circle><circle r="5" cx="945.85" cy="556.45" fill="rgba(50, 20, 112, 1)"></circle><circle r="5" cx="985.1" cy="698.98" fill="rgba(50, 20, 112, 1)"></circle><circle r="5" cx="1117.68" cy="-76.73" fill="rgba(50, 20, 112, 1)"></circle><circle r="5" cx="1104.48" cy="75.38" fill="rgba(50, 20, 112, 1)"></circle><circle r="5" cx="1128.17" cy="253.7" fill="rgba(50, 20, 112, 1)"></circle><circle r="5" cx="1090.34" cy="356.31" fill="rgba(50, 20, 112, 1)"></circle><circle r="5" cx="1144.01" cy="518.67" fill="rgba(50, 20, 112, 1)"></circle><circle r="5" cx="1157.13" cy="658.98" fill="rgba(50, 20, 112, 1)"></circle><circle r="5" cx="1297.28" cy="-87.14" fill="rgba(50, 20, 112, 1)"></circle><circle r="5" cx="1268.18" cy="53.97" fill="rgba(50, 20, 112, 1)"></circle><circle r="5" cx="1266.37" cy="237.94" fill="rgba(50, 20, 112, 1)"></circle><circle r="5" cx="1274.93" cy="386.39" fill="rgba(50, 20, 112, 1)"></circle><circle r="5" cx="1292.95" cy="491.85" fill="rgba(50, 20, 112, 1)"></circle><circle r="5" cx="1401.44" cy="-92.72" fill="rgba(50, 20, 112, 1)"></circle><circle r="5" cx="1407.13" cy="108.58" fill="rgba(50, 20, 112, 1)"></circle><circle r="5" cx="1424.81" cy="259.81" fill="rgba(50, 20, 112, 1)"></circle><circle r="5" cx="1441.09" cy="395.36" fill="rgba(50, 20, 112, 1)"></circle><circle r="5" cx="1435.29" cy="701.17" fill="rgba(50, 20, 112, 1)"></circle><circle r="5" cx="1585.48" cy="-107.75" fill="rgba(50, 20, 112, 1)"></circle><circle r="5" cx="1604.72" cy="97.19" fill="rgba(50, 20, 112, 1)"></circle><circle r="5" cx="1560.63" cy="231.5" fill="rgba(50, 20, 112, 1)"></circle><circle r="5" cx="1550.97" cy="407.74" fill="rgba(50, 20, 112, 1)"></circle><circle r="5" cx="1597.33" cy="531.19" fill="rgba(50, 20, 112, 1)"></circle><circle r="5" cx="1543.96" cy="695.85" fill="rgba(50, 20, 112, 1)"></circle><path d="M247.25 532.46L247.25 532.46" stroke="hsl(270, 100%, 77.5%)" stroke-width="1.5"></path><path d="M247.25 532.46L247.26 653.21" stroke="hsl(270, 100%, 77.5%)" stroke-width="1.5"></path><path d="M247.25 532.46L396.19 553.53" stroke="hsl(270, 100%, 77.5%)" stroke-width="1.5"></path><path d="M247.25 532.46L106.78 663.61" stroke="hsl(270, 100%, 77.5%)" stroke-width="1.5"></path><path d="M247.25 532.46L43.61 512.91" stroke="hsl(270, 100%, 77.5%)" stroke-width="1.5"></path><path d="M247.25 532.46L385.69 711.26" stroke="hsl(270, 100%, 77.5%)" stroke-width="1.5"></path><path d="M247.25 532.46L489.53 554.15" stroke="hsl(270, 100%, 77.5%)" stroke-width="1.5"></path><path d="M489.53 554.15L489.53 554.15" stroke="hsl(270, 100%, 77.5%)" stroke-width="1.5"></path><path d="M489.53 554.15L396.19 553.53" stroke="hsl(270, 100%, 77.5%)" stroke-width="1.5"></path><path d="M489.53 554.15L561.87 690.18" stroke="hsl(270, 100%, 77.5%)" stroke-width="1.5"></path><path d="M1005.39 250.8L1005.39 250.8" stroke="hsl(270, 100%, 77.5%)" stroke-width="1.5"></path><path d="M1005.39 250.8L1104.25 239.09" stroke="hsl(270, 100%, 77.5%)" stroke-width="1.5"></path><path d="M1005.39 250.8L984.58 351.63" stroke="hsl(270, 100%, 77.5%)" stroke-width="1.5"></path><path d="M1005.39 250.8L1160.88 340.65" stroke="hsl(270, 100%, 77.5%)" stroke-width="1.5"></path><path d="M1005.39 250.8L859.37 372.31" stroke="hsl(270, 100%, 77.5%)" stroke-width="1.5"></path><path d="M1005.39 250.8L1241.33 362.68" stroke="hsl(270, 100%, 77.5%)" stroke-width="1.5"></path><path d="M1005.39 250.8L1116.28 511.87" stroke="hsl(270, 100%, 77.5%)" stroke-width="1.5"></path><path d="M1160.88 340.65L1160.88 340.65" stroke="hsl(270, 100%, 77.5%)" stroke-width="1.5"></path><path d="M1160.88 340.65L1241.33 362.68" stroke="hsl(270, 100%, 77.5%)" stroke-width="1.5"></path><path d="M1160.88 340.65L1104.25 239.09" stroke="hsl(270, 100%, 77.5%)" stroke-width="1.5"></path><path d="M1160.88 340.65L984.58 351.63" stroke="hsl(270, 100%, 77.5%)" stroke-width="1.5"></path><path d="M1160.88 340.65L1116.28 511.87" stroke="hsl(270, 100%, 77.5%)" stroke-width="1.5"></path><path d="M1160.88 340.65L1240.5 556.07" stroke="hsl(270, 100%, 77.5%)" stroke-width="1.5"></path><path d="M1275.21 -71.06L1275.21 -71.06" stroke="hsl(270, 100%, 77.5%)" stroke-width="1.5"></path><path d="M1275.21 -71.06L1260.64 50.88" stroke="hsl(270, 100%, 77.5%)" stroke-width="1.5"></path><path d="M1275.21 -71.06L1446.67 -69.43" stroke="hsl(270, 100%, 77.5%)" stroke-width="1.5"></path><path d="M1446.67 -69.43L1446.67 -69.43" stroke="hsl(270, 100%, 77.5%)" stroke-width="1.5"></path><path d="M1446.67 -69.43L1549.57 53.44" stroke="hsl(270, 100%, 77.5%)" stroke-width="1.5"></path><path d="M1547.77 513.51L1547.77 513.51" stroke="hsl(270, 100%, 77.5%)" stroke-width="1.5"></path><path d="M1547.77 513.51L1586 369.57" stroke="hsl(270, 100%, 77.5%)" stroke-width="1.5"></path><path d="M1547.77 513.51L1555.59 670.19" stroke="hsl(270, 100%, 77.5%)" stroke-width="1.5"></path><path d="M1547.77 513.51L1388.57 492.89" stroke="hsl(270, 100%, 77.5%)" stroke-width="1.5"></path><path d="M1547.77 513.51L1450.97 359.22" stroke="hsl(270, 100%, 77.5%)" stroke-width="1.5"></path><path d="M1547.77 513.51L1390.21 665.59" stroke="hsl(270, 100%, 77.5%)" stroke-width="1.5"></path><path d="M1547.77 513.51L1580.04 235.6" stroke="hsl(270, 100%, 77.5%)" stroke-width="1.5"></path><path d="M-86.62 515.26L-86.62 515.26" stroke="hsl(270, 100%, 77.5%)" stroke-width="1.5"></path><path d="M-86.62 515.26L43.61 512.91" stroke="hsl(270, 100%, 77.5%)" stroke-width="1.5"></path><path d="M-86.62 515.26L-48.85 709.15" stroke="hsl(270, 100%, 77.5%)" stroke-width="1.5"></path><path d="M-86.62 515.26L106.78 663.61" stroke="hsl(270, 100%, 77.5%)" stroke-width="1.5"></path><path d="M-48.85 709.15L-48.85 709.15" stroke="hsl(270, 100%, 77.5%)" stroke-width="1.5"></path><path d="M-48.85 709.15L106.78 663.61" stroke="hsl(270, 100%, 77.5%)" stroke-width="1.5"></path><path d="M-48.85 709.15L43.61 512.91" stroke="hsl(270, 100%, 77.5%)" stroke-width="1.5"></path><path d="M-48.85 709.15L247.26 653.21" stroke="hsl(270, 100%, 77.5%)" stroke-width="1.5"></path><path d="M-48.85 709.15L247.25 532.46" stroke="hsl(270, 100%, 77.5%)" stroke-width="1.5"></path><path d="M43.61 512.91L43.61 512.91" stroke="hsl(270, 100%, 77.5%)" stroke-width="1.5"></path><path d="M43.61 512.91L106.78 663.61" stroke="hsl(270, 100%, 77.5%)" stroke-width="1.5"></path><path d="M106.78 663.61L106.78 663.61" stroke="hsl(270, 100%, 77.5%)" stroke-width="1.5"></path><path d="M106.78 663.61L247.26 653.21" stroke="hsl(270, 100%, 77.5%)" stroke-width="1.5"></path><path d="M247.26 653.21L247.26 653.21" stroke="hsl(270, 100%, 77.5%)" stroke-width="1.5"></path><path d="M247.26 653.21L385.69 711.26" stroke="hsl(270, 100%, 77.5%)" stroke-width="1.5"></path><path d="M247.26 653.21L396.19 553.53" stroke="hsl(270, 100%, 77.5%)" stroke-width="1.5"></path><path d="M247.26 653.21L43.61 512.91" stroke="hsl(270, 100%, 77.5%)" stroke-width="1.5"></path><path d="M396.19 553.53L396.19 553.53" stroke="hsl(270, 100%, 77.5%)" stroke-width="1.5"></path><path d="M396.19 553.53L385.69 711.26" stroke="hsl(270, 100%, 77.5%)" stroke-width="1.5"></path><path d="M385.69 711.26L385.69 711.26" stroke="hsl(270, 100%, 77.5%)" stroke-width="1.5"></path><path d="M385.69 711.26L561.87 690.18" stroke="hsl(270, 100%, 77.5%)" stroke-width="1.5"></path><path d="M385.69 711.26L489.53 554.15" stroke="hsl(270, 100%, 77.5%)" stroke-width="1.5"></path><path d="M535.09 402.22L535.09 402.22" stroke="hsl(270, 100%, 77.5%)" stroke-width="1.5"></path><path d="M535.09 402.22L489.53 554.15" stroke="hsl(270, 100%, 77.5%)" stroke-width="1.5"></path><path d="M535.09 402.22L673.9 530.88" stroke="hsl(270, 100%, 77.5%)" stroke-width="1.5"></path><path d="M535.09 402.22L396.19 553.53" stroke="hsl(270, 100%, 77.5%)" stroke-width="1.5"></path><path d="M561.87 690.18L561.87 690.18" stroke="hsl(270, 100%, 77.5%)" stroke-width="1.5"></path><path d="M561.87 690.18L698.88 654.28" stroke="hsl(270, 100%, 77.5%)" stroke-width="1.5"></path><path d="M673.9 530.88L673.9 530.88" stroke="hsl(270, 100%, 77.5%)" stroke-width="1.5"></path><path d="M673.9 530.88L698.88 654.28" stroke="hsl(270, 100%, 77.5%)" stroke-width="1.5"></path><path d="M673.9 530.88L806.99 488.94" stroke="hsl(270, 100%, 77.5%)" stroke-width="1.5"></path><path d="M673.9 530.88L489.53 554.15" stroke="hsl(270, 100%, 77.5%)" stroke-width="1.5"></path><path d="M698.88 654.28L698.88 654.28" stroke="hsl(270, 100%, 77.5%)" stroke-width="1.5"></path><path d="M698.88 654.28L806.99 488.94" stroke="hsl(270, 100%, 77.5%)" stroke-width="1.5"></path><path d="M698.88 654.28L489.53 554.15" stroke="hsl(270, 100%, 77.5%)" stroke-width="1.5"></path><path d="M859.37 372.31L859.37 372.31" stroke="hsl(270, 100%, 77.5%)" stroke-width="1.5"></path><path d="M859.37 372.31L984.58 351.63" stroke="hsl(270, 100%, 77.5%)" stroke-width="1.5"></path><path d="M806.99 488.94L806.99 488.94" stroke="hsl(270, 100%, 77.5%)" stroke-width="1.5"></path><path d="M806.99 488.94L859.37 372.31" stroke="hsl(270, 100%, 77.5%)" stroke-width="1.5"></path><path d="M806.99 488.94L1001.46 555.76" stroke="hsl(270, 100%, 77.5%)" stroke-width="1.5"></path><path d="M984.58 351.63L984.58 351.63" stroke="hsl(270, 100%, 77.5%)" stroke-width="1.5"></path><path d="M984.58 351.63L1104.25 239.09" stroke="hsl(270, 100%, 77.5%)" stroke-width="1.5"></path><path d="M984.58 351.63L1001.46 555.76" stroke="hsl(270, 100%, 77.5%)" stroke-width="1.5"></path><path d="M1001.46 555.76L1001.46 555.76" stroke="hsl(270, 100%, 77.5%)" stroke-width="1.5"></path><path d="M1001.46 555.76L1116.28 511.87" stroke="hsl(270, 100%, 77.5%)" stroke-width="1.5"></path><path d="M1001.46 555.76L973.97 686.69" stroke="hsl(270, 100%, 77.5%)" stroke-width="1.5"></path><path d="M973.97 686.69L973.97 686.69" stroke="hsl(270, 100%, 77.5%)" stroke-width="1.5"></path><path d="M973.97 686.69L1161.13 691.93" stroke="hsl(270, 100%, 77.5%)" stroke-width="1.5"></path><path d="M973.97 686.69L1116.28 511.87" stroke="hsl(270, 100%, 77.5%)" stroke-width="1.5"></path><path d="M1104.25 239.09L1104.25 239.09" stroke="hsl(270, 100%, 77.5%)" stroke-width="1.5"></path><path d="M1116.28 511.87L1116.28 511.87" stroke="hsl(270, 100%, 77.5%)" stroke-width="1.5"></path><path d="M1116.28 511.87L1240.5 556.07" stroke="hsl(270, 100%, 77.5%)" stroke-width="1.5"></path><path d="M1116.28 511.87L1238.73 646.24" stroke="hsl(270, 100%, 77.5%)" stroke-width="1.5"></path><path d="M1116.28 511.87L1161.13 691.93" stroke="hsl(270, 100%, 77.5%)" stroke-width="1.5"></path><path d="M1116.28 511.87L1241.33 362.68" stroke="hsl(270, 100%, 77.5%)" stroke-width="1.5"></path><path d="M1161.13 691.93L1161.13 691.93" stroke="hsl(270, 100%, 77.5%)" stroke-width="1.5"></path><path d="M1161.13 691.93L1238.73 646.24" stroke="hsl(270, 100%, 77.5%)" stroke-width="1.5"></path><path d="M1161.13 691.93L1240.5 556.07" stroke="hsl(270, 100%, 77.5%)" stroke-width="1.5"></path><path d="M1260.64 50.88L1260.64 50.88" stroke="hsl(270, 100%, 77.5%)" stroke-width="1.5"></path><path d="M1260.64 50.88L1396.86 94.93" stroke="hsl(270, 100%, 77.5%)" stroke-width="1.5"></path><path d="M1260.64 50.88L1446.67 -69.43" stroke="hsl(270, 100%, 77.5%)" stroke-width="1.5"></path><path d="M1241.33 362.68L1241.33 362.68" stroke="hsl(270, 100%, 77.5%)" stroke-width="1.5"></path><path d="M1241.33 362.68L1104.25 239.09" stroke="hsl(270, 100%, 77.5%)" stroke-width="1.5"></path><path d="M1241.33 362.68L1240.5 556.07" stroke="hsl(270, 100%, 77.5%)" stroke-width="1.5"></path><path d="M1240.5 556.07L1240.5 556.07" stroke="hsl(270, 100%, 77.5%)" stroke-width="1.5"></path><path d="M1240.5 556.07L1238.73 646.24" stroke="hsl(270, 100%, 77.5%)" stroke-width="1.5"></path><path d="M1238.73 646.24L1238.73 646.24" stroke="hsl(270, 100%, 77.5%)" stroke-width="1.5"></path><path d="M1238.73 646.24L1390.21 665.59" stroke="hsl(270, 100%, 77.5%)" stroke-width="1.5"></path><path d="M1238.73 646.24L1388.57 492.89" stroke="hsl(270, 100%, 77.5%)" stroke-width="1.5"></path><path d="M1396.86 94.93L1396.86 94.93" stroke="hsl(270, 100%, 77.5%)" stroke-width="1.5"></path><path d="M1396.86 94.93L1434.56 230.69" stroke="hsl(270, 100%, 77.5%)" stroke-width="1.5"></path><path d="M1396.86 94.93L1549.57 53.44" stroke="hsl(270, 100%, 77.5%)" stroke-width="1.5"></path><path d="M1396.86 94.93L1446.67 -69.43" stroke="hsl(270, 100%, 77.5%)" stroke-width="1.5"></path><path d="M1396.86 94.93L1275.21 -71.06" stroke="hsl(270, 100%, 77.5%)" stroke-width="1.5"></path><path d="M1396.86 94.93L1580.04 235.6" stroke="hsl(270, 100%, 77.5%)" stroke-width="1.5"></path><path d="M1434.56 230.69L1434.56 230.69" stroke="hsl(270, 100%, 77.5%)" stroke-width="1.5"></path><path d="M1434.56 230.69L1450.97 359.22" stroke="hsl(270, 100%, 77.5%)" stroke-width="1.5"></path><path d="M1434.56 230.69L1580.04 235.6" stroke="hsl(270, 100%, 77.5%)" stroke-width="1.5"></path><path d="M1434.56 230.69L1586 369.57" stroke="hsl(270, 100%, 77.5%)" stroke-width="1.5"></path><path d="M1434.56 230.69L1549.57 53.44" stroke="hsl(270, 100%, 77.5%)" stroke-width="1.5"></path><path d="M1450.97 359.22L1450.97 359.22" stroke="hsl(270, 100%, 77.5%)" stroke-width="1.5"></path><path d="M1450.97 359.22L1586 369.57" stroke="hsl(270, 100%, 77.5%)" stroke-width="1.5"></path><path d="M1450.97 359.22L1388.57 492.89" stroke="hsl(270, 100%, 77.5%)" stroke-width="1.5"></path><path d="M1450.97 359.22L1580.04 235.6" stroke="hsl(270, 100%, 77.5%)" stroke-width="1.5"></path><path d="M1450.97 359.22L1241.33 362.68" stroke="hsl(270, 100%, 77.5%)" stroke-width="1.5"></path><path d="M1388.57 492.89L1388.57 492.89" stroke="hsl(270, 100%, 77.5%)" stroke-width="1.5"></path><path d="M1388.57 492.89L1240.5 556.07" stroke="hsl(270, 100%, 77.5%)" stroke-width="1.5"></path><path d="M1390.21 665.59L1390.21 665.59" stroke="hsl(270, 100%, 77.5%)" stroke-width="1.5"></path><path d="M1390.21 665.59L1555.59 670.19" stroke="hsl(270, 100%, 77.5%)" stroke-width="1.5"></path><path d="M1390.21 665.59L1388.57 492.89" stroke="hsl(270, 100%, 77.5%)" stroke-width="1.5"></path><path d="M1390.21 665.59L1240.5 556.07" stroke="hsl(270, 100%, 77.5%)" stroke-width="1.5"></path><path d="M1549.57 53.44L1549.57 53.44" stroke="hsl(270, 100%, 77.5%)" stroke-width="1.5"></path><path d="M1580.04 235.6L1580.04 235.6" stroke="hsl(270, 100%, 77.5%)" stroke-width="1.5"></path><path d="M1580.04 235.6L1586 369.57" stroke="hsl(270, 100%, 77.5%)" stroke-width="1.5"></path><path d="M1580.04 235.6L1549.57 53.44" stroke="hsl(270, 100%, 77.5%)" stroke-width="1.5"></path><path d="M1586 369.57L1586 369.57" stroke="hsl(270, 100%, 77.5%)" stroke-width="1.5"></path><path d="M1555.59 670.19L1555.59 670.19" stroke="hsl(270, 100%, 77.5%)" stroke-width="1.5"></path><path d="M1555.59 670.19L1388.57 492.89" stroke="hsl(270, 100%, 77.5%)" stroke-width="1.5"></path><path d="M1555.59 670.19L1586 369.57" stroke="hsl(270, 100%, 77.5%)" stroke-width="1.5"></path><path d="M1555.59 670.19L1238.73 646.24" stroke="hsl(270, 100%, 77.5%)" stroke-width="1.5"></path><circle r="25" cx="247.25" cy="532.46" fill="url(#SvgjsRadialGradient1321)"></circle><circle r="25" cx="489.53" cy="554.15" fill="url(#SvgjsRadialGradient1321)"></circle><circle r="25" cx="1005.39" cy="250.8" fill="url(#SvgjsRadialGradient1321)"></circle><circle r="25" cx="1160.88" cy="340.65" fill="url(#SvgjsRadialGradient1321)"></circle><circle r="25" cx="1275.21" cy="-71.06" fill="url(#SvgjsRadialGradient1321)"></circle><circle r="25" cx="1446.67" cy="-69.43" fill="url(#SvgjsRadialGradient1321)"></circle><circle r="25" cx="1547.77" cy="513.51" fill="url(#SvgjsRadialGradient1321)"></circle><circle r="5" cx="-86.62" cy="515.26" fill="#cc98ff"></circle><circle r="5" cx="-48.85" cy="709.15" fill="#cc98ff"></circle><circle r="5" cx="43.61" cy="512.91" fill="#cc98ff"></circle><circle r="5" cx="106.78" cy="663.61" fill="#cc98ff"></circle><circle r="5" cx="247.26" cy="653.21" fill="#cc98ff"></circle><circle r="5" cx="396.19" cy="553.53" fill="#cc98ff"></circle><circle r="5" cx="385.69" cy="711.26" fill="#cc98ff"></circle><circle r="5" cx="535.09" cy="402.22" fill="#cc98ff"></circle><circle r="5" cx="561.87" cy="690.18" fill="#cc98ff"></circle><circle r="5" cx="673.9" cy="530.88" fill="#cc98ff"></circle><circle r="5" cx="698.88" cy="654.28" fill="#cc98ff"></circle><circle r="5" cx="859.37" cy="372.31" fill="#cc98ff"></circle><circle r="5" cx="806.99" cy="488.94" fill="#cc98ff"></circle><circle r="5" cx="984.58" cy="351.63" fill="#cc98ff"></circle><circle r="5" cx="1001.46" cy="555.76" fill="#cc98ff"></circle><circle r="5" cx="973.97" cy="686.69" fill="#cc98ff"></circle><circle r="5" cx="1104.25" cy="239.09" fill="#cc98ff"></circle><circle r="5" cx="1116.28" cy="511.87" fill="#cc98ff"></circle><circle r="5" cx="1161.13" cy="691.93" fill="#cc98ff"></circle><circle r="5" cx="1260.64" cy="50.88" fill="#cc98ff"></circle><circle r="5" cx="1241.33" cy="362.68" fill="#cc98ff"></circle><circle r="5" cx="1240.5" cy="556.07" fill="#cc98ff"></circle><circle r="5" cx="1238.73" cy="646.24" fill="#cc98ff"></circle><circle r="5" cx="1396.86" cy="94.93" fill="#cc98ff"></circle><circle r="5" cx="1434.56" cy="230.69" fill="#cc98ff"></circle><circle r="5" cx="1450.97" cy="359.22" fill="#cc98ff"></circle><circle r="5" cx="1388.57" cy="492.89" fill="#cc98ff"></circle><circle r="5" cx="1390.21" cy="665.59" fill="#cc98ff"></circle><circle r="5" cx="1549.57" cy="53.44" fill="#cc98ff"></circle><circle r="5" cx="1580.04" cy="235.6" fill="#cc98ff"></circle><circle r="5" cx="1586" cy="369.57" fill="#cc98ff"></circle><circle r="5" cx="1555.59" cy="670.19" fill="#cc98ff"></circle></g><defs><mask id="SvgjsMask1319"><rect width="1440" height="560" fill="#ffffff"></rect></mask><linearGradient x1="100%" y1="50%" x2="0%" y2="50%" gradientUnits="userSpaceOnUse" id="SvgjsLinearGradient1320"><stop stop-color="rgba(96, 60, 201, 1)" offset="0"></stop><stop stop-color="rgba(204, 91, 236, 1)" offset="1"></stop></linearGradient><radialGradient id="SvgjsRadialGradient1321"><stop stop-color="#ffffff" offset="0.1"></stop><stop stop-color="rgba(152, 49, 255, 1)" offset="0.2"></stop><stop stop-color="rgba(152, 49, 255, 0)" offset="1"></stop></radialGradient></defs></svg>